<svg width="605" height="391" fill="none" xmlns="http://www.w3.org/2000/svg"><path d="M559.188 34.424c11.161 18.132 21.932 39.282 31.782 64.355 49.351 125.627-59.632 247.452-102.386 288.845-4.709 4.559-12.569.784-11.881-5.735 3.97-37.55-11.996-95.352-93.2-249.358-52.904-100.333 43.491-255.044 43.491-255.044 5.29 43.051 55.408 58.556 105.777 119.845" stroke="#fff" stroke-opacity=".2" stroke-width="2" stroke-miterlimit="10" stroke-linecap="round" stroke-linejoin="round"/><path d="M480.563-297.629c-30.975 68.114-63.119 165.113-60.51 270.723 3.451 139.655 109.846 221.541 91.406 313.121M256.351-99.966c45.46 6.754 73.302 21.537 98.36 7.066 0 0-52.2 135.55-141.419 150.02C81.65 78.466 35.489 95.527 12.578 115.061c-4.91 4.187-12.37.104-11.509-6.292C7.773 58.947 34.347-62.974 135.245-91.08c28.774-8.015 53.582-11.266 75.248-11.785" stroke="#fff" stroke-opacity=".2" stroke-width="2" stroke-miterlimit="10" stroke-linecap="round" stroke-linejoin="round"/><path d="M457.651-241.383s-32.895 99.982-160.442 198.762C209.199 25.541 103.551-6.24 54.125 49.425" stroke="#fff" stroke-opacity=".2" stroke-width="2" stroke-miterlimit="10" stroke-linecap="round" stroke-linejoin="round"/></svg>