<svg width="708" height="400" fill="none" xmlns="http://www.w3.org/2000/svg"><g clip-path="url(#clip0_1_47)" stroke="#fff" stroke-opacity=".2" stroke-width="2" stroke-miterlimit="10" stroke-linecap="round" stroke-linejoin="round"><path d="M430.542-11.393c-37.954 77.122-94.265 156.418-175.892 202.26-12.928 7.26-26.965 13.704-50.447 21.978"/><path d="M610.918 34.424c11.161 18.132 21.931 39.282 31.781 64.355 49.352 125.627-59.631 247.452-102.385 288.845-4.71 4.559-12.57.784-11.881-5.735 3.97-37.55-11.996-95.352-93.201-249.358-52.904-100.333 43.491-255.044 43.491-255.044 5.291 43.051 55.408 58.556 105.778 119.845"/><path d="M532.292-297.629c-30.975 68.114-63.118 165.113-60.509 270.723 3.45 139.655 109.845 221.541 91.406 313.121M308.081-99.966c45.46 6.754 73.301 21.537 98.36 7.066 0 0-52.2 135.55-141.42 150.02C133.38 78.466 87.218 95.527 64.308 115.061c-4.91 4.187-12.37.104-11.51-6.292C59.504 58.947 86.077-62.974 186.976-91.08c28.774-8.015 53.581-11.266 75.247-11.785"/><path d="M509.38-241.383s-32.894 99.982-160.441 198.762C260.928 25.541 155.281-6.24 105.855 49.425m180.227 179.98c-72.103 44.88-172.387 26.576-220.498 13.71-6.924-1.851-6.935-11.604-.037-13.554 51.752-14.63 71.141-54.397 146.642-87.579 98.304-43.206 152.896-47.857 152.896-47.857-6.945 46.802-22.884 80.95-44.182 105.563"/></g><defs><clipPath id="clip0_1_47"><path fill="#fff" transform="matrix(1 0 0 -1 0 400)" d="M0 0h708v400H0z"/></clipPath></defs></svg>