<svg width="260" height="493" fill="none" xmlns="http://www.w3.org/2000/svg"><g clip-path="url(#clip0_1_61)" stroke="#fff" stroke-opacity=".2" stroke-width="2" stroke-miterlimit="10" stroke-linecap="round" stroke-linejoin="round"><path d="M-24.317 300.974c53.3-26.267 108.102-65.24 139.783-121.733 5.018-8.948 9.471-18.662 15.19-34.914"/><path d="M7.348 425.81c12.53 7.725 27.148 15.179 44.476 21.996 86.821 34.156 171.015-41.27 199.623-70.86 3.151-3.259.542-8.699-3.963-8.223-25.952 2.748-65.899-8.302-172.334-64.503-69.34-36.614-176.263 30.1-176.263 30.1 29.753 3.661 40.468 38.347 82.826 73.207"/><path d="M-222.137 371.394c47.074-21.437 114.111-43.683 187.099-41.877 96.516 2.387 153.109 76.023 216.4 63.26M142.1 200.995c31.018-49.902 18.367-119.308 9.476-152.605-1.28-4.792-8.02-4.8-9.368-.026-10.111 35.817-37.594 49.237-60.526 101.49-29.86 68.035-33.074 105.818-33.074 105.818 32.345-4.806 55.945-15.838 72.955-30.578"/></g><defs><clipPath id="clip0_1_61"><path fill="#fff" transform="rotate(90 130 130)" d="M0 0h493v260H0z"/></clipPath></defs></svg>