<svg width="360" height="473" fill="none" xmlns="http://www.w3.org/2000/svg"><g clip-path="url(#clip0_1_105)" stroke="#fff" stroke-opacity=".2" stroke-width="2" stroke-miterlimit="10" stroke-linecap="round" stroke-linejoin="round"><path d="M-10.254 387.161c69.41-34.13 140.777-84.767 182.034-158.17 6.534-11.625 12.333-24.248 19.781-45.363"/><path d="M30.982 549.361c16.318 10.037 35.353 19.722 57.92 28.579 113.063 44.379 222.705-53.622 259.959-92.068 4.104-4.236.706-11.304-5.161-10.685-33.795 3.571-85.817-10.787-224.422-83.809-90.3-47.573-229.54 39.109-229.54 39.109 38.746 4.757 52.7 49.825 107.86 95.119"/><path d="M-267.866 478.658c61.302-27.854 148.601-56.759 243.65-54.412 125.69 3.102 199.387 98.777 281.809 82.195M-89.97 277.038c6.079 40.88 19.384 65.916 6.36 88.449 0 0 121.996-46.94 135.017-127.17C70.621 119.94 85.976 78.43 103.556 57.828c3.768-4.416.093-11.124-5.663-10.35-44.84 6.029-154.57 29.925-179.865 120.657-7.213 25.875-10.14 48.183-10.606 67.666"/><path d="M-217.244 458.055s89.983-29.58 178.885-144.276c61.346-79.142 32.743-174.145 82.842-218.59m161.981 162.067c40.393-64.837 23.919-155.017 12.34-198.28-1.667-6.226-10.444-6.236-12.199-.034-13.167 46.538-48.958 63.974-78.821 131.866-38.886 88.399-43.071 137.491-43.071 137.491 42.121-6.245 72.855-20.579 95.006-39.731"/></g><defs><clipPath id="clip0_1_105"><path fill="#fff" transform="rotate(90 180 180)" d="M0 0h473v360H0z"/></clipPath></defs></svg>