<svg width="100" height="121" fill="none" xmlns="http://www.w3.org/2000/svg"><path d="M100 121H0V0h100v121zM67.795 96.5c-1.091-.633-2.24-.691-3.39-.288-.919.317-1.408.98-1.408 1.987 0 .576-.029 1.152 0 1.728.029.835.431 1.44 1.178 1.757.316.144.604.23.92.316.46 0 .919 0 1.321-.058.115-.028.2-.057.315-.086 1.293-.287 1.896-1.036 1.896-2.36v-.606c0-.518 0-.518-.517-.518h-1.86c-.416.007-.352.115-.352 1.066v.028c.087.086.173.202.288.26.086.057.2.028.287.028 0 .432-.201.604-.632.604-.43.029-.69-.172-.718-.575v-1.469c0-.287.029-.546.345-.662.316-.086.574-.058.833.172.115.115.258.202.402.202h1.637c.258 0 .316-.115.287-.345-.057-.547-.373-.922-.832-1.181zm4.825-.403c-.316 0-.402.115-.402.431v5.011c0 .317.086.433.402.433h3.62c.803 0 .746.028.746-.749-.028-.979.143-.893-.92-.893H74.2v-.519h1.838c.69 0 .69 0 .69-.69 0-.95.085-.836-.805-.836H74.2v-.547a.936.936 0 01.402 0h1.924c.288 0 .431-.086.403-.403a4.06 4.06 0 010-.835c0-.288-.115-.403-.403-.403H72.62zm-38.604 0c-.431.029-.891.029-1.351 0-.316 0-.402.115-.402.431v2.506c0 .835.028 1.642 0 2.477-.029.345.116.46.431.431.431-.028.89 0 1.35 0 .23 0 .345-.115.345-.345v-5.155c0-.259-.115-.345-.373-.345zm12.408 0c-.23 0-.345.087-.345.317v5.212c0 .23.115.316.316.316h4.022c.23 0 .315-.115.315-.316 0-.345-.028-.662 0-1.008 0-.288-.115-.403-.402-.403h-2.154c0-.173 0-.288.03-.432v-3.311c0-.26-.088-.375-.375-.375h-1.407zm9.536-.058c-.258-.029-.402.087-.488.346a269.215 269.215 0 01-1.78 5.126c-.115.288-.001.374.257.374.374 0 .776-.029 1.15 0 .373.029.602-.087.66-.461.029-.23.172-.288.402-.288.373.029.776.029 1.15 0 .286-.029.43.058.488.345.057.346.258.462.602.433.374-.029.748 0 1.121 0 .43 0 .46-.058.316-.461-.488-1.411-.976-2.85-1.493-4.262-.489-1.295-.145-1.066-1.552-1.094-.287 0-.546 0-.833-.058zm-32.429.058c-.258 0-.345.086-.258.345.488 1.7 1.004 3.427 1.493 5.126.057.231.201.346.46.346h1.752c.23 0 .402-.087.46-.317.517-1.7 1.005-3.427 1.522-5.155.086-.23 0-.345-.259-.345h-1.12c-.603 0-.603 0-.747.576-.201.892-.43 1.757-.66 2.65a.22.22 0 01-.115-.03c-.03-.144-.087-.26-.116-.403-.2-.778-.401-1.584-.602-2.39-.058-.288-.201-.403-.489-.403h-1.32zm16.286-.029c-.43.03-.89 0-1.35 0-.229 0-.344.087-.344.346v5.183c0 .23.086.317.316.317h3.993c.23 0 .315-.087.315-.317 0-.288-.029-.605 0-.921.029-.346-.114-.461-.459-.461-.69.029-1.35 0-2.068 0a.4.4 0 010-.26v-3.483c0-.288-.115-.404-.403-.404zm17.005 2.044c.144.461.287.922.43 1.411h-.947c.143-.46.287-.921.43-1.41h.087zM18.16 71.477c-.574-.058-1.177-.087-1.752-.03-1.034.058-1.12.174-1.12 1.21-.029 4.838-.029 9.675 0 14.513 0 .835.144 1.67.374 2.448.402 1.325 1.321 2.246 2.585 2.736 1.953.748 3.878.777 5.572-.72 1.15-1.037 1.838-2.304 1.838-3.888v-7.515c0-2.506 0-5.011-.057-7.488 0-.201 0-.374-.029-.575-.057-.518-.2-.663-.69-.691a25.826 25.826 0 00-1.492-.03c-1.178 0-1.293.116-1.293 1.296V86.02c0 .345.029.69-.029 1.007a5.706 5.706 0 01-.288 1.21c-.258.633-.775.95-1.464.95-.66-.03-1.12-.461-1.293-1.066a5.434 5.434 0 01-.2-1.526V73.147c0-.346 0-.663-.029-1.008-.029-.432-.202-.634-.633-.662zm32.689.028c-.69 0-.891.202-1.006.864-.144.778-.259 1.526-.402 2.275-.489 2.649-1.005 5.299-1.494 7.948-.057.259-.144.547-.46.576-.315.028-.373-.26-.43-.49a151.738 151.738 0 01-.833-3.859c-.46-2.188-.89-4.405-1.322-6.593-.115-.547-.315-.721-.861-.721-1.063 0-2.097.029-3.13 0-.633 0-.978-.028-1.007 1.008v9.445c0 3.11 0 6.249.03 9.416 0 .202.029.404.057.606.086.402.258.575.66.575.661 0 1.322.028 1.983 0 .545 0 .774-.26.832-.806a2.64 2.64 0 00.03-.49v-5.327c0-.346.057-.72.114-1.066 0-.115.144-.259.23-.259.086 0 .258.115.287.202.144.316.259.633.345.95.488 2.016.948 4.06 1.436 6.105.115.49.287.662.804.69.43 0 .862.03 1.293 0 .775-.028.948-.2 1.12-.95.402-1.813.775-3.599 1.148-5.413a3.3 3.3 0 01.26-.749c.028-.115.172-.2.286-.2.058 0 .173.143.202.23.086.518.229 1.007.229 1.497.029 1.44 0 2.908 0 4.347 0 .202.029.433.058.634.057.346.258.547.603.547.718 0 1.408.029 2.126 0 .488-.029.689-.23.746-.72.029-.23.03-.49.03-.72v-17.91c0-.288.028-.576 0-.864-.03-.576-.23-.778-.805-.778h-3.16zm13.7-.086c-.86 0-1.234.432-1.12 1.296.546 3.57 1.063 7.17 1.61 10.74.085.72-.03.893-.748.922h-.345c-.775 0-1.522-.029-2.297 0-1.063.029-2.241.605-2.414 2.103-.114.892-.315 1.755-.459 2.648a73.241 73.241 0 00-.402 2.65c-.057.46.115.633.574.633h2.413c.345 0 .574-.201.66-.547.058-.259.087-.547.144-.806l.432-2.505c.086-.461.373-.75.861-.779.345 0 .69-.028 1.034-.028.66 0 1.006.26 1.178.922.115.403.172.864.23 1.296.086.604.115 1.18.23 1.756.086.49.287.662.775.72.316.057.661.028.977.057.287-.029.546 0 .89 0 1.092-.086 1.264-.288 1.091-1.411-.316-2.044-.66-4.06-1.005-6.075-.603-3.629-1.235-7.257-1.838-10.885-.144-.691-.288-1.412-.431-2.103-.086-.316-.287-.518-.632-.546-.488-.03-.948-.058-1.407-.058zm-31.28.316c-1.09-.288-2.183-.317-3.274-.288-.488.03-.775.317-.775.807v1.785c0 .576.114.75.688.864.488.115 1.006.144 1.523.201 1.062.116 1.609.692 1.61 1.728v2.506c-.001 1.238-.864 2.044-2.099 2.044-.373 0-.746.03-1.09.144-.431.115-.604.432-.604.893 0 .49.029.95 0 1.44 0 .374.172.633.488.72.316.086.661.144.977.144.43.028.718.173.861.576.058.172.116.374.173.547.287 1.151.546 2.332.833 3.484.172.777.345 1.555.546 2.332.086.403.287.807.775.807.862.029 1.753 0 2.643-.03.316-.028.46-.23.43-.546a5.838 5.838 0 00-.171-.979c-.546-2.073-1.092-4.176-1.638-6.249-.201-.749-.115-1.411.402-2.045.488-.576.776-1.267.776-2.044V77.87c.029-.777.028-1.526.028-2.246-.057-2.073-1.09-3.37-3.101-3.888zm48.687-.431c-.488.028-.632.23-.69.72-.028.23-.028.489-.028.72 0 2.418 0 4.808-.029 7.227 0 .316-.057.662-.144.98-.028.143-.2.315-.315.316-.115 0-.317-.144-.374-.26-.115-.2-.172-.431-.23-.661-.832-2.765-1.665-5.558-2.498-8.323-.173-.518-.402-.69-.948-.691h-1.982c-1.235 0-1.35.116-1.35 1.354v18.43c0 .143 0 .316.028.489.087.575.317.806.92.834.459 0 .948.03 1.408 0 1.12-.028 1.234-.172 1.234-1.266v-6.911c0-.346.058-.72.087-1.066.029-.259.143-.518.43-.489.144.029.346.23.403.403.919 2.822 1.866 5.615 2.757 8.437.172.518.46.806.976.864.575.058 1.121.058 1.696.058 1.32 0 1.465-.144 1.465-1.497V72.484c0-.23-.03-.46-.058-.691-.029-.26-.173-.461-.46-.461-.775 0-1.522-.057-2.298-.028zm-1.264-6.422c-2.154-.576-4.309-.432-6.434.057-2.04.49-4.05 1.066-6.06 1.584-1.896.49-3.792.865-5.774.807-1.724-.029-3.39-.432-5.056-.864-1.694-.432-3.418-.749-5.17-.72-1.924.029-3.79.403-5.6 1.008-1.15.374-2.241.806-3.362 1.209 0 .029.03.058.03.087.057-.029.142-.03.2-.058 1.005-.259 1.982-.547 2.959-.777 2.642-.576 5.314-.778 7.985-.318 1.695.288 3.39.634 5.026 1.123 2.988.893 5.918.894 8.876-.114 1.695-.576 3.39-1.094 5.113-1.641 1.982-.605 3.993-1.123 6.061-1.066.977.029 1.953.201 3.044.317-.66-.23-1.263-.49-1.838-.634zm2.212-5.212c-1.81-.317-3.648-.288-5.458-.028-2.642.374-5.285.835-7.927 1.295-2.011.346-4.022.605-6.061.69a93.228 93.228 0 00-6.32.462 57.658 57.658 0 00-12.609 2.908c-1.321.46-2.585.95-3.878 1.411.011.022.015.04.018.052.568-.143 1.108-.313 1.677-.455 6.118-1.728 12.352-2.85 18.728-2.937 1.551-.028 3.131-.115 4.654-.403 2.728-.49 5.457-1.152 8.185-1.757 2.24-.49 4.51-.979 6.808-1.123.746-.029 1.523 0 2.27 0-.03-.086-.058-.115-.087-.115zm-1.465 2.852c-2.096-.432-4.223-.26-6.348.028-2.585.374-5.2.806-7.784 1.209-3.62.547-7.267.893-10.944.836h-.718c1.896.46 3.82.806 5.745.95 2.786.173 5.487-.086 8.158-.95a74.969 74.969 0 014.969-1.411c1.982-.49 4.021-.692 6.09-.49.976.114 1.924.288 2.9.432.002-.002.027-.03-.028-.03-.661-.2-1.35-.43-2.04-.574zM60.7 19.5c-.603.058-1.206.087-1.81.173-3.762.547-6.922 2.218-9.478 5.068-1.924 2.16-3.36 4.521-3.677 7.458-.287 2.793.145 5.414 1.638 7.804 1.379 2.188 3.332 3.714 5.6 4.866.604.288 1.208.547 1.84.835.028-.086.028-.115.028-.144-.144-1.295.114-2.563.43-3.801.431-1.613 1.064-3.11 2.356-4.233.373-.345.833-.662 1.235-.98 0 .03.03.059.058.088a.763.763 0 01-.144.173c-1.81 1.756-2.528 3.887-2.24 6.392.172 1.613.69 3.11 1.063 4.665.344 1.325.69 2.65.833 3.974.143 1.296.086 2.62.086 3.916v3.168c-.144.029-.23.058-.345.058-3.188.431-6.377 1.007-9.508 1.785-1.723.432-3.418.892-5.2 1.036-3.101.259-6.232.49-9.362.72a41.63 41.63 0 00-8.388 1.468c-.373.087-.747.23-1.12.346.603-.029 1.149-.115 1.723-.201a76.56 76.56 0 018.502-.835c2.413-.087 4.826-.058 7.21-.23a34.516 34.516 0 005.142-.72c3.16-.691 6.348-1.181 9.564-1.411 2.126-.173 4.28-.26 6.435-.433 3.533-.288 7.066-.806 10.542-1.64a81.253 81.253 0 019.45-1.7c.603-.058 1.206-.144 1.838-.23-.057-.058-.058-.086-.086-.086a.49.49 0 00-.201-.03 43.233 43.233 0 00-9.25.634c-3.073.576-6.175 1.123-9.306 1.21-1.55.028-3.102 0-4.681 0a1.531 1.531 0 01-.03-.347c-.028-1.44-.028-2.908-.028-4.347 0-2.534.948-4.636 3.045-6.105.804-.547 1.665-1.037 2.498-1.526 1.953-1.18 3.706-2.592 4.912-4.58 0-.028.029-.028.086-.057-.029.087-.028.173-.057.26-.603 1.814-1.609 3.369-3.045 4.636-.948.835-1.925 1.67-2.873 2.534-.172.144-.287.316-.43.49-.115.143-.23.317-.345.49.029.028.058.086.087.115.948-.404 1.924-.72 2.814-1.21 4.855-2.592 7.641-6.652 8.33-12.123.374-3.14-.201-6.134-1.695-8.927-2.355-4.406-6.032-7.113-10.943-8.092-.776-.144-1.58-.202-2.356-.288-.23 0-.488 0-.747-.086zm-14.562 7.17a.846.846 0 01-.373.057c-2.356.836-4.395 2.16-6.033 4.061-3.849 4.435-3.877 10.77-.546 15.003 1.982 2.505 4.367 4.348 7.498 5.097.46.115.947.201 1.465.288-.144-2.419-1.264-4.234-3.074-5.702 1.925.892 3.705 1.958 4.71 3.916.316.575.604 1.238.633 1.872.086 2.044.028 4.117.028 6.162 0 .201-.057.317-.287.346l-4.05.69c-.718.116-1.436.173-2.211.26v-3.6h-8.56a.826.826 0 01-.518-.201c-.833-.893-1.636-1.814-2.47-2.707-.43-.49-.861-.98-1.32-1.469a709.792 709.792 0 01-4.281 4.752c-.862-.95-1.694-1.872-2.527-2.794-.632.691-1.264 1.382-1.867 2.073a.83.83 0 00-.202.519V59.9c0 .288-.086.374-.374.432-1.637.346-3.303.663-4.94 1.037-.632.144-1.235.403-1.838.605.345.028.632 0 .919-.058 3.504-.518 6.98-.864 10.513-.893 3.13-.028 6.262 0 9.393.116 4.395.172 8.703-.23 12.983-1.296 1.81-.432 3.59-.807 5.4-1.18.69-.145 1.436-.203 2.183-.289v-.432c0-2.102 0-4.233-.029-6.335 0-.49-.143-1.008-.344-1.468-.546-1.152-1.494-1.987-2.442-2.793-1.867-1.584-3.992-2.908-5.63-4.809.345.547.719 1.094 1.092 1.612.603.835 1.264 1.642 1.867 2.505.402.576.631 1.21.689 1.93-5.084-3.139-10.599-11.548-5.457-21.914zM25.943 56.733V59.9c-.66.058-1.292.145-1.981.203v-3.37h1.981zm4.711.748v1.239H29.42v-1.24h1.235zm1.983-.028v1.267h-1.092c-.058 0-.172-.115-.172-.173v-1.094h1.264zm-1.983-1.987v1.267H29.42v-1.267h1.235zm1.983 0v1.267H31.4v-1.267h1.236zm-1.293-6.997c-.144.029-.345.086-.43.2a30.435 30.435 0 00-1.581 1.729c-.172.2-.344.26-.602.26a108.908 108.908 0 00-4.338 0c-.173 0-.402.114-.517.23-.546.547-1.035 1.123-1.552 1.699-.517.604-1.063 1.209-1.608 1.813.603.087 1.034.058 1.436-.46.632-.807 1.35-1.527 2.069-2.304.861.921 1.665 1.843 2.47 2.764l4.308-4.75c.057.086.086.143.144.2 1.32 1.44 2.613 2.88 3.906 4.32.143.173.316.26.575.26h9.45c-.086-.115-.115-.174-.143-.203l-5.085-5.615c-.086-.086-.258-.143-.402-.143h-8.1zm6.893-1.785c-.718-4.406-5.572-6.71-9.42-4.464-2.586 1.497-3.764 4.723-2.758 7.545.086.288.23.403.546.403.718-.029 1.436 0 2.154-.03.143 0 .344-.057.43-.172a44.177 44.177 0 001.58-1.7c.173-.2.316-.258.575-.258h6.98c-.029-.49-.03-.893-.087-1.324zm30.477-10.77c-.058 1.497-.23 2.994-.661 4.463-.603 1.958-1.724 3.513-3.418 4.665-.46.288-.92.605-1.38.893-1.004.604-2.01 1.209-2.785 2.188-1.178-2.735-2.01-5.471-1.264-8.38.23.922.402 1.901.718 2.91.23.806.69 1.525 1.207 2.216.172.23.316.26.574.115 3.677-1.986 5.803-5.125 6.722-9.128.086-.374.143-.778.287-1.152v1.21z" fill="#676767"/></svg>