<svg width="200" height="242" fill="none" xmlns="http://www.w3.org/2000/svg"><path d="M200 242H0V0h200v242zm-64.411-49c-2.183-1.267-4.482-1.382-6.779-.576-1.838.633-2.815 1.958-2.815 3.973 0 1.152-.057 2.305 0 3.457.058 1.67.862 2.879 2.356 3.512.631.288 1.206.461 1.837.634.92 0 1.839 0 2.643-.115.23-.058.402-.116.632-.173 2.585-.576 3.792-2.074 3.792-4.723v-1.209c0-1.036 0-1.037-1.034-1.037h-2.528c-2.125.058-1.896-.403-1.896 2.131v.058c.172.172.345.403.575.518.172.115.402.058.574.058 0 .864-.402 1.21-1.263 1.21-.862.057-1.379-.346-1.437-1.153v-2.937c0-.576.058-1.094.69-1.324.631-.173 1.149-.115 1.666.345.229.231.517.404.804.404h3.275c.516 0 .631-.231.574-.692-.115-1.094-.747-1.843-1.666-2.361zm9.651-.807c-.632 0-.804.231-.804.865v10.02c0 .634.172.864.804.864h7.765c1.055-.01.967-.137.967-1.497-.058-1.958.287-1.785-1.838-1.785h-3.735v-1.037h3.677c1.379 0 1.379 0 1.379-1.382 0-1.9.172-1.671-1.608-1.671h-3.448v-1.093c.23-.058.46-.058.805 0h3.849c.574 0 .862-.174.804-.807a8.176 8.176 0 010-1.67c0-.576-.23-.807-.804-.807h-7.813zm-77.21 0c-.861.058-1.78.058-2.7 0-.632 0-.804.231-.804.865v5.01c0 1.67.058 3.283 0 4.953-.057.691.23.921.862.864.861-.058 1.78 0 2.7 0 .46 0 .69-.231.69-.692v-10.308c0-.518-.23-.692-.748-.692zm24.818 0c-.46 0-.69.174-.69.634v10.424c0 .461.23.634.632.634h8.043c.46 0 .632-.231.632-.634 0-.691-.058-1.325 0-2.016 0-.575-.23-.805-.804-.805h-4.308c0-.346-.001-.577.056-.865v-6.623c0-.518-.172-.749-.746-.749h-2.815zm19.072-.114c-.517-.057-.804.172-.977.691-1.149 3.455-2.355 6.854-3.561 10.251-.23.576.001.749.517.749.747 0 1.552-.058 2.298 0 .747.057 1.207-.173 1.322-.921.057-.461.344-.576.803-.577.747.058 1.551.058 2.298 0 .575-.057.862.116.977.692.115.691.517.921 1.207.863.746-.057 1.493 0 2.24 0 .862 0 .919-.115.632-.921-.977-2.822-1.953-5.702-2.988-8.524-.976-2.591-.287-2.131-3.102-2.189-.574 0-1.092.001-1.666-.114zm-64.858.114c-.517 0-.69.174-.517.692.977 3.398 2.01 6.853 2.987 10.251.115.46.402.691.92.691h3.504c.46 0 .804-.173.919-.634 1.034-3.397 2.01-6.853 3.045-10.308.172-.461 0-.692-.518-.692h-2.24c-1.206 0-1.207.001-1.494 1.153-.402 1.785-.862 3.513-1.321 5.299a.44.44 0 01-.23-.058c-.057-.288-.172-.519-.23-.807a570.51 570.51 0 01-1.206-4.78c-.115-.576-.402-.807-.977-.807h-2.642zm32.573-.057c-.862.057-1.781 0-2.7 0-.46 0-.69.173-.69.691v10.366c0 .461.173.634.632.634h7.985c.46 0 .632-.173.632-.634 0-.575-.057-1.209 0-1.842.058-.691-.23-.921-.919-.921-1.378.057-2.7 0-4.136 0-.057-.231-.057-.346 0-.519v-6.969c0-.575-.23-.806-.804-.806zm34.009 4.09c.287.921.575 1.842.862 2.821h-1.897c.288-.921.575-1.843.863-2.821h.172zm-77.325-53.273c-1.149-.115-2.356-.173-3.505-.057-2.067.115-2.24.345-2.24 2.418a2446.33 2446.33 0 000 29.026c0 1.67.288 3.34.747 4.895.805 2.649 2.643 4.493 5.17 5.472 3.907 1.497 7.756 1.554 11.146-1.44 2.297-2.074 3.676-4.607 3.676-7.775v-15.031c0-5.01 0-10.021-.115-14.974 0-.403 0-.749-.057-1.152-.115-1.037-.403-1.324-1.38-1.382-.976-.057-2.01-.057-2.987-.057-2.355 0-2.584.23-2.584 2.591v26.549c0 .691.057 1.383-.058 2.017-.115.806-.287 1.67-.574 2.419-.517 1.266-1.551 1.9-2.93 1.9-1.321-.058-2.24-.922-2.585-2.131-.287-.979-.402-2.016-.402-3.053v-26.895c0-.691 0-1.325-.058-2.016-.057-.863-.402-1.266-1.264-1.324zm65.375.058c-1.378 0-1.78.403-2.01 1.727-.287 1.555-.517 3.053-.804 4.55-.977 5.298-2.01 10.597-2.987 15.896-.115.518-.288 1.093-.92 1.151-.631.058-.747-.518-.862-.979a304.49 304.49 0 01-1.666-7.717c-.919-4.377-1.78-8.812-2.642-13.189-.23-1.094-.632-1.439-1.724-1.439-2.125 0-4.194.057-6.262 0-1.263 0-1.953-.058-2.01 2.015v18.89c0 6.22 0 12.498.057 18.833 0 .403.058.806.115 1.209.173.806.517 1.152 1.322 1.152 1.321 0 2.642.058 3.964 0 1.091 0 1.55-.519 1.666-1.613.057-.288.057-.633.057-.978v-10.655c0-.691.115-1.44.23-2.131 0-.23.287-.518.46-.518.172 0 .517.23.574.403.287.634.517 1.267.69 1.901.976 4.031 1.895 8.12 2.872 12.209.23.978.574 1.325 1.608 1.382.862 0 1.724.058 2.586 0 1.55-.057 1.895-.403 2.24-1.9.804-3.628 1.551-7.2 2.298-10.828a6.62 6.62 0 01.516-1.497c.058-.231.346-.404.576-.404.115.001.344.289.401.461.172 1.037.46 2.016.46 2.996.057 2.879 0 5.816 0 8.696 0 .403.058.863.115 1.266.115.691.517 1.095 1.206 1.095 1.436 0 2.815.058 4.251 0 .977-.057 1.38-.461 1.494-1.44.058-.461.057-.979.057-1.44v-35.822c0-.576.058-1.152 0-1.728-.057-1.151-.459-1.554-1.608-1.554h-6.32zm27.404-.173c-1.724 0-2.471.864-2.242 2.592 1.092 7.141 2.127 14.34 3.218 21.481.173 1.44-.058 1.785-1.494 1.843h-.689c-1.551 0-3.045-.058-4.596 0-2.126.058-4.481 1.209-4.825 4.204-.23 1.785-.633 3.513-.92 5.299a147.134 147.134 0 00-.804 5.298c-.115.921.23 1.267 1.149 1.267h4.826c.689 0 1.149-.403 1.321-1.094.115-.519.172-1.095.287-1.613l.861-5.011c.173-.921.748-1.497 1.724-1.554.689 0 1.379-.058 2.068-.058 1.322 0 2.011.518 2.356 1.843.23.806.344 1.728.459 2.592.172 1.209.23 2.361.46 3.512.172.979.574 1.326 1.551 1.441.631.115 1.321.058 1.953.115.574-.057 1.092 0 1.781 0 2.183-.173 2.528-.576 2.184-2.822-.632-4.089-1.322-8.121-2.011-12.152-1.207-7.257-2.471-14.514-3.677-21.77-.287-1.382-.575-2.822-.862-4.204-.173-.633-.575-1.036-1.264-1.094-.976-.057-1.895-.115-2.814-.115zm-62.56.634c-2.184-.576-4.368-.634-6.55-.576-.977.057-1.551.633-1.551 1.612v3.571c0 1.152.23 1.497 1.378 1.728.977.23 2.011.288 3.045.403 2.126.23 3.217 1.382 3.217 3.455v5.011c0 2.476-1.723 4.089-4.193 4.089-.747 0-1.494.057-2.184.288-.861.23-1.206.864-1.206 1.785 0 .979.057 1.9 0 2.879 0 .748.345 1.267.977 1.44.632.173 1.32.288 1.953.288.861.058 1.436.345 1.724 1.152.114.345.23.749.344 1.094.575 2.304 1.092 4.666 1.666 6.969.345 1.555.689 3.11 1.091 4.664.172.807.575 1.614 1.552 1.614 1.723.057 3.504-.001 5.285-.058.632-.058.919-.461.861-1.095a11.682 11.682 0 00-.344-1.958c-1.092-4.146-2.183-8.35-3.275-12.497-.402-1.497-.23-2.822.805-4.089.976-1.152 1.55-2.534 1.55-4.089v-5.414c.058-1.555.058-3.052.058-4.492-.115-4.146-2.183-6.738-6.204-7.774zm101.968-.807c-1.551 0-3.045-.115-4.596-.058-.976.058-1.263.461-1.378 1.44-.057.461-.057.98-.057 1.44 0 4.838-.001 9.618-.058 14.455 0 .634-.115 1.325-.287 1.958-.058.288-.402.634-.632.634-.23 0-.632-.288-.747-.518-.23-.403-.345-.864-.46-1.325-1.666-5.528-3.332-11.115-4.998-16.644-.345-1.036-.804-1.382-1.896-1.382h-3.963c-2.471 0-2.701.231-2.701 2.707v36.858c0 .288.001.634.058.979.172 1.152.632 1.613 1.839 1.671.919 0 1.895.057 2.814 0 2.241-.058 2.471-.346 2.471-2.534v-13.823c0-.691.114-1.439.172-2.13.057-.519.288-1.038.862-.98.287.058.689.461.804.807 1.838 5.644 3.734 11.231 5.515 16.875.344 1.036.919 1.612 1.953 1.727 1.149.115 2.241.116 3.389.116 2.643 0 2.93-.289 2.93-2.996v-36.973c0-.461-.057-.922-.114-1.383-.058-.518-.346-.921-.92-.921zm-7.123-12.9c-4.309-1.152-8.617-.864-12.868.115-4.079.979-8.1 2.13-12.121 3.167-3.792.979-7.584 1.728-11.548 1.613-3.447-.057-6.779-.865-10.111-1.728-3.389-.864-6.836-1.497-10.34-1.44-3.849.058-7.584.806-11.203 2.016-2.297.749-4.48 1.612-6.721 2.419 0 .057.057.115.057.173.115-.058.288-.058.403-.116 2.01-.518 3.963-1.094 5.917-1.554 5.285-1.152 10.628-1.556 15.97-.634 3.39.576 6.779 1.267 10.053 2.246 5.975 1.785 11.835 1.785 17.752-.23 3.389-1.152 6.779-2.188 10.226-3.283 3.963-1.209 7.985-2.246 12.121-2.131 1.953.058 3.907.403 6.09.633-1.322-.46-2.528-.978-3.677-1.266zm4.424-10.425c-3.619-.634-7.296-.575-10.915-.057-5.285.749-10.571 1.67-15.856 2.591-4.021.691-8.043 1.21-12.122 1.383-4.194.173-8.445.46-12.639.921-8.617.979-17.004 2.938-25.218 5.817-2.643.922-5.171 1.9-7.756 2.821a.458.458 0 01.038.105c1.135-.286 2.215-.626 3.351-.91 12.237-3.456 24.703-5.702 37.456-5.875 3.102-.058 6.262-.23 9.306-.806 5.458-.979 10.916-2.304 16.373-3.514 4.481-.979 9.02-1.958 13.615-2.246 1.494-.057 3.045 0 4.539 0-.058-.172-.115-.23-.172-.23zm-2.93 5.702c-4.194-.864-8.445-.518-12.696.058-5.171.748-10.398 1.612-15.569 2.419-7.238 1.094-14.534 1.785-21.887 1.669h-1.437c3.792.922 7.641 1.613 11.49 1.901 5.573.345 10.972-.173 16.315-1.901 3.274-1.036 6.606-2.016 9.938-2.822 3.964-.979 8.044-1.381 12.18-.978 1.953.23 3.849.575 5.802.863.003-.003.053-.057-.058-.057-1.321-.403-2.699-.864-4.078-1.152zM121.399 39c-1.206.115-2.412.173-3.619.346-7.525 1.094-13.845 4.434-18.958 10.135-3.849 4.32-6.721 9.043-7.353 14.917-.575 5.586.287 10.827 3.274 15.607 2.758 4.377 6.665 7.43 11.203 9.733 1.206.576 2.412 1.094 3.676 1.67.058-.172.058-.23.058-.288-.287-2.591.23-5.125.862-7.601.862-3.225 2.125-6.22 4.71-8.466.747-.691 1.666-1.325 2.471-1.958 0 .057.058.114.115.172-.058.115-.173.23-.288.345-3.619 3.513-5.055 7.775-4.481 12.785.345 3.226 1.379 6.22 2.126 9.33.69 2.65 1.379 5.3 1.666 7.949.288 2.591.172 5.24.172 7.832v6.335c-.287.057-.459.115-.689.115-6.377.864-12.753 2.016-19.015 3.571-3.447.864-6.837 1.786-10.398 2.074-6.205.518-12.466.978-18.728 1.439a83.314 83.314 0 00-16.775 2.937c-.747.173-1.494.461-2.24.691 1.206-.058 2.298-.231 3.447-.403 5.63-.864 11.317-1.44 17.004-1.67 4.825-.173 9.651-.116 14.42-.461 3.446-.231 6.894-.691 10.283-1.44 6.319-1.382 12.696-2.361 19.13-2.822 4.251-.346 8.559-.518 12.868-.863 7.066-.576 14.132-1.613 21.083-3.283 6.262-1.498 12.524-2.649 18.9-3.398 1.207-.115 2.413-.288 3.677-.461-.115-.115-.115-.173-.173-.173-.115-.057-.286-.057-.401-.057-6.204-.231-12.409.173-18.498 1.267-6.147 1.152-12.352 2.245-18.614 2.418-3.102.058-6.204 0-9.364 0-.057-.287-.057-.46-.057-.69-.058-2.88-.058-5.817-.058-8.696 0-5.069 1.896-9.273 6.09-12.21 1.608-1.095 3.332-2.073 4.998-3.052 3.906-2.361 7.41-5.184 9.823-9.157 0-.058.058-.058.173-.116-.057.173-.058.346-.115.519-1.207 3.628-3.217 6.737-6.089 9.271-1.896 1.67-3.85 3.341-5.745 5.069-.345.288-.574.634-.862.98a14.71 14.71 0 00-.689.978c.057.057.114.173.172.23 1.896-.806 3.849-1.44 5.63-2.419 9.708-5.183 15.281-13.303 16.66-24.246.747-6.277-.403-12.267-3.39-17.853-4.711-8.812-12.064-14.225-21.887-16.183-1.552-.288-3.16-.403-4.711-.576-.46 0-.977 0-1.494-.173zM92.273 53.34c-.287.116-.46.115-.747.115-4.71 1.67-8.79 4.32-12.064 8.121-7.698 8.87-7.755 21.54-1.09 30.005 3.963 5.01 8.731 8.696 14.993 10.193.92.231 1.896.404 2.93.577-.287-4.838-2.528-8.467-6.148-11.404 3.85 1.786 7.412 3.917 9.422 7.833.632 1.152 1.207 2.477 1.264 3.743.172 4.089.058 8.237.058 12.326 0 .402-.116.632-.575.69l-8.1 1.383c-1.436.23-2.873.345-4.424.517v-7.198h-17.12c-.344 0-.804-.173-1.033-.403-1.666-1.785-3.275-3.629-4.94-5.414a121.933 121.933 0 00-2.643-2.937 1407.095 1407.095 0 01-8.56 9.502c-1.723-1.9-3.39-3.743-5.056-5.586a242.947 242.947 0 00-3.734 4.147c-.23.23-.401.691-.401 1.036v9.215c0 .576-.173.749-.747.864-3.275.691-6.607 1.325-9.881 2.073-1.264.288-2.47.806-3.677 1.209.69.058 1.264 0 1.838-.115 7.008-1.037 13.96-1.728 21.026-1.785 6.262-.058 12.524 0 18.785.23 8.79.346 17.407-.461 25.967-2.591 3.619-.864 7.181-1.613 10.8-2.362 1.379-.288 2.873-.402 4.366-.575v-.864c0-4.204 0-8.466-.057-12.67 0-.979-.288-2.016-.69-2.938-1.091-2.303-2.987-3.973-4.883-5.586-3.734-3.167-7.985-5.817-11.26-9.618a63.249 63.249 0 002.183 3.226c1.206 1.67 2.528 3.282 3.735 5.01a7.637 7.637 0 011.378 3.859C93.02 90.89 81.99 74.074 92.273 53.341zm-40.385 60.126v6.335c-1.322.115-2.585.288-3.964.403v-6.738h3.964zm9.42 1.498v2.475h-2.47v-2.475h2.47zm3.964-.058v2.533H63.09c-.115 0-.344-.229-.345-.344v-2.189h2.527zm-3.963-3.974v2.534h-2.47v-2.534h2.47zm3.963 0v2.534h-2.47v-2.534h2.47zm-2.585-13.995c-.287.058-.688.174-.86.404a60.798 60.798 0 00-3.161 3.455c-.345.403-.69.518-1.206.518a220.057 220.057 0 00-8.675 0c-.344.001-.804.23-1.034.46-1.091 1.095-2.068 2.247-3.102 3.399-1.034 1.209-2.126 2.418-3.217 3.628 1.206.173 2.068.116 2.873-.921 1.264-1.613 2.7-3.053 4.135-4.608 1.724 1.843 3.332 3.686 4.94 5.529l8.618-9.502c.115.172.173.287.287.402 2.643 2.88 5.228 5.76 7.814 8.64.287.345.631.517 1.148.517h18.9c-.172-.23-.23-.345-.287-.403l-10.168-11.23c-.172-.172-.517-.287-.804-.287h-16.2zm13.788-3.57c-1.437-8.812-11.145-13.42-18.843-8.928-5.17 2.995-7.526 9.446-5.515 15.09.172.576.46.806 1.092.806 1.436-.058 2.872 0 4.309-.058.287 0 .689-.115.86-.345 1.092-1.095 2.127-2.246 3.161-3.398.345-.403.632-.518 1.148-.518h13.96c-.057-.98-.058-1.786-.172-2.65zm60.952-21.54c-.115 2.995-.46 5.99-1.322 8.927-1.206 3.916-3.446 7.026-6.835 9.33-.92.576-1.839 1.21-2.758 1.785-2.011 1.21-4.022 2.42-5.573 4.377-2.355-5.471-4.02-10.942-2.527-16.759.46 1.843.804 3.801 1.436 5.817.459 1.612 1.379 3.052 2.413 4.434.344.461.632.519 1.149.23 7.353-3.973 11.604-10.25 13.443-18.256.172-.749.287-1.555.574-2.304v2.42z" fill="#5C8D52"/></svg>