<svg width="40" height="40" fill="none" xmlns="http://www.w3.org/2000/svg"><path fill="url(#paint0_linear_114_143)" d="M0 0h40v40H0z"/><path fill-rule="evenodd" clip-rule="evenodd" d="M20.215 29.943c-1.963 0-2.875-.288-4.46-1.439-1.003 1.295-4.18 2.307-4.318.576 0-1.3-.286-2.398-.61-3.598-.388-1.477-.827-3.122-.827-5.506C10 14.283 14.651 10 20.162 10 25.678 10 30 14.494 30 20.029c.018 5.45-4.36 9.885-9.785 9.914zm.081-15.022c-2.684-.14-4.775 1.727-5.239 4.652-.382 2.422.296 5.372.874 5.526.277.067.974-.5 1.409-.936a4.953 4.953 0 002.426.869c2.78.134 5.157-1.992 5.344-4.782.108-2.796-2.033-5.164-4.814-5.324v-.005z" fill="#fff"/><defs><linearGradient id="paint0_linear_114_143" x1="0" y1="40" x2="40" y2="0" gradientUnits="userSpaceOnUse"><stop stop-color="#46BEFD"/><stop offset=".5" stop-color="#4047EA"/><stop offset="1" stop-color="#8C4EE7"/></linearGradient></defs></svg>