<svg width="204" height="157" fill="none" xmlns="http://www.w3.org/2000/svg"><g clip-path="url(#clip0_114_64)" stroke="#fff" stroke-opacity=".2" stroke-width="2" stroke-miterlimit="10" stroke-linecap="round" stroke-linejoin="round"><path d="M167.838-4.472c-14.795 30.27-36.747 61.394-68.568 79.387-5.04 2.85-10.511 5.379-19.665 8.627"/><path d="M238.155 13.511c4.35 7.117 8.549 15.419 12.389 25.26 19.239 49.308-23.246 97.124-39.913 113.371-1.836 1.79-4.9.308-4.632-2.251 1.548-14.738-4.676-37.425-36.332-97.873-20.624-39.38 16.954-100.104 16.954-100.104 2.062 16.897 21.6 22.983 41.235 47.039"/><path d="M207.504-116.82c-12.075 26.735-24.606 64.807-23.589 106.26 1.345 54.814 42.822 86.954 35.633 122.899M120.099-39.237c17.722 2.651 28.576 8.454 38.344 2.774 0 0-20.349 53.203-55.13 58.882C51.995 30.8 34 37.495 25.069 45.162c-1.914 1.643-4.822.04-4.486-2.47 2.613-19.555 12.972-67.41 52.306-78.441 11.216-3.146 20.887-4.422 29.333-4.625"/><path d="M198.572-94.743S185.749-55.5 136.027-16.729C101.718 10.025 60.533-2.449 41.265 19.4m70.259 70.641c-28.108 17.616-67.202 10.431-85.957 5.382-2.7-.727-2.704-4.555-.015-5.32 20.175-5.743 27.733-21.351 57.166-34.375 38.322-16.959 59.603-18.784 59.603-18.784-2.707 18.37-8.921 31.773-17.223 41.433"/></g><defs><clipPath id="clip0_114_64"><path fill="#fff" transform="matrix(1 0 0 -1 0 157)" d="M0 0h204v157H0z"/></clipPath></defs></svg>