<svg width="31" height="31" fill="none" xmlns="http://www.w3.org/2000/svg"><path d="M26.916 8.133h-8.825l5.419 6.459H31v-1.348l-4.084-5.11zm-22.832 0L0 13.244v1.348h7.49l5.419-6.459H4.084z" fill="#5C8D52"/><path d="M29.325 29.184V16.408h-6.662l-6.255-7.454V5.046h5.245V0h-7.061v8.954l-6.255 7.454H1.675v12.776H0V31h31v-1.816h-1.675zM4.864 19.375H6.68v2.583H4.864v-2.583zm1.863 7.75H4.91v-2.583h1.816v2.583zm8.773-14.47a2.849 2.849 0 012.846 2.845 2.849 2.849 0 01-2.846 2.846 2.849 2.849 0 01-2.846-2.846 2.849 2.849 0 012.846-2.846zm4.783 16.529h-1.816v-6.317h-2.059v6.317h-1.816v-6.317h-2.059v6.317h-1.816V21.05h9.566v8.134zm5.806-2.059h-1.816v-2.583h1.817v2.583zm.047-5.167H24.32v-2.583h1.816v2.583z" fill="#5C8D52"/><path d="M15.5 14.47a1.03 1.03 0 000 2.06 1.03 1.03 0 000-2.06z" fill="#5C8D52"/></svg>