<svg width="26" height="35" fill="none" xmlns="http://www.w3.org/2000/svg"><path d="M12.613 0a.765.765 0 00-.212.023c-2.065.527-3.536 2.398-3.538 4.53 0 2.175 1.512 4.004 3.546 4.527v1.151c-1.308 2.02-4.24 3.37-6.983 5.072-1.4.869-2.749 1.847-3.76 3.126C.656 19.708 0 21.304 0 23.29c0 2.641.766 4.554 1.616 5.852H24.38c.85-1.298 1.62-3.21 1.62-5.852 0-1.987-.66-3.583-1.671-4.862-1.01-1.28-2.355-2.257-3.755-3.126-2.74-1.7-5.673-3.049-6.983-5.065V9.234a4.718 4.718 0 004.554-3.464c.297-.573-.42-1.133-.912-.711a2.977 2.977 0 01-1.87.666 2.934 2.934 0 01-2.954-2.93c-.018-.696.282-1.358.667-1.851.335-.43.015-.926-.463-.944zM1.77 30.314c-.972 0-1.77.797-1.77 1.76v2.338A.587.587 0 00.589 35h24.818a.595.595 0 00.549-.362.581.581 0 00.044-.226v-2.337c0-.964-.803-1.76-1.775-1.76H1.77z" fill="#5C8D52"/></svg>