<svg width="32" height="33" fill="none" xmlns="http://www.w3.org/2000/svg"><path fill-rule="evenodd" clip-rule="evenodd" d="M6.667 3.755C6.667 1.626 16 0 16 0s9.333 1.626 9.333 3.755c0 2.84-1.697 4.037-1.697 4.037H8.364S6.667 6.594 6.667 3.755zm10.666.37c0 .76-.597 1.375-1.333 1.375s-1.333-.616-1.333-1.375c0-.76.597-1.375 1.333-1.375s1.333.616 1.333 1.375zm5.613 7.131c1.236-.994 1.043-2.09 1.043-2.09H8.011s-.193 1.096 1.043 2.09a7.576 7.576 0 00-.165 1.577c0 4.05 3.184 7.334 7.111 7.334 3.927 0 7.111-3.284 7.111-7.334 0-.54-.057-1.068-.165-1.577zM16 12.833c2.42 0 4.11-.287 5.29-.702.029.23.043.464.043.702 0 3.038-2.387 5.5-5.333 5.5-2.945 0-5.333-2.462-5.333-5.5 0-.238.014-.472.043-.702 1.18.415 2.87.702 5.29.702zM17.333 22c.491 0 .89.41.89.917v1.266a.92.92 0 01-.492.82l-.398.205.513 2.645 3.77-5.83c.257 0 .496.002.714.003 4.804 1.13 9.67 3.435 9.67 6.902V33H0v-4.072C0 25.46 5.079 23.13 9.882 22c-.016.004.164.007.494.009l3.808 5.89.483-2.69-.398-.206a.92.92 0 01-.491-.82v-1.266c0-.507.398-.917.889-.917h2.666zm8.445 4.889s-1.185-.611-1.778-1.222c-.593.61-1.778 1.222-1.778 1.222s.62 2.444 1.778 2.444c1.157 0 1.778-2.444 1.778-2.444z" fill="#5C8D52"/></svg>