<svg width="32" height="30" fill="none" xmlns="http://www.w3.org/2000/svg"><path d="M28.024 20.897l-1.12-6.037c-.523-2.894-3.018-5-5.93-5h-3.798c.117-3.196-1.216-8.099-7.072-9.816a1.04 1.04 0 00-.939.173 1.084 1.084 0 00-.426.864v2.095L3.075 6.048a3.316 3.316 0 00-1.792 2.938c0 1.285.704 2.419 1.834 2.98L5.71 13.22l-1.28 7.818-.17-.065c-1.654-.605-3.478.27-4.075 1.944-.587 1.674.277 3.52 1.93 4.114l2.88 1.048A32.326 32.326 0 0016.004 30 32.31 32.31 0 0027 28.078l2.891-1.048c.8-.28 1.44-.874 1.803-1.652a3.231 3.231 0 00.117-2.462 3.171 3.171 0 00-3.787-2.02zm-16.181 1.911c.522-1.9 2.23-3.229 4.17-3.229.864 0 1.696.26 2.411.745a4.407 4.407 0 011.59 1.998l.34.864c-2.847.475-5.76.475-8.618.01l.107-.388zm17.92 1.652c-.117.249-.33.443-.587.54l-2.89 1.048c-6.603 2.386-13.974 2.386-20.566 0L2.83 25a1.058 1.058 0 01-.63-1.35 1.04 1.04 0 01.981-.712.97.97 0 01.352.064l2.89 1.037a28.332 28.332 0 0019.159 0l2.88-1.037a1.042 1.042 0 011.344.648c.096.26.085.551-.043.81z" fill="#5C8D52"/></svg>