<svg width="34" height="34" fill="none" xmlns="http://www.w3.org/2000/svg"><path d="M33.997 30.297l-.851-20.276c-.084-1.996-1.788-3.62-3.8-3.62h-2.758V4.198C26.588 1.883 24.692 0 22.362 0s-4.227 1.883-4.227 4.197v2.205h-2.757c-1.68 0-3.137.965-3.615 2.275h6.838c1.488 0 2.912.571 4.01 1.607a5.743 5.743 0 011.816 3.896l.806 16.01a5.455 5.455 0 01-1.27 3.81h6.457c.99 0 1.91-.387 2.588-1.09a3.513 3.513 0 00.989-2.612zM24.582 6.402h-4.44V4.197c0-1.216.995-2.205 2.22-2.205 1.224 0 2.22.99 2.22 2.205v2.205z" fill="#5C8D52"/><path d="M22.423 14.28c-.1-1.991-1.814-3.61-3.822-3.61H4.633c-2.007 0-3.722 1.619-3.822 3.61L.005 30.29c-.05.984.294 1.914.97 2.618A3.543 3.543 0 003.558 34h16.117c.992 0 1.91-.388 2.584-1.092a3.492 3.492 0 00.97-2.618l-.807-16.01zm-6.58 3.787c0 2.314-1.895 4.197-4.226 4.197-2.33 0-4.226-1.883-4.226-4.197v-3.2a1 1 0 011.003-.997 1 1 0 011.003.996v3.2c0 1.217.996 2.206 2.22 2.206 1.224 0 2.22-.99 2.22-2.205v-3.2a1 1 0 011.004-.997 1 1 0 011.003.996v3.2z" fill="#5C8D52"/></svg>