<svg width="34" height="34" fill="none" xmlns="http://www.w3.org/2000/svg"><path d="M17 0C7.627 0 0 7.627 0 17c0 9.373 7.627 17 17 17 9.373 0 17-7.627 17-17 0-9.373-7.627-17-17-17zm1.08 5.523l4.37-2.35a14.945 14.945 0 016.14 4.526l-1.041 4.807-3.335 1.634-6.134-4.47V5.524zM11.585 3.16l4.37 2.359V9.67l-6.13 4.469-3.351-1.636-1.041-4.837a14.924 14.924 0 016.151-4.507zM4.738 25.402a14.777 14.777 0 01-2.54-6.957l3.598-3.908 3.281 1.604 2.471 7.02-2.088 2.503-4.722-.262zm16.05 5.965a14.77 14.77 0 01-3.789.508c-1.585 0-3.111-.255-4.545-.716l-1.337-4.16 2.131-2.561h7.51l2.093 2.477-2.063 4.452zm3.72-5.776l-2.054-2.433 2.505-7.017 3.266-1.6 3.577 3.906a14.735 14.735 0 01-2.008 6.101l-5.285 1.043z" fill="#5C8D52"/></svg>