<svg width="794" height="1080" fill="none" xmlns="http://www.w3.org/2000/svg"><g clip-path="url(#clip0_26_75)"><path d="M533.362 932.964h201.686v-35.783m-201.686 35.783H403.241m130.121 0v-35.783M740.47 343.518l-5.422 93.687V466.5m5.422-122.982l20.819-2.602m-20.819 2.602l-141.831 1.333m141.831-1.333l8.621-68.747m8.295-66.144l16.698-25.808m-16.698 25.808l-158.747-77.789m158.747 77.789l-8.295 66.144M345.554 73.301l57.687 12.864m0 846.799v-35.783m0 35.783L40.639 1006.48M403.24 86.165l64.627 14.412M403.24 86.165V345.47m64.627-244.893l126.65 28.242 4.121 2.019m-130.771-30.261V345.47m0 551.711h65.494m-65.494 0H403.24m64.627 0V531.759m65.494 365.422h201.686m-201.686 0V837.5M403.24 897.181V715.663m331.807 181.518V837.5M533.362 715.663H403.241m130.121 0h201.686m-201.686 0v60.918m0-60.918v-61.048m-130.121 61.048V531.759m331.807 183.904v60.918m0-60.918v-61.048m-201.686-61.049h201.686m-201.686 0v-61.807m0 61.807v61.049m201.686-61.049v-61.807m0 61.807v61.049M533.362 531.759h201.686m-201.686 0h-65.494m65.494 0V466.5m201.686 65.259V466.5m0 65.259l22.771-1.301m-289.951 1.301h-64.627m64.627 0V345.47m-64.627 186.289V345.47m0 186.289h-59.855M533.362 345.47V115.182 345.47zm0 0h-65.494m65.494 0l65.277-.619m-65.277.619V466.5m-65.494-121.03h-64.627m195.398-.619V204.723m0-73.885v73.885m0 0l150.452 70.048M195.265 531.759h148.121m0 0V79.807M735.048 837.5H533.362m201.686 0v-60.919M533.362 837.5v-60.919m0 0h201.686m0-121.966H533.362M735.048 466.5H533.362" stroke="#84AD7C" stroke-width="3"/><path stroke="#A7C3A1" stroke-width="2.169" d="M540.518 540.651h11.711v16.916h-11.711zm15.615 0h11.711v16.916h-11.711zm15.614 0h11.711v16.916h-11.711zm15.615 0h11.711v16.916h-11.711zm15.614 0h11.711v16.916h-11.711zm15.614 0h11.711v16.916H618.59zm15.615 0h11.711v16.916h-11.711zm15.614 0h11.711v16.916h-11.711zm15.615 0h11.711v16.916h-11.711zm15.615 0h11.711v16.916h-11.711zm15.614 0h11.711v16.916h-11.711zm15.614 0h11.711v16.916h-11.711zm-171.759 29.494h11.711v16.916h-11.711zm15.615 0h11.711v16.916h-11.711zm15.614 0h11.711v16.916h-11.711zm15.615 0h11.711v16.916h-11.711zm15.614 0h11.711v16.916h-11.711zm15.614 0h11.711v16.916H618.59zm15.615 0h11.711v16.916h-11.711zm15.614 0h11.711v16.916h-11.711zm15.615 0h11.711v16.916h-11.711zm15.615 0h11.711v16.916h-11.711zm15.614 0h11.711v16.916h-11.711zm15.614 0h11.711v16.916h-11.711zm-171.759-94.554h11.711v16.916h-11.711zm15.615 0h11.711v16.916h-11.711zm15.614 0h11.711v16.916h-11.711zm15.615 0h11.711v16.916h-11.711zm15.614 0h11.711v16.916h-11.711zm15.614 0h11.711v16.916H618.59zm15.615 0h11.711v16.916h-11.711zm15.614 0h11.711v16.916h-11.711zm15.615 0h11.711v16.916h-11.711zm15.615 0h11.711v16.916h-11.711zm15.614 0h11.711v16.916h-11.711zm15.614 0h11.711v16.916h-11.711zm-171.759 29.493h11.711V522h-11.711zm15.615 0h11.711V522h-11.711zm15.614 0h11.711V522h-11.711zm15.615 0h11.711V522h-11.711zm15.614 0h11.711V522h-11.711zm15.614 0h11.711V522H618.59zm15.615 0h11.711V522h-11.711zm15.614 0h11.711V522h-11.711zm15.615 0h11.711V522h-11.711zm15.615 0h11.711V522h-11.711zm15.614 0h11.711V522h-11.711zm15.614 0h11.711V522h-11.711zM411.699 365.855v-11.711h16.916v11.711zm29.494 0v-11.711h16.916v11.711zm-29.494 15.614v-11.711h16.916v11.711zm29.494 0v-11.711h16.916v11.711zm-29.494 15.615v-11.711h16.916v11.711zm29.494 0v-11.711h16.916v11.711zm-29.494 15.614v-11.711h16.916v11.711zm29.494 0v-11.711h16.916v11.711zm-29.494 15.615v-11.711h16.916v11.711zm29.494 0v-11.711h16.916v11.711zm-29.494 15.614v-11.711h16.916v11.711zm29.494 0v-11.711h16.916v11.711zm-29.494 15.615v-11.711h16.916v11.711zm29.494 0v-11.711h16.916v11.711zm-29.494 15.614v-11.711h16.916v11.711zm29.494 0v-11.711h16.916v11.711zm-29.494 15.615V479.06h16.916v11.711zm29.494 0V479.06h16.916v11.711zm-29.494 15.614v-11.711h16.916v11.711zm29.494 0v-11.711h16.916v11.711zM411.699 522v-11.711h16.916V522zm29.494 0v-11.711h16.916V522zm-29.494 30.361V540.65h16.916v11.711zm29.494 0V540.65h16.916v11.711zm-29.494 15.615v-11.711h16.916v11.711zm29.494 0v-11.711h16.916v11.711zm-29.494 15.614v-11.711h16.916v11.711zm29.494 0v-11.711h16.916v11.711zm-29.494 15.615v-11.711h16.916v11.711zm29.494 0v-11.711h16.916v11.711zm-29.494 15.615v-11.711h16.916v11.711zm29.494 0v-11.711h16.916v11.711zm-29.494 15.614v-11.711h16.916v11.711zm29.494 0v-11.711h16.916v11.711zm-29.494 15.614v-11.711h16.916v11.711zm29.494 0v-11.711h16.916v11.711zm-29.494 15.615v-11.711h16.916v11.711zm29.494 0v-11.711h16.916v11.711zm-29.494 15.614v-11.711h16.916v11.711zm29.494 0v-11.711h16.916v11.711zm-29.494 15.615v-11.711h16.916v11.711zm29.494 0v-11.711h16.916v11.711zm-29.494 15.614v-11.711h16.916v11.711zm29.494 0v-11.711h16.916v11.711zm-29.494 26.025V722.82h16.916v11.711zm29.494 0V722.82h16.916v11.711zm-29.494 15.615v-11.711h16.916v11.711zm29.494 0v-11.711h16.916v11.711zm-29.494 15.613v-11.711h16.916v11.711zm29.494 0v-11.711h16.916v11.711zm-29.494 15.615v-11.711h16.916v11.711zm29.494 0v-11.711h16.916v11.711zm-29.494 15.615v-11.711h16.916v11.711zm29.494 0v-11.711h16.916v11.711zm-29.494 15.614v-11.711h16.916v11.711zm29.494 0v-11.711h16.916v11.711zm-29.494 15.614v-11.711h16.916v11.711zm29.494 0v-11.711h16.916v11.711zm-29.494 15.616v-11.711h16.916v11.711zm29.494 0v-11.711h16.916v11.711zm-29.494 15.614v-11.711h16.916v11.711zm29.494 0v-11.711h16.916v11.711zm-29.494 15.613v-11.711h16.916v11.711zm29.494 0v-11.711h16.916v11.711zm-29.494 15.615v-11.711h16.916v11.711zm29.494 0v-11.711h16.916v11.711zm-29.494-772.482v-11.711h16.916v11.711zm0 15.614v-11.711h16.916v11.711zm29.494 0v-11.711h16.916v11.711zm-29.494 15.615v-11.711h16.916v11.711zm29.494 0v-11.711h16.916v11.711zm-29.494 15.614v-11.711h16.916v11.711zm29.494 0v-11.711h16.916v11.711zm-29.494 15.615V168.94h16.916v11.711zm29.494 0V168.94h16.916v11.711zm-29.494 15.614v-11.711h16.916v11.711zm29.494 0v-11.711h16.916v11.711zm-29.494 15.615v-11.711h16.916v11.711zm29.494 0v-11.711h16.916v11.711zm-29.494 15.614v-11.711h16.916v11.711zm29.494 0v-11.711h16.916v11.711zm-29.494 15.615v-11.711h16.916v11.711zm29.494 0v-11.711h16.916v11.711zm-29.494 15.614v-11.711h16.916v11.711zm29.494 0v-11.711h16.916v11.711zm-29.494 15.614v-11.711h16.916v11.711zm29.494 0v-11.711h16.916v11.711zm-29.494 15.615v-11.711h16.916v11.711zm29.494 0v-11.711h16.916v11.711zm-29.494 15.614v-11.711h16.916v11.711zm29.494 0v-11.711h16.916v11.711zm-29.494 15.615V309.47h16.916v11.711zm29.494 0V309.47h16.916v11.711zm-29.494 15.614v-11.711h16.916v11.711zm29.494 0v-11.711h16.916v11.711z"/><path fill="#497540" d="M352.494 210.795v-13.88h13.88v13.88zm0 18.217v-13.88h13.88v13.88zm0 18.217v-13.88h13.88v13.88zm0 18.217v-13.88h13.88v13.88zm0 18.217v-13.88h13.88v13.88zm0 18.217V288h13.88v13.88zm0 18.216v-13.88h13.88v13.88zm0 18.217v-13.88h13.88v13.88zm0 18.217v-13.88h13.88v13.88zm0 18.217v-13.88h13.88v13.88zm0 18.217v-13.88h13.88v13.88zm0 18.217v-13.88h13.88v13.88zm0 18.216v-13.88h13.88v13.88zm0 18.217v-13.88h13.88v13.88zm0 18.217v-13.88h13.88v13.88zm0 18.217v-13.88h13.88v13.88zm0 18.217v-13.88h13.88v13.88zm0 18.217v-13.88h13.88v13.88zm0 36.434v-13.88h13.88v13.88zm0 18.216v-13.88h13.88v13.88zm0 18.218v-13.88h13.88v13.88zm0 18.216v-13.88h13.88v13.88zm0 18.218v-13.88h13.88v13.88zm0 18.216v-13.88h13.88V648zm0 18.217v-13.88h13.88v13.88zm0 18.216v-13.88h13.88v13.88zm0 18.217v-13.88h13.88v13.88zm0 18.218v-13.88h13.88v13.88zm0 18.217v-13.88h13.88v13.88zm0 18.216v-13.88h13.88v13.88zm0 18.217v-13.88h13.88v13.88zm0 18.217v-13.88h13.88v13.88zm0 18.217v-13.88h13.88v13.88zm0 18.217v-13.88h13.88v13.88zm0 18.217v-13.88h13.88v13.88zm0 18.217v-13.88h13.88v13.88zm0 18.216v-13.88h13.88v13.88zm0 18.218v-13.88h13.88v13.88zm0 18.216v-13.88h13.88v13.88z"/><path stroke="#A7C3A1" stroke-width="2.169" d="M477.193 133.807v-11.711h16.916v11.711zm0 15.615v-11.711h16.916v11.711zm29.494 0v-11.711h16.916v11.711zm-29.494 15.614v-11.711h16.916v11.711zm29.494 0v-11.711h16.916v11.711zm-29.494 15.615V168.94h16.916v11.711zm29.494 0V168.94h16.916v11.711zm-29.494 15.614v-11.711h16.916v11.711zm29.494 0v-11.711h16.916v11.711zm-29.494 15.615v-11.711h16.916v11.711zm29.494 0v-11.711h16.916v11.711zm-29.494 15.614v-11.711h16.916v11.711zm29.494 0v-11.711h16.916v11.711zm-29.494 15.615v-11.711h16.916v11.711zm29.494 0v-11.711h16.916v11.711zm-29.494 15.614v-11.711h16.916v11.711zm29.494 0v-11.711h16.916v11.711zm-29.494 15.614v-11.711h16.916v11.711zm29.494 0v-11.711h16.916v11.711zm-29.494 15.615v-11.711h16.916v11.711zm29.494 0v-11.711h16.916v11.711zm-29.494 15.614v-11.711h16.916v11.711zm29.494 0v-11.711h16.916v11.711zm-29.494 15.615V309.47h16.916v11.711zm29.494 0V309.47h16.916v11.711zm-29.494 15.614v-11.711h16.916v11.711zm29.494 0v-11.711h16.916v11.711zm36-187.373v-11.711h16.916v11.711zm0 15.614v-11.711h16.916v11.711zm29.494 0v-11.711h16.916v11.711zm-29.494 15.615V168.94h16.916v11.711zm29.494 0V168.94h16.916v11.711zm-29.494 15.614v-11.711h16.916v11.711zm29.494 0v-11.711h16.916v11.711zm-29.494 15.615v-11.711h16.916v11.711zm29.494 0v-11.711h16.916v11.711zm-29.494 15.614v-11.711h16.916v11.711zm29.494 0v-11.711h16.916v11.711zm-29.494 15.615v-11.711h16.916v11.711zm29.494 0v-11.711h16.916v11.711zm-29.494 15.614v-11.711h16.916v11.711zm29.494 0v-11.711h16.916v11.711zm-29.494 15.614v-11.711h16.916v11.711zm29.494 0v-11.711h16.916v11.711zm-29.494 15.615v-11.711h16.916v11.711zm29.494 0v-11.711h16.916v11.711zm-29.494 15.614v-11.711h16.916v11.711zm29.494 0v-11.711h16.916v11.711zm-29.494 15.615V309.47h16.916v11.711zm29.494 0V309.47h16.916v11.711zm-29.494 15.614v-11.711h16.916v11.711zm29.494 0v-11.711h16.916v11.711zm-94.988 29.06v-11.711h16.916v11.711zm29.494 0v-11.711h16.916v11.711zm-29.494 15.614v-11.711h16.916v11.711zm29.494 0v-11.711h16.916v11.711zm-29.494 15.615v-11.711h16.916v11.711zm29.494 0v-11.711h16.916v11.711zm-29.494 15.614v-11.711h16.916v11.711zm29.494 0v-11.711h16.916v11.711zm-29.494 15.615v-11.711h16.916v11.711zm29.494 0v-11.711h16.916v11.711zm-29.494 15.614v-11.711h16.916v11.711zm29.494 0v-11.711h16.916v11.711zm-29.494 15.615v-11.711h16.916v11.711zm29.494 0v-11.711h16.916v11.711zm-29.494 15.614v-11.711h16.916v11.711zm29.494 0v-11.711h16.916v11.711zm-29.494 15.615V479.06h16.916v11.711zm29.494 0V479.06h16.916v11.711zm-29.494 15.614v-11.711h16.916v11.711zm29.494 0v-11.711h16.916v11.711zM477.193 522v-11.711h16.916V522zm29.494 0v-11.711h16.916V522zm238.12 18.433h11.711v16.916h-11.711zm0 21.471h11.711v16.916h-11.711zm0 21.469h11.711v16.916h-11.711zm0 21.47h11.711v16.916h-11.711zm0 21.47h11.711v16.916h-11.711zm0 21.47h11.711v16.916h-11.711zm0 21.47h11.711v16.916h-11.711zm0 21.47h11.711v16.916h-11.711zm0 21.469h11.711v16.916h-11.711zm0 21.47h11.711v16.916h-11.711zm0 21.47h11.711v16.916h-11.711zm0 21.47h11.711v16.916h-11.711zm0 21.47h11.711v16.916h-11.711zm0 21.469h11.711v16.916h-11.711zm0 21.471h11.711v16.916h-11.711zm0 21.47h11.711v16.916h-11.711zm0 21.471h11.711v16.916h-11.711zm0 21.468h11.711v16.916h-11.711zM382.205 122.097h11.711v16.916h-11.711zm0 38.168h11.711v16.916h-11.711zm0 38.169h11.711v16.916h-11.711zm0 38.168h11.711v16.916h-11.711zm0 38.169h11.711v16.916h-11.711zm0 38.169h11.711v16.916h-11.711zm0 38.169h11.711v16.916h-11.711zm0 38.168h11.711v16.916h-11.711zm0 38.169h11.711v16.916h-11.711zm0 38.169h11.711v16.916h-11.711zm0 38.168h11.711v16.916h-11.711zm0 36.868h11.711v16.916h-11.711zm0 33.397h11.711v16.916h-11.711zm0 33.398h11.711v16.916h-11.711zm0 33.398h11.711v16.916h-11.711zm0 33.398h11.711v16.916h-11.711zm0 33.397h11.711v16.916h-11.711zm0 33.398h11.711v16.916h-11.711zm0 33.397h11.711v16.916h-11.711zm0 33.397h11.711v16.916h-11.711zm0 33.398h11.711v16.916h-11.711zm0 33.398h11.711v16.916h-11.711zm362.602-434.169h11.711v16.916h-11.711zm0 21.47h11.711v16.916h-11.711zm0 21.469h11.711v16.916h-11.711zm0 21.47h11.711v16.916h-11.711zm3.163-152.461l11.704.409-.59 16.905-11.704-.408zm-.75 21.457l11.704.409-.59 16.905-11.704-.408zm-.749 21.457l11.704.409-.59 16.905-11.704-.408zm-.75 21.456l11.704.409-.59 16.905-11.704-.408zm17.187-186.631l11.624 1.427-2.062 16.79-11.624-1.427zm-2.617 21.31l11.624 1.427-2.062 16.79-11.624-1.427zm-2.616 21.31l11.624 1.427-2.062 16.79-11.624-1.427zm-2.617 21.31l11.624 1.427-2.062 16.79-11.624-1.427zm-2.616 21.31l11.624 1.427-2.062 16.79-11.624-1.427zm-25.373-41.243l11.624 1.427-2.062 16.79-11.624-1.427zm-2.616 21.309l11.624 1.427-2.062 16.79-11.624-1.427zm-2.617 21.31l11.624 1.427-2.062 16.79-11.624-1.427zm-4.33 33.108l11.695.613-.885 16.893-11.695-.613zm-1.181 22.523l11.695.613-.885 16.893-11.695-.613zm-1.18 22.523l11.695.613-.885 16.893-11.695-.613zm-1.18 22.523l11.695.613-.885 16.893-11.695-.613zm-1.181 22.524l11.695.613-.885 16.893-11.695-.613zm-103.37-323.214l5.134-10.526 15.204 7.416-5.134 10.525zm19.296 9.411l5.134-10.526 15.204 7.416-5.134 10.525zm19.297 9.413l5.134-10.526 15.204 7.416-5.134 10.525zm19.297 9.411l5.134-10.526 15.204 7.416-5.134 10.525zm19.298 9.412l5.134-10.526 15.204 7.416-5.134 10.525zm19.297 9.412l5.134-10.526 15.204 7.416-5.134 10.525zm19.297 9.412l5.134-10.526 15.204 7.416-5.134 10.525zm19.297 9.412l5.134-10.526 15.204 7.416-5.134 10.525zm-133.344-19.039l5.134-10.526 15.204 7.416-5.134 10.525zm19.297 9.411l5.134-10.526 15.204 7.416-5.134 10.525zm19.298 9.412l5.134-10.526 15.204 7.416-5.134 10.525zm19.296 9.412l5.134-10.526 15.204 7.416-5.134 10.525zm19.298 9.411l5.134-10.526 15.204 7.416-5.134 10.525zm19.297 9.412l5.134-10.526 15.204 7.416-5.134 10.525zm19.297 9.412l5.134-10.526 15.204 7.416-5.134 10.525zm-120.121-25.676l5.134-10.526 15.204 7.416-5.134 10.525zm19.297 9.412l5.134-10.526 15.204 7.416-5.134 10.525zm19.297 9.412l5.134-10.526 15.204 7.416-5.134 10.525zm19.297 9.411l5.134-10.526 15.204 7.416-5.134 10.525zm19.297 9.412l5.134-10.526 15.204 7.416-5.134 10.525zm19.297 9.412l5.134-10.526 15.204 7.416-5.134 10.525zm19.297 9.412l5.134-10.526 15.204 7.416-5.134 10.525zm59.794-64.534l10.243 5.678-8.201 14.795-10.243-5.678zm-10.409 18.779l10.243 5.678-8.201 14.795-10.243-5.678zM477.193 552.361V540.65h16.916v11.711zm29.494 0V540.65h16.916v11.711zm-29.494 15.615v-11.711h16.916v11.711zm29.494 0v-11.711h16.916v11.711zm-29.494 15.614v-11.711h16.916v11.711zm29.494 0v-11.711h16.916v11.711zm-29.494 15.615v-11.711h16.916v11.711zm29.494 0v-11.711h16.916v11.711zm-29.494 15.615v-11.711h16.916v11.711zm29.494 0v-11.711h16.916v11.711zm-29.494 15.614v-11.711h16.916v11.711zm29.494 0v-11.711h16.916v11.711zm-29.494 15.614v-11.711h16.916v11.711zm29.494 0v-11.711h16.916v11.711zm-29.494 15.615v-11.711h16.916v11.711zm29.494 0v-11.711h16.916v11.711zm-29.494 15.614v-11.711h16.916v11.711zm29.494 0v-11.711h16.916v11.711zm-29.494 15.615v-11.711h16.916v11.711zm29.494 0v-11.711h16.916v11.711zm-29.494 15.614v-11.711h16.916v11.711zm29.494 0v-11.711h16.916v11.711zm-29.494 26.025V722.82h16.916v11.711zm29.494 0V722.82h16.916v11.711zm-29.494 15.615v-11.711h16.916v11.711zm29.494 0v-11.711h16.916v11.711zm-29.494 15.613v-11.711h16.916v11.711zm29.494 0v-11.711h16.916v11.711zm-29.494 15.615v-11.711h16.916v11.711zm29.494 0v-11.711h16.916v11.711zm-29.494 15.615v-11.711h16.916v11.711zm29.494 0v-11.711h16.916v11.711zm-29.494 15.614v-11.711h16.916v11.711zm29.494 0v-11.711h16.916v11.711zm-29.494 15.614v-11.711h16.916v11.711zm29.494 0v-11.711h16.916v11.711zm-29.494 15.616v-11.711h16.916v11.711zm29.494 0v-11.711h16.916v11.711zm-29.494 15.614v-11.711h16.916v11.711zm29.494 0v-11.711h16.916v11.711zm-29.494 15.613v-11.711h16.916v11.711zm29.494 0v-11.711h16.916v11.711zm-29.494 15.615v-11.711h16.916v11.711zm29.494 0v-11.711h16.916v11.711zm33.832-289.302h11.711v16.916h-11.711zm15.614 0h11.711v16.916h-11.711zm15.614 0h11.711v16.916h-11.711zm15.615 0h11.711v16.916h-11.711zm15.614 0h11.711v16.916h-11.711zm15.614 0h11.711v16.916H618.59zm15.615 0h11.711v16.916h-11.711zm15.614 0h11.711v16.916h-11.711zm15.615 0h11.711v16.916h-11.711zm15.615 0h11.711v16.916h-11.711zm15.614 0h11.711v16.916h-11.711zm15.614 0h11.711v16.916h-11.711zm-171.759 29.495h11.711v16.916h-11.711zm15.615 0h11.711v16.916h-11.711zm15.614 0h11.711v16.916h-11.711zm15.615 0h11.711v16.916h-11.711zm15.614 0h11.711v16.916h-11.711zm15.614 0h11.711v16.916H618.59zm15.615 0h11.711v16.916h-11.711zm15.614 0h11.711v16.916h-11.711zm15.615 0h11.711v16.916h-11.711zm15.615 0h11.711v16.916h-11.711zm15.614 0h11.711v16.916h-11.711zm15.614 0h11.711v16.916h-11.711zm-171.759 31.228h11.711v16.916h-11.711zm15.615 0h11.711v16.916h-11.711zm15.614 0h11.711v16.916h-11.711zm15.615 0h11.711v16.916h-11.711zm15.614 0h11.711v16.916h-11.711zm15.614 0h11.711v16.916H618.59zm15.615 0h11.711v16.916h-11.711zm15.614 0h11.711v16.916h-11.711zm15.615 0h11.711v16.916h-11.711zm15.615 0h11.711v16.916h-11.711zm15.614 0h11.711v16.916h-11.711zm15.614 0h11.711v16.916h-11.711zm-171.759 29.493h11.711v16.916h-11.711zm15.615 0h11.711v16.916h-11.711zm15.614 0h11.711v16.916h-11.711zm15.615 0h11.711v16.916h-11.711zm15.614 0h11.711v16.916h-11.711zm15.614 0h11.711v16.916H618.59zm15.615 0h11.711v16.916h-11.711zm15.614 0h11.711v16.916h-11.711zm15.615 0h11.711v16.916h-11.711zm15.615 0h11.711v16.916h-11.711zm15.614 0h11.711v16.916h-11.711zm15.614 0h11.711v16.916h-11.711zm-171.759 31.232h11.711v16.916h-11.711zm15.615 0h11.711v16.916h-11.711zm15.614 0h11.711v16.916h-11.711zm15.615 0h11.711v16.916h-11.711zm15.614 0h11.711v16.916h-11.711zm15.614 0h11.711v16.916H618.59zm15.615 0h11.711v16.916h-11.711zm15.614 0h11.711v16.916h-11.711zm15.615 0h11.711v16.916h-11.711zm15.615 0h11.711v16.916h-11.711zm15.614 0h11.711v16.916h-11.711zm15.614 0h11.711v16.916h-11.711zm-171.759 29.494h11.711v16.916h-11.711zm15.615 0h11.711v16.916h-11.711zm15.614 0h11.711v16.916h-11.711zm15.615 0h11.711v16.916h-11.711zm15.614 0h11.711v16.916h-11.711zm15.614 0h11.711v16.916H618.59zm15.615 0h11.711v16.916h-11.711zm15.614 0h11.711v16.916h-11.711zm15.615 0h11.711v16.916h-11.711zm15.615 0h11.711v16.916h-11.711zm15.614 0h11.711v16.916h-11.711zm15.614 0h11.711v16.916h-11.711zm-171.758 31.227h11.711v16.916h-11.711zm15.614 0h11.711v16.916h-11.711zm15.614 0h11.711v16.916h-11.711zm15.615 0h11.711v16.916h-11.711zm15.614 0h11.711v16.916h-11.711zm15.614 0h11.711v16.916H618.59zm15.615 0h11.711v16.916h-11.711zm15.614 0h11.711v16.916h-11.711zm15.615 0h11.711v16.916h-11.711zm15.615 0h11.711v16.916h-11.711zm15.614 0h11.711v16.916h-11.711zm15.614 0h11.711v16.916h-11.711zm-171.759 29.494h11.711v16.916h-11.711zm15.615 0h11.711v16.916h-11.711zm15.614 0h11.711v16.916h-11.711zm15.615 0h11.711v16.916h-11.711zm15.614 0h11.711v16.916h-11.711zm15.614 0h11.711v16.916H618.59zm15.615 0h11.711v16.916h-11.711zm15.614 0h11.711v16.916h-11.711zm15.615 0h11.711v16.916h-11.711zm15.615 0h11.711v16.916h-11.711zm15.614 0h11.711v16.916h-11.711zm15.614 0h11.711v16.916h-11.711zm-171.759 31.229h11.711v16.916h-11.711zm15.615 0h11.711v16.916h-11.711zm15.614 0h11.711v16.916h-11.711zm15.615 0h11.711v16.916h-11.711zm15.614 0h11.711v16.916h-11.711zm15.614 0h11.711v16.916H618.59zm15.615 0h11.711v16.916h-11.711zm15.614 0h11.711v16.916h-11.711zm15.615 0h11.711v16.916h-11.711zm15.615 0h11.711v16.916h-11.711zm15.614 0h11.711v16.916h-11.711zm15.614 0h11.711v16.916h-11.711zm-171.759 29.493h11.711v16.916h-11.711zm15.615 0h11.711v16.916h-11.711zm15.614 0h11.711v16.916h-11.711zm15.615 0h11.711v16.916h-11.711zm15.614 0h11.711v16.916h-11.711zm15.615 0h11.711v16.916h-11.711zm15.614 0h11.711v16.916h-11.711zm15.615 0h11.711v16.916H649.82zm15.614 0h11.711v16.916h-11.711zm15.615 0h11.711v16.916h-11.711zm15.614 0h11.711v16.916h-11.711zm15.614 0h11.711v16.916h-11.711zm-171.759 31.23h11.711v16.916h-11.711zm15.615 0h11.711v16.916h-11.711zm15.614 0h11.711v16.916h-11.711zm15.615 0h11.711v16.916h-11.711zm15.614 0h11.711v16.916h-11.711zm15.614 0h11.711v16.916H618.59zm15.615 0h11.711v16.916h-11.711zm15.614 0h11.711v16.916h-11.711zm15.615 0h11.711v16.916h-11.711zm15.615 0h11.711v16.916h-11.711zm15.614 0h11.711v16.916h-11.711zm15.614 0h11.711v16.916h-11.711zm-300.578 0h11.711v16.916h-11.711zm16.699 0h11.711v16.916h-11.711zm16.699 0h11.711v16.916h-11.711zm16.698 0h11.711v16.916h-11.711zm16.699 0h11.711v16.916h-11.711zm16.699 0h11.711v16.916h-11.711zm16.699 0h11.711v16.916h-11.711z"/><path fill="#497540" d="M318.663 265.446v-13.88h13.88v13.88zm0 18.217v-13.88h13.88v13.88zm0 18.217V288h13.88v13.88zm0 18.216v-13.88h13.88v13.88zm0 18.217v-13.88h13.88v13.88zm-36.434 54.651v-13.88h13.88v13.88zm18.217 0v-13.88h13.88v13.88zm18.217 0v-13.88h13.88v13.88zm-36.434 18.217v-13.88h13.88v13.88zm18.217 0v-13.88h13.88v13.88zm18.217 0v-13.88h13.88v13.88zm-54.651 36.434v-13.88h13.88v13.88zm18.217 0v-13.88h13.88v13.88zm18.217 0v-13.88h13.88v13.88zm18.217 0v-13.88h13.88v13.88zm-54.651 18.217v-13.88h13.88v13.88zm18.217 0v-13.88h13.88v13.88zm18.217 0v-13.88h13.88v13.88zm18.217 0v-13.88h13.88v13.88zm-72.868 36.434v-13.88h13.88v13.88zm18.217 0v-13.88h13.88v13.88zm18.217 0v-13.88h13.88v13.88zm18.217 0v-13.88h13.88v13.88zm18.217 0v-13.88h13.88v13.88zm-72.868 18.217v-13.88h13.88v13.88zm18.217 0v-13.88h13.88v13.88zm18.217 0v-13.88h13.88v13.88zm18.217 0v-13.88h13.88v13.88zm18.217 0v-13.88h13.88v13.88zm-91.084 36.434v-13.88h13.88v13.88zm18.216 0v-13.88h13.88v13.88zm18.217 0v-13.88h13.88v13.88zm18.217 0v-13.88h13.88v13.88zm18.217 0v-13.88h13.88v13.88zm18.217 0v-13.88h13.88v13.88zm-91.084 18.216v-13.88h13.88v13.88zm18.216 0v-13.88h13.88v13.88zm18.217 0v-13.88h13.88v13.88zm18.217 0v-13.88h13.88v13.88zm18.217 0v-13.88h13.88v13.88zm18.217 0v-13.88h13.88v13.88zm-109.301 36.434v-13.88h13.88v13.88zm18.217 0v-13.88h13.88v13.88zm18.216 0v-13.88h13.88v13.88zm18.217 0v-13.88h13.88v13.88zm18.217 0v-13.88h13.88v13.88zm18.217 0v-13.88h13.88v13.88zm18.217 0v-13.88h13.88v13.88zm-109.301 18.217v-13.88h13.88v13.88zm18.217 0v-13.88h13.88v13.88zm18.216 0v-13.88h13.88v13.88zm18.217 0v-13.88h13.88v13.88zm18.217 0v-13.88h13.88v13.88zm18.217 0v-13.88h13.88v13.88zm18.217 0v-13.88h13.88v13.88zm-127.518 36.434v-13.88h13.88v13.88zm18.217 0v-13.88h13.88v13.88zm18.217 0v-13.88h13.88v13.88zm18.216 0v-13.88h13.88v13.88zm18.217 0v-13.88h13.88v13.88zm18.217 0v-13.88h13.88v13.88zm18.217 0v-13.88h13.88v13.88zm18.217 0v-13.88h13.88v13.88zm-127.518 18.217v-13.88h13.88v13.88zm18.217 0v-13.88h13.88v13.88zm18.217 0v-13.88h13.88v13.88zm18.216 0v-13.88h13.88v13.88zm18.217 0v-13.88h13.88v13.88zm18.217 0v-13.88h13.88v13.88zm18.217 0v-13.88h13.88v13.88zm18.217 0v-13.88h13.88v13.88zm-145.735 36.432v-13.88h13.88v13.88zm18.217 0v-13.88h13.88v13.88zm18.217 0v-13.88h13.88v13.88zm18.217 0v-13.88h13.88v13.88zm18.216 0v-13.88h13.88v13.88zm18.217 0v-13.88h13.88v13.88zm18.217 0v-13.88h13.88v13.88zm18.217 0v-13.88h13.88v13.88zm18.217 0v-13.88h13.88v13.88zm-145.735 18.216v-13.88h13.88v13.88zm18.217 0v-13.88h13.88v13.88zm18.217 0v-13.88h13.88v13.88zm18.217 0v-13.88h13.88v13.88zm18.216 0v-13.88h13.88v13.88zm18.217 0v-13.88h13.88v13.88zm18.217 0v-13.88h13.88v13.88zm18.217 0v-13.88h13.88v13.88zm18.217 0v-13.88h13.88v13.88zM154.711 775.52v-13.88h13.88v13.88zm18.217 0v-13.88h13.88v13.88zm18.217 0v-13.88h13.88v13.88zm18.217 0v-13.88h13.88v13.88zm18.217 0v-13.88h13.88v13.88zm18.216 0v-13.88h13.88v13.88zm18.217 0v-13.88h13.88v13.88zm18.217 0v-13.88h13.88v13.88zm18.217 0v-13.88h13.88v13.88zm18.217 0v-13.88h13.88v13.88zm-163.952 18.215v-13.88h13.88v13.88zm18.217 0v-13.88h13.88v13.88zm18.217 0v-13.88h13.88v13.88zm18.217 0v-13.88h13.88v13.88zm18.217 0v-13.88h13.88v13.88zm18.216 0v-13.88h13.88v13.88zm18.217 0v-13.88h13.88v13.88zm18.217 0v-13.88h13.88v13.88zm18.217 0v-13.88h13.88v13.88zm18.217 0v-13.88h13.88v13.88zm-182.169 36.433v-13.88h13.88v13.88zm18.217 0v-13.88h13.88v13.88zm18.217 0v-13.88h13.88v13.88zm18.217 0v-13.88h13.88v13.88zm18.217 0v-13.88h13.88v13.88zm18.217 0v-13.88h13.88v13.88zm18.216 0v-13.88h13.88v13.88zm18.217 0v-13.88h13.88v13.88zm18.217 0v-13.88h13.88v13.88zm18.217 0v-13.88h13.88v13.88zm18.217 0v-13.88h13.88v13.88zm-182.169 18.217v-13.88h13.88v13.88zm18.217 0v-13.88h13.88v13.88zm18.217 0v-13.88h13.88v13.88zm18.217 0v-13.88h13.88v13.88zm18.217 0v-13.88h13.88v13.88zm18.217 0v-13.88h13.88v13.88zm18.216 0v-13.88h13.88v13.88zm18.217 0v-13.88h13.88v13.88zm18.217 0v-13.88h13.88v13.88zm18.217 0v-13.88h13.88v13.88zm18.217 0v-13.88h13.88v13.88zm-200.385 36.434v-13.88h13.88v13.88zm18.216 0v-13.88h13.88v13.88zm18.217 0v-13.88h13.88v13.88zm18.217 0v-13.88h13.88v13.88zm18.217 0v-13.88h13.88v13.88zm18.217 0v-13.88h13.88v13.88zm18.217 0v-13.88h13.88v13.88zm18.216 0v-13.88h13.88v13.88zm18.217 0v-13.88h13.88v13.88zm18.217 0v-13.88h13.88v13.88zm18.217 0v-13.88h13.88v13.88zm18.217 0v-13.88h13.88v13.88zm-200.385 18.217v-13.88h13.88v13.88zm18.216 0v-13.88h13.88v13.88zm18.217 0v-13.88h13.88v13.88zm18.217 0v-13.88h13.88v13.88zm18.217 0v-13.88h13.88v13.88zm18.217 0v-13.88h13.88v13.88zm18.217 0v-13.88h13.88v13.88zm18.216 0v-13.88h13.88v13.88zm18.217 0v-13.88h13.88v13.88zm18.217 0v-13.88h13.88v13.88zm18.217 0v-13.88h13.88v13.88zm18.217 0v-13.88h13.88v13.88zM100.06 935.134v-13.88h13.88v13.88zm18.218 0v-13.88h13.88v13.88zm18.216 0v-13.88h13.88v13.88zm18.217 0v-13.88h13.88v13.88zm18.217 0v-13.88h13.88v13.88zm18.217 0v-13.88h13.88v13.88zm18.217 0v-13.88h13.88v13.88zm18.217 0v-13.88h13.88v13.88zm18.216 0v-13.88h13.88v13.88zm18.217 0v-13.88h13.88v13.88zm18.217 0v-13.88h13.88v13.88zm18.217 0v-13.88h13.88v13.88zm18.217 0v-13.88h13.88v13.88zM300.446 356.53v-13.88h13.88v13.88zm18.217 0v-13.88h13.88v13.88z"/><ellipse cx="643.964" cy="278.024" rx="39.036" ry="38.602" fill="#306594"/><rect x="620.542" y="354.795" width="76.337" height="39.47" rx="19.735" fill="#89AF81"/><path d="M548.542 398.168h32.531v15.615h-32.531v-15.615zm6.507 15.615h9.542v25.157h-9.542v-25.157zm-6.507 25.157h32.531v15.614h-32.531V438.94zm84.579-34.699h23.856v26.458h-23.856v-26.458zm0 35.566h57.687v14.747h-57.687v-14.747zm0-6.939h9.542v6.939h-9.542v-6.939z" fill="#89AF81"/><path d="M655.675 413.35h11.711v26.457h-11.711V413.35zm25.591 19.518h9.542v6.939h-9.542v-6.939z" fill="#89AF81"/><path d="M661.314 404.241h29.494v26.458h-29.494v-26.458zm-47.711-80.675h27.759v14.313h-27.759zm51.614 0h27.759v14.313h-27.759zm-19.951 4.338h16.482v9.976h-16.482z" fill="#89AF81"/><path d="M407.795-119.277L-15.53 1177.37" stroke="#84AD7C" stroke-width="8.675"/><circle cx="585" cy="385" r="25" fill="#F3C67A"/><circle cx="560" cy="806" r="25" fill="#F3C67A"/><circle cx="560" cy="623" r="25" fill="#F3C67A"/><circle cx="560" cy="623" r="25" fill="#F3C67A"/><path d="M572.024 628.897l-1.12-6.037c-.522-2.894-3.018-5-5.931-5h-3.797c.117-3.196-1.216-8.099-7.072-9.816a1.043 1.043 0 00-.939.173 1.084 1.084 0 00-.426.864v2.095l-5.664 2.872a3.318 3.318 0 00-1.792 2.938c0 1.285.704 2.419 1.834 2.98l2.592 1.253-1.28 7.818-.17-.065c-1.654-.605-3.478.27-4.075 1.944-.587 1.674.277 3.52 1.931 4.114l2.88 1.048A32.327 32.327 0 00560.003 638c3.765 0 7.467-.648 10.997-1.922l2.891-1.048c.8-.28 1.44-.874 1.803-1.652a3.233 3.233 0 00.117-2.462 3.17 3.17 0 00-3.787-2.019zm-16.181 1.911c.522-1.901 2.229-3.229 4.17-3.229.864 0 1.696.259 2.411.745a4.405 4.405 0 011.589 1.998l.342.864c-2.848.475-5.76.475-8.619.011l.107-.389zm17.92 1.652a1.068 1.068 0 01-.587.54l-2.89 1.048c-6.603 2.386-13.974 2.386-20.566 0L546.829 633a1.057 1.057 0 01-.629-1.35c.149-.442.555-.712.981-.712.118 0 .246.021.352.064l2.891 1.037a28.327 28.327 0 0019.158 0l2.88-1.037a1.043 1.043 0 011.344.648c.096.26.085.551-.043.81z" fill="#5C8D52"/><circle cx="560" cy="806" r="25" fill="#F3C67A"/><path d="M572.024 811.897l-1.12-6.037c-.522-2.894-3.018-5-5.931-5h-3.797c.117-3.196-1.216-8.099-7.072-9.816a1.043 1.043 0 00-.939.173 1.084 1.084 0 00-.426.864v2.095l-5.664 2.872a3.318 3.318 0 00-1.792 2.938c0 1.285.704 2.419 1.834 2.98l2.592 1.253-1.28 7.818-.17-.065c-1.654-.605-3.478.27-4.075 1.944-.587 1.674.277 3.52 1.931 4.114l2.88 1.048A32.327 32.327 0 00560.003 821c3.765 0 7.467-.648 10.997-1.922l2.891-1.048c.8-.28 1.44-.874 1.803-1.652a3.233 3.233 0 00.117-2.462 3.17 3.17 0 00-3.787-2.019zm-16.181 1.911c.522-1.901 2.229-3.229 4.17-3.229.864 0 1.696.259 2.411.745a4.405 4.405 0 011.589 1.998l.342.864c-2.848.475-5.76.475-8.619.011l.107-.389zm17.92 1.652a1.068 1.068 0 01-.587.54l-2.89 1.048c-6.603 2.386-13.974 2.386-20.566 0L546.829 816a1.057 1.057 0 01-.629-1.35c.149-.442.555-.712.981-.712.118 0 .246.021.352.064l2.891 1.037a28.327 28.327 0 0019.158 0l2.88-1.037a1.043 1.043 0 011.344.648c.096.26.085.551-.043.81z" fill="#5C8D52"/><path transform="matrix(1 0 0 -1 0 1080)" fill="url(#paint0_linear_26_75)" d="M0 0h1399v163H0z"/><circle cx="650" cy="338" r="25" fill="#F3C67A"/><circle cx="535" cy="939" r="25" fill="#F3C67A"/><circle cx="278" cy="300" r="25" fill="#F3C67A"/><circle cx="278" cy="300" r="25" fill="#F3C67A"/><path d="M294.432 295.577l-15.582-11.26c-.567-.423-1.133-.423-1.7 0l-15.582 11.26c-1.133.703-.425 2.533.85 2.533h2.833v15.483c0 .844.567 1.407 1.416 1.407h22.666c.849 0 1.416-.563 1.416-1.407V298.11h2.833c1.275 0 1.983-1.83.85-2.533zM278 312.185c-4.675 0-8.499-3.8-8.499-8.445 0-4.645 3.824-8.445 8.499-8.445 4.675 0 8.499 3.8 8.499 8.445 0 4.645-3.824 8.445-8.499 8.445z" fill="#5C8D52"/><path d="M280.125 301.629v-4.223h-4.25v4.223h-4.25v4.222h4.25v4.223h4.25v-4.223h4.25v-4.222h-4.25z" fill="#5C8D52"/><circle cx="100" cy="983" r="25" fill="#F3C67A"/><circle cx="100" cy="983" r="25" fill="#F3C67A"/><path d="M99.613 964a.788.788 0 00-.212.023c-2.065.527-3.536 2.398-3.538 4.53 0 2.175 1.512 4.004 3.546 4.527v1.151c-1.308 2.02-4.24 3.369-6.983 5.072-1.4.869-2.749 1.847-3.76 3.126-1.01 1.279-1.666 2.875-1.666 4.862 0 2.641.766 4.554 1.616 5.852h22.764c.851-1.298 1.62-3.211 1.62-5.852 0-1.987-.66-3.583-1.671-4.862-1.011-1.279-2.355-2.257-3.755-3.126-2.74-1.701-5.673-3.049-6.983-5.065v-1.004a4.718 4.718 0 004.554-3.464c.297-.573-.42-1.133-.912-.711a2.974 2.974 0 01-1.871.666 2.934 2.934 0 01-2.953-2.931c-.018-.696.282-1.357.667-1.85.335-.429.015-.926-.463-.944zM88.77 994.314c-.971 0-1.77.798-1.77 1.761v2.337a.584.584 0 00.589.588h24.818a.607.607 0 00.42-.172.58.58 0 00.173-.416v-2.337a1.78 1.78 0 00-1.775-1.761H88.77z" fill="#5C8D52"/><circle cx="82" cy="1044" r="25" fill="#F3C67A"/><circle cx="678" cy="248" r="25" fill="#F3C67A"/><circle cx="702" cy="398" r="25" fill="#F3C67A"/><circle cx="702" cy="398" r="25" fill="#F3C67A"/><path d="M699.6 397h4.8c2.765 0 4-1.234 4-4v-6.229a8.903 8.903 0 00-1.6-.62v-.351a4.8 4.8 0 10-9.6 0v.351a8.903 8.903 0 00-1.6.62V393c0 2.766 1.234 4 4 4zm-.8-11.2a3.2 3.2 0 016.4 0v.049a8.462 8.462 0 00-.8-.049h-4.8c-.271 0-.536.024-.8.049v-.049z" fill="#5C8D52"/><path d="M710 387.817V393c0 3.663-1.936 5.6-5.6 5.6h-4.8c-3.664 0-5.6-1.937-5.6-5.6v-5.183a8.79 8.79 0 00-3.2 6.783V409a4.004 4.004 0 004 4h14.4a4.004 4.004 0 004-4v-14.4a8.79 8.79 0 00-3.2-6.783zm-4 18.783h-.8v.8a.8.8 0 11-1.6 0v-.8H698a.8.8 0 110-1.6h8a.8.8 0 110 1.6zm9.6-6.4h-.8v9.519a4.006 4.006 0 003.2-3.919v-3.2a2.402 2.402 0 00-2.4-2.4zm-29.6 2.4v3.2a4.005 4.005 0 003.2 3.919V400.2h-.8a2.402 2.402 0 00-2.4 2.4z" fill="#5C8D52"/><circle cx="585" cy="385" r="25" fill="#F3C67A"/><path d="M596.416 376.633h-8.825l5.419 6.459h7.49v-1.348l-4.084-5.111zm-22.832 0l-4.084 5.111v1.348h7.49l5.419-6.459h-8.825z" fill="#5C8D52"/><path d="M598.825 397.684v-12.776h-6.662l-6.255-7.454v-3.908h5.245V368.5h-7.061v8.954l-6.255 7.454h-6.662v12.776H569.5v1.816h31v-1.816h-1.675zm-24.461-9.809h1.816v2.583h-1.816v-2.583zm1.863 7.75h-1.816v-2.583h1.816v2.583zM585 381.154a2.85 2.85 0 012.846 2.846 2.85 2.85 0 01-2.846 2.846 2.85 2.85 0 01-2.846-2.846 2.85 2.85 0 012.846-2.846zm4.783 16.53h-1.816v-6.317h-2.059v6.317h-1.816v-6.317h-2.059v6.317h-1.816v-8.134h9.566v8.134zm5.807-2.059h-1.817v-2.583h1.817v2.583zm.046-5.167h-1.816v-2.583h1.816v2.583z" fill="#5C8D52"/><path d="M585 382.971a1.03 1.03 0 100 2.059 1.03 1.03 0 000-2.059z" fill="#5C8D52"/><circle cx="678" cy="248" r="25" fill="#F3C67A"/><path d="M678.5 257.182V255c0-2.407 1.931-4.364 4.304-4.364 1.924 0 3.556 1.287 4.107 3.056.064-.12.123-.243.198-.357v-.516c0-2.005 1.609-3.636 3.587-3.636 1.362 0 2.535.783 3.143 1.92a9.143 9.143 0 001.161-4.466c0-5.021-4.015-9.091-8.967-9.091h-1.692a7.128 7.128 0 00-5.073 2.13l-1.518 1.539a7.12 7.12 0 01-5.059 2.13l-2.808.006c-4.356.008-7.882 3.59-7.883 8.006 0 4.422 3.536 8.007 7.898 8.007h4.79a5.691 5.691 0 003.866-1.528 4.394 4.394 0 01-.054-.654zm10.761-8h-5.739a.723.723 0 01-.718-.727c0-.402.321-.728.718-.728h5.739c.397 0 .717.326.717.728 0 .401-.32.727-.717.727zm2.138-4.364a.722.722 0 01-.718.727h-2.855a.721.721 0 01-.717-.727c0-.401.32-.727.717-.727h2.855c.397 0 .718.326.718.727zm-7.16-4.363h2.87c.396 0 .717.325.717.727a.722.722 0 01-.717.727h-2.87a.722.722 0 01-.717-.727c0-.402.32-.727.717-.727zm-3.587 3.636h3.587c.397 0 .718.326.718.727a.722.722 0 01-.718.727h-3.587a.721.721 0 01-.717-.727c0-.401.32-.727.717-.727zm-8.609 3.636h7.174c.397 0 .718.326.718.728a.723.723 0 01-.718.727h-7.174a.722.722 0 01-.717-.727c0-.402.321-.728.717-.728zm-5.021.728c0-.402.32-.728.717-.728h1.435c.397 0 .717.326.717.728 0 .401-.32.727-.717.727h-1.435a.722.722 0 01-.717-.727zm6.456 8h-4.304a.722.722 0 01-.717-.728c0-.401.32-.727.717-.727h4.304c.397 0 .718.326.718.727a.723.723 0 01-.718.728zm3.587-3.637h-4.304a.723.723 0 01-.718-.727c0-.402.321-.727.718-.727h4.304c.397 0 .718.325.718.727a.723.723 0 01-.718.727z" fill="#5C8D52"/><path d="M682.804 252.091c-1.584 0-2.869 1.302-2.869 2.909v2.182c0 1.354.917 2.481 2.152 2.806v2.285c0 .401.321.727.717.727a.723.723 0 00.718-.727v-2.285a2.895 2.895 0 002.152-2.806V255c0-1.607-1.285-2.909-2.87-2.909zm10.044 1.731v-1.004c0-1.205-.964-2.182-2.152-2.182-1.189 0-2.153.977-2.153 2.182v1.004a2.906 2.906 0 00-.717 1.905v1.455c0 1.354.917 2.481 2.152 2.806v2.285c0 .401.321.727.718.727a.722.722 0 00.717-.727v-2.285a2.895 2.895 0 002.152-2.806v-1.455c0-.733-.276-1.394-.717-1.905zm-26.544-21.367c-1.782 0-3.228 1.465-3.228 3.272a3.261 3.261 0 002.511 3.186v2.269c0 .401.321.727.717.727a.723.723 0 00.718-.727v-2.269a3.261 3.261 0 002.511-3.186c0-1.807-1.446-3.272-3.229-3.272zm7.892-1.455c-1.585 0-2.87 1.303-2.87 2.909v2.182c0 1.354.917 2.481 2.152 2.806v2.285c0 .401.321.727.718.727a.722.722 0 00.717-.727v-2.285a2.895 2.895 0 002.152-2.806v-2.182c0-1.606-1.285-2.909-2.869-2.909z" fill="#5C8D52"/><circle cx="650" cy="338" r="25" fill="#F3C67A"/><g clip-path="url(#clip1_26_75)"><path d="M650 321c-9.373 0-17 7.627-17 17 0 9.373 7.627 17 17 17 9.373 0 17-7.627 17-17 0-9.373-7.627-17-17-17zm1.08 5.523l4.371-2.35a14.942 14.942 0 016.139 4.526l-1.041 4.807-3.335 1.634-6.134-4.469v-4.148zm-6.494-2.363l4.371 2.359v4.152l-6.131 4.469-3.351-1.637-1.041-4.836a14.919 14.919 0 016.152-4.507zm-6.847 22.242a14.773 14.773 0 01-2.54-6.957l3.598-3.908 3.281 1.605 2.471 7.018-2.088 2.504-4.722-.262zm16.05 5.965a14.77 14.77 0 01-3.789.508c-1.585 0-3.111-.255-4.545-.716l-1.337-4.161 2.131-2.56h7.51l2.093 2.477-2.063 4.452zm3.721-5.776l-2.055-2.433 2.505-7.016 3.266-1.601 3.577 3.906a14.749 14.749 0 01-2.008 6.101l-5.285 1.043z" fill="#5C8D52"/></g><circle cx="535" cy="939" r="25" fill="#F3C67A"/><path fill-rule="evenodd" clip-rule="evenodd" d="M525.667 925.755c0-2.129 9.333-3.755 9.333-3.755s9.333 1.626 9.333 3.755c0 2.839-1.697 4.037-1.697 4.037h-15.272s-1.697-1.198-1.697-4.037zm10.666.37c0 .759-.597 1.375-1.333 1.375s-1.333-.616-1.333-1.375.597-1.375 1.333-1.375 1.333.616 1.333 1.375zm5.613 7.131c1.236-.993 1.043-2.089 1.043-2.089h-15.978s-.193 1.096 1.043 2.089a7.588 7.588 0 00-.165 1.577c0 4.05 3.184 7.334 7.111 7.334 3.927 0 7.111-3.284 7.111-7.334 0-.541-.057-1.068-.165-1.577zM535 934.833c2.419 0 4.11-.287 5.29-.702.029.23.043.464.043.702 0 3.038-2.387 5.5-5.333 5.5s-5.333-2.462-5.333-5.5c0-.238.014-.472.043-.702 1.18.415 2.871.702 5.29.702zm1.333 9.167c.491 0 .889.41.889.917v1.266c0 .348-.19.665-.491.82l-.398.205.513 2.644 3.769-5.83.715.005c4.804 1.13 9.67 3.434 9.67 6.901V955h-32v-4.072c0-3.467 5.079-5.798 9.882-6.928-.016.004.164.007.494.009l3.808 5.889.483-2.69-.398-.205a.919.919 0 01-.491-.82v-1.266c0-.507.398-.917.889-.917h2.666zm8.445 4.889s-1.185-.611-1.778-1.222c-.593.611-1.778 1.222-1.778 1.222s.621 2.444 1.778 2.444 1.778-2.444 1.778-2.444z" fill="#5C8D52"/><circle cx="82" cy="1044" r="25" fill="#F3C67A"/><path d="M98.997 1056.3l-.851-20.28c-.084-1.99-1.788-3.62-3.8-3.62h-2.758v-2.2c0-2.32-1.896-4.2-4.226-4.2s-4.227 1.88-4.227 4.2v2.2h-2.757c-1.68 0-3.137.97-3.615 2.28h6.838c1.488 0 2.912.57 4.01 1.6 1.097 1.04 1.742 2.42 1.816 3.9l.806 16.01a5.446 5.446 0 01-1.27 3.81h6.457c.99 0 1.91-.39 2.588-1.09.679-.7 1.03-1.63.989-2.61zm-9.415-23.9h-4.44v-2.2c0-1.22.996-2.21 2.22-2.21 1.224 0 2.22.99 2.22 2.21v2.2z" fill="#5C8D52"/><path d="M87.423 1040.28c-.1-1.99-1.814-3.61-3.822-3.61H69.633c-2.007 0-3.722 1.62-3.822 3.61l-.806 16.01c-.05.98.294 1.91.97 2.62.674.7 1.592 1.09 2.584 1.09h16.117c.992 0 1.91-.39 2.584-1.09a3.51 3.51 0 00.97-2.62l-.807-16.01zm-6.58 3.79c0 2.31-1.895 4.19-4.226 4.19-2.33 0-4.226-1.88-4.226-4.19v-3.2a1.003 1.003 0 012.006 0v3.2c0 1.21.996 2.2 2.22 2.2 1.224 0 2.22-.99 2.22-2.2v-3.2a1.003 1.003 0 012.007 0v3.2z" fill="#5C8D52"/><path fill="url(#paint1_linear_26_75)" d="M0 0h1399v163H0z"/></g><defs><linearGradient id="paint0_linear_26_75" x1="477.5" y1="0" x2="477.5" y2="163" gradientUnits="userSpaceOnUse"><stop stop-color="#57884C"/><stop offset="1" stop-color="#57884C" stop-opacity="0"/></linearGradient><linearGradient id="paint1_linear_26_75" x1="477.5" y1="0" x2="477.5" y2="163" gradientUnits="userSpaceOnUse"><stop stop-color="#57884C"/><stop offset="1" stop-color="#57884C" stop-opacity="0"/></linearGradient><clipPath id="clip0_26_75"><path fill="#fff" d="M0 0h794v1080H0z"/></clipPath><clipPath id="clip1_26_75"><path fill="#fff" transform="translate(633 321)" d="M0 0h34v34H0z"/></clipPath></defs></svg>