<svg width="34" height="31" fill="none" xmlns="http://www.w3.org/2000/svg"><path d="M33.432 11.577L17.85.317c-.567-.423-1.133-.423-1.7 0L.568 11.577c-1.133.703-.425 2.533.85 2.533H4.25v15.483c0 .844.567 1.407 1.416 1.407h22.665c.85 0 1.417-.563 1.417-1.407V14.11h2.833c1.275 0 1.983-1.83.85-2.533zM17 28.185c-4.675 0-8.5-3.8-8.5-8.445 0-4.645 3.825-8.445 8.5-8.445s8.5 3.8 8.5 8.445c0 4.645-3.825 8.445-8.5 8.445z" fill="#5C8D52"/><path d="M19.125 17.629v-4.223h-4.25v4.223h-4.25v4.222h4.25v4.223h4.25V21.85h4.25v-4.22h-4.25z" fill="#5C8D52"/></svg>