<svg width="32" height="32" fill="none" xmlns="http://www.w3.org/2000/svg"><path d="M13.6 16h4.8c2.766 0 4-1.233 4-4V5.771a8.87 8.87 0 00-1.6-.62V4.8a4.8 4.8 0 10-9.6 0v.351a8.877 8.877 0 00-1.6.62V12c0 2.767 1.234 4 4 4zm-.8-11.2a3.2 3.2 0 116.4 0v.049a8.585 8.585 0 00-.8-.049h-4.8c-.27 0-.536.024-.8.049V4.8z" fill="#5C8D52"/><path d="M24 6.817V12c0 3.663-1.936 5.6-5.6 5.6h-4.8C9.936 17.6 8 15.663 8 12V6.817A8.786 8.786 0 004.8 13.6V28a4.004 4.004 0 004 4h14.4a4.004 4.004 0 004-4V13.6A8.786 8.786 0 0024 6.817zM20 25.6h-.8v.8a.8.8 0 01-1.6 0v-.8H12a.8.8 0 110-1.6h8a.8.8 0 010 1.6zm9.6-6.4h-.8v9.52A4.007 4.007 0 0032 24.8v-3.2a2.403 2.403 0 00-2.4-2.4zM0 21.6v3.2a4.006 4.006 0 003.2 3.92V19.2h-.8A2.403 2.403 0 000 21.6z" fill="#5C8D52"/></svg>