<svg width="33" height="32" fill="none" xmlns="http://www.w3.org/2000/svg"><path d="M16.5 26.182V24c0-2.407 1.93-4.364 4.304-4.364 1.924 0 3.556 1.287 4.107 3.056.063-.12.123-.242.198-.357v-.516c0-2.005 1.609-3.636 3.587-3.636 1.362 0 2.535.783 3.142 1.92A9.14 9.14 0 0033 15.636c0-5.021-4.015-9.09-8.967-9.09H22.34a7.126 7.126 0 00-5.073 2.13l-1.518 1.538a7.125 7.125 0 01-5.059 2.13l-2.808.005C3.527 12.358.001 15.942 0 20.358c0 4.422 3.536 8.007 7.898 8.007h4.79c1.435 0 2.81-.55 3.866-1.528a4.369 4.369 0 01-.054-.654zm10.76-8h-5.738a.722.722 0 01-.718-.727c0-.402.321-.728.718-.728h5.739c.397 0 .717.326.717.727 0 .402-.32.728-.717.728zm2.139-4.364a.723.723 0 01-.718.728h-2.855a.722.722 0 01-.717-.728c0-.401.32-.727.717-.727h2.855c.397 0 .718.326.718.727zm-7.16-4.363h2.87c.396 0 .717.325.717.727 0 .401-.32.727-.717.727h-2.87a.722.722 0 01-.717-.727c0-.402.32-.727.717-.727zm-3.587 3.636h3.587c.397 0 .717.326.717.727 0 .402-.32.728-.717.728h-3.587a.722.722 0 01-.717-.728c0-.401.32-.727.717-.727zm-8.609 3.636h7.174c.397 0 .718.326.718.727 0 .402-.32.728-.718.728h-7.173a.722.722 0 01-.718-.727c0-.402.32-.728.717-.728zm-5.021.727c0-.4.32-.727.717-.727h1.435c.397 0 .717.326.717.727 0 .402-.32.728-.717.728H5.739a.722.722 0 01-.717-.727zm6.456 8H7.174a.722.722 0 01-.717-.727c0-.401.32-.727.717-.727h4.304c.397 0 .718.326.718.727a.722.722 0 01-.718.727zm3.587-3.636h-4.304a.722.722 0 01-.717-.727c0-.402.32-.727.717-.727h4.304c.397 0 .718.325.718.727a.723.723 0 01-.718.727z" fill="#5C8D52"/><path d="M20.804 21.09c-1.584 0-2.87 1.303-2.87 2.91v2.182c0 1.354.918 2.481 2.153 2.806v2.285c0 .401.32.727.717.727a.722.722 0 00.718-.727v-2.285a2.896 2.896 0 002.152-2.806V24c0-1.607-1.285-2.91-2.87-2.91zm10.044 1.732v-1.004c0-1.205-.964-2.182-2.152-2.182-1.19 0-2.152.977-2.152 2.182v1.004a2.907 2.907 0 00-.718 1.905v1.455c0 1.354.917 2.481 2.152 2.806v2.285c0 .401.32.727.718.727a.722.722 0 00.717-.727v-2.285a2.896 2.896 0 002.152-2.806v-1.455c0-.733-.276-1.394-.717-1.905zM4.304 1.455c-1.782 0-3.228 1.465-3.228 3.272a3.26 3.26 0 002.511 3.186v2.269c0 .401.32.727.717.727a.722.722 0 00.718-.727v-2.27a3.26 3.26 0 002.51-3.185c0-1.807-1.445-3.272-3.228-3.272zM12.196 0c-1.585 0-2.87 1.303-2.87 2.91v2.18c0 1.355.917 2.482 2.152 2.807v2.285c0 .401.32.727.718.727a.722.722 0 00.717-.727V7.897a2.896 2.896 0 002.152-2.806V2.909C15.065 1.303 13.78 0 12.195 0z" fill="#5C8D52"/></svg>