<svg width="493" height="260" fill="none" xmlns="http://www.w3.org/2000/svg"><g clip-path="url(#clip0_50_37)" stroke="#fff" stroke-opacity=".2" stroke-width="2" stroke-miterlimit="10" stroke-linecap="round" stroke-linejoin="round"><path d="M300.974-24.572c-26.267 53.3-65.24 108.101-121.733 139.783-8.948 5.017-18.662 9.471-34.914 15.189"/><path d="M425.81 7.092c7.725 12.531 15.179 27.148 21.996 44.476 34.156 86.822-41.27 171.016-70.86 199.623-3.259 3.151-8.699.542-8.223-3.963 2.748-25.952-8.302-65.899-64.503-172.334-36.614-69.34 30.1-176.262 30.1-176.262 3.661 29.753 38.347 40.468 73.207 82.825"/><path d="M371.394-222.392c-21.437 47.073-43.683 114.11-41.877 187.098 2.387 96.517 76.023 153.109 63.26 216.4m-191.782-39.262c-49.902 31.018-119.308 18.367-152.605 9.476-4.792-1.28-4.8-8.02-.026-9.368 35.817-10.111 49.237-37.594 101.49-60.526 68.035-29.86 105.818-33.074 105.818-33.074-4.806 32.345-15.838 55.945-30.578 72.955"/></g><defs><clipPath id="clip0_50_37"><path fill="#fff" transform="matrix(1 0 0 -1 0 259.744)" d="M0 0h493v260H0z"/></clipPath></defs></svg>