<svg width="276" height="363" fill="none" xmlns="http://www.w3.org/2000/svg"><g clip-path="url(#clip0_50_23)" stroke="#fff" stroke-opacity=".2" stroke-width="2" stroke-miterlimit="10" stroke-linecap="round" stroke-linejoin="round"><path d="M-7.861 297.123c53.214-26.192 107.928-65.053 139.559-121.385 5.009-8.922 9.456-18.609 15.165-34.814"/><path d="M23.753 421.603c12.51 7.702 27.104 15.135 44.405 21.933 86.682 34.058 170.741-41.153 199.302-70.658 3.146-3.25.541-8.674-3.956-8.199-25.91 2.74-65.793-8.279-172.058-64.319-69.23-36.51-175.98 30.014-175.98 30.014 29.705 3.651 40.403 38.237 82.693 72.998"/><path d="M-205.364 367.343c46.998-21.377 113.928-43.56 186.799-41.759 96.362 2.381 152.863 75.806 216.053 63.081M-68.977 212.611c4.66 31.372 14.861 50.586 4.876 67.879 0 0 93.53-36.024 103.513-97.595C54.142 92.047 65.915 60.19 79.392 44.38c2.89-3.39.072-8.538-4.34-7.943-34.378 4.626-118.504 22.965-137.897 92.597-5.53 19.857-7.774 36.977-8.132 51.929"/><path d="M-166.554 351.531s68.987-22.701 137.146-110.723C17.623 180.07-4.306 107.161 34.103 73.052m124.186 124.377c30.968-49.759 18.338-118.966 9.461-152.168-1.278-4.779-8.008-4.786-9.353-.026-10.095 35.715-37.534 49.096-60.43 101.199-29.812 67.841-33.02 105.516-33.02 105.516 32.293-4.792 55.855-15.792 72.838-30.491"/></g><defs><clipPath id="clip0_50_23"><path fill="#fff" transform="rotate(90 138 138)" d="M0 0h363v276H0z"/></clipPath></defs></svg>