<svg width="27" height="29" fill="none" xmlns="http://www.w3.org/2000/svg"><path d="M2.424 0C1.102 0 0 1.073 0 2.361v24.792c0 .652.543 1.18 1.212 1.18h14.546c.669 0 1.212-.528 1.212-1.18V21.84c0-.326.271-.59.606-.59h.606c.684 0 1.212.515 1.212 1.18v1.181c0 1.942 1.642 3.542 3.636 3.542 1.994 0 3.637-1.6 3.637-3.542V8.264a3.514 3.514 0 00-1.454-2.834l-3.88-2.834a1.237 1.237 0 00-1.698.238 1.164 1.164 0 00.244 1.653l1.454 1.06c.306.224.485.574.485.946v2.951c0 1.09.785 2.023 1.825 2.288.324.082.6.338.6.664V23.61c0 .666-.529 1.18-1.213 1.18s-1.212-.514-1.212-1.18v-1.18c0-1.943-1.642-3.542-3.636-3.542h-.606a.598.598 0 01-.606-.59V2.36c0-1.287-1.102-2.36-2.424-2.36H2.424zm.606 2.361h10.91c.335 0 .606.263.606.59v8.264c0 .327-.27.59-.607.59H3.03a.597.597 0 01-.606-.59V2.951c0-.327.27-.59.606-.59z" fill="#5C8D52"/></svg>