<svg width="28" height="28" fill="none" xmlns="http://www.w3.org/2000/svg"><path fill-rule="evenodd" clip-rule="evenodd" d="M22.058 2.546c-1.22 3.126-3.994 3.777-8.014 3.777-.43 0-.858-.007-1.27-.013-.4-.006-.777-.012-1.146-.012-.329 0-.66.004-.986.018.563-1.382 1.462-2.321 2.741-2.891 1.783-.794 4.102-.802 6.148-.808.89-.003 1.744-.007 2.527-.071z" fill="#5C8D52"/><path fill-rule="evenodd" clip-rule="evenodd" d="M23.312 3.548c-1.803 3.927-5.822 4.32-9.266 4.32-.756 0-1.48-.017-2.151-.022l-.868 3.393c4.443-3.622 10.318-.03 9.69 5.435-.423 3.68-3.047 6.088-5.824 6.78-3.024.754-6.375-.374-7.877-3.457-.16-.325-.437-.978-.543-1.326l3.19-.82c.056.184.151.362.252.524 2.135 3.444 6.462 1.721 6.95-1.851.497-3.634-4.602-5.57-6.926-1.323l-2.828-1.205-.05-.022 1.365-5.476a55.79 55.79 0 01.416-1.655c1.542-5.669 6.53-5.758 10.53-5.773A13.947 13.947 0 0014 0C6.267 0 0 6.267 0 14s6.267 14 14 14 14-6.267 14-14c0-4.157-1.812-7.888-4.688-10.452z" fill="#5C8D52"/></svg>