<svg width="26" height="28" fill="none" xmlns="http://www.w3.org/2000/svg"><path fill-rule="evenodd" clip-rule="evenodd" d="M0 8.37c0-2.23.818-4.33 2.307-5.914C3.794.872 5.765 0 7.857 0H26v4.254H7.857c-1.025 0-1.994.43-2.728 1.21A4.234 4.234 0 003.992 8.37l-.023 7.14c-.185 1.896-1.527 3.426-3.263 3.708L0 19.333V8.37zM0 28v-4.254h18.143c1.025 0 1.994-.43 2.725-1.212a4.207 4.207 0 001.14-2.905l.002-6.776c0-2.018 1.412-3.768 3.284-4.072L26 8.667v10.962c0 2.23-.818 4.33-2.307 5.914C22.206 27.128 20.237 28 18.143 28H0zm15.396-8.667v-5.42L13 16.88l-2.397-2.966v5.42H7.43V8.667h3.007L13 12.096l2.563-3.43h3.008v10.667h-3.175z" fill="#5C8D52"/></svg>