<svg width="28" height="28" fill="none" xmlns="http://www.w3.org/2000/svg"><path d="M11.9 14h4.2c2.42 0 3.5-1.08 3.5-3.5V5.05a7.763 7.763 0 00-1.4-.543V4.2a4.2 4.2 0 10-8.4 0v.307a7.768 7.768 0 00-1.4.543v5.45c0 2.42 1.08 3.5 3.5 3.5zm-.7-9.8a2.8 2.8 0 115.6 0v.043a7.508 7.508 0 00-.7-.043h-4.2c-.237 0-.469.021-.7.043V4.2z" fill="#5C8D52"/><path d="M21 5.965V10.5c0 3.205-1.694 4.9-4.9 4.9h-4.2c-3.206 0-4.9-1.695-4.9-4.9V5.965A7.688 7.688 0 004.2 11.9v12.6A3.504 3.504 0 007.7 28h12.6a3.504 3.504 0 003.5-3.5V11.9A7.687 7.687 0 0021 5.965zM17.5 22.4h-.7v.7a.7.7 0 01-1.4 0v-.7h-4.9a.7.7 0 110-1.4h7a.7.7 0 010 1.4zm8.4-5.6h-.7v8.33A3.506 3.506 0 0028 21.7v-2.8a2.102 2.102 0 00-2.1-2.1zM0 18.9v2.8a3.505 3.505 0 002.8 3.43V16.8h-.7A2.102 2.102 0 000 18.9z" fill="#5C8D52"/></svg>