<svg width="28" height="26" fill="none" xmlns="http://www.w3.org/2000/svg"><path d="M24.521 18.11l-.98-5.231a5.278 5.278 0 00-5.19-4.333H15.03c.103-2.77-1.064-7.02-6.188-8.508a.936.936 0 00-1.195.898v1.817L2.69 5.242a2.87 2.87 0 00-1.568 2.546c0 1.113.616 2.096 1.606 2.583l2.268 1.085-1.12 6.776-.15-.056A2.786 2.786 0 00.161 19.86a2.797 2.797 0 001.69 3.566l2.52.908A28.53 28.53 0 0014.001 26c3.295 0 6.534-.562 9.623-1.666l2.53-.908c.7-.243 1.26-.758 1.577-1.432a2.78 2.78 0 00-3.21-3.884zm-14.159 1.657c.458-1.647 1.951-2.798 3.65-2.798.756 0 1.484.224 2.11.645.624.43 1.11 1.03 1.39 1.732l.299.748c-2.493.412-5.04.412-7.542.01l.093-.337zm15.68 1.432a.934.934 0 01-.513.468l-2.53.908c-5.776 2.068-12.226 2.068-17.994 0l-2.53-.908a.914.914 0 01-.55-1.17.908.908 0 01.859-.618.87.87 0 01.308.056l2.529.899a25.015 25.015 0 0016.763 0l2.52-.899a.914.914 0 011.176.562.878.878 0 01-.037.702z" fill="#5C8D52"/></svg>