<svg width="98" height="134" fill="none" xmlns="http://www.w3.org/2000/svg"><g clip-path="url(#clip0_26_873)"><path d="M65.83 115.152h24.894v-4.416m-24.894 4.416H49.77m16.06 0v-4.416M91.394 42.4l-.67 11.563v3.616m.67-15.18l2.57-.32m-2.57.32l-17.506.165m17.506-.164l1.064-8.486m1.024-8.164l2.06-3.185m-2.06 3.185l-19.594-9.6m19.594 9.6l-1.024 8.164M42.65 9.048l7.12 1.588m0 104.516v-4.416m0 4.416l-44.754 9.074M49.77 10.636l7.977 1.778m-7.977-1.778V42.64m7.977-30.227L73.379 15.9l.508.25m-16.14-3.736v30.227m0 68.095h8.084m-8.084 0H49.77m7.977 0V65.633m8.084 45.103h24.893m-24.894 0v-7.366m-16.06 7.366V88.332m40.954 22.404v-7.366M65.83 88.332H49.77m16.06 0h24.894m-24.894 0v7.519m0-7.52v-7.534m-16.06 7.535V65.633m40.954 22.699v7.519m0-7.52v-7.534M65.83 73.262h24.894m-24.894 0v-7.629m0 7.629v7.535m24.894-7.535v-7.629m0 7.629v7.535M65.83 65.633h24.894m-24.894 0h-8.083m8.084 0V57.58m24.893 8.054V57.58m0 8.054l2.81-.16m-35.787.16H49.77m7.977 0V42.641M49.77 65.633V42.641m0 22.992h-7.387M65.83 42.641V14.217v28.424zm0 0h-8.083m8.084 0l8.056-.077m-8.056.077v14.938M57.746 42.64H49.77m24.117-.077V25.269m0-9.12v9.12m0 0l18.57 8.645m-68.356 31.72h18.282m0 0V9.85m48.34 93.519H65.832m24.893 0v-7.52m-24.894 7.52v-7.52m0 0h24.894m0-15.053H65.83m24.894-23.218H65.83" stroke="#84AD7C" stroke-width=".37"/><path stroke="#A7C3A1" stroke-width=".268" d="M66.714 66.731h1.445v2.088h-1.445zm1.927 0h1.445v2.088h-1.445zm1.927 0h1.445v2.088h-1.445zm1.928 0h1.445v2.088h-1.445zm1.927 0h1.445v2.088h-1.445zm1.927 0h1.445v2.088H76.35zm1.927 0h1.445v2.088h-1.445zm1.927 0h1.445v2.088h-1.445zm1.928 0h1.445v2.088h-1.445zm1.927 0h1.445v2.088h-1.445zm1.927 0h1.445v2.088h-1.445zm1.927 0h1.445v2.088h-1.445zm-21.199 3.64h1.445v2.088h-1.445zm1.927 0h1.445v2.088h-1.445zm1.927 0h1.445v2.088h-1.445zm1.928 0h1.445v2.088h-1.445zm1.927 0h1.445v2.088h-1.445zm1.927 0h1.445v2.088H76.35zm1.927 0h1.445v2.088h-1.445zm1.927 0h1.445v2.088h-1.445zm1.928 0h1.445v2.088h-1.445zm1.927 0h1.445v2.088h-1.445zm1.927 0h1.445v2.088h-1.445zm1.927 0h1.445v2.088h-1.445zM66.714 58.7h1.445v2.088h-1.445zm1.927 0h1.445v2.088h-1.445zm1.927 0h1.445v2.088h-1.445zm1.928 0h1.445v2.088h-1.445zm1.927 0h1.445v2.088h-1.445zm1.927 0h1.445v2.088H76.35zm1.927 0h1.445v2.088h-1.445zm1.927 0h1.445v2.088h-1.445zm1.928 0h1.445v2.088h-1.445zm1.927 0h1.445v2.088h-1.445zm1.927 0h1.445v2.088h-1.445zm1.927 0h1.445v2.088h-1.445zm-21.199 3.641h1.445v2.088h-1.445zm1.927 0h1.445v2.088h-1.445zm1.927 0h1.445v2.088h-1.445zm1.928 0h1.445v2.088h-1.445zm1.927 0h1.445v2.088h-1.445zm1.927 0h1.445v2.088H76.35zm1.927 0h1.445v2.088h-1.445zm1.927 0h1.445v2.088h-1.445zm1.928 0h1.445v2.088h-1.445zm1.927 0h1.445v2.088h-1.445zm1.927 0h1.445v2.088h-1.445zm1.927 0h1.445v2.088h-1.445zM50.814 45.156V43.71h2.088v1.445zm3.641 0v-1.445h2.088v1.445zm-3.641 1.927v-1.445h2.088v1.445zm3.641 0v-1.445h2.088v1.445zm-3.64 1.927v-1.445h2.088v1.445zm3.64 0v-1.444h2.088v1.445zm-3.64 1.927v-1.445h2.088v1.445zm3.641.001v-1.445h2.088v1.445zm-3.642 1.927V51.42h2.088v1.445zm3.641 0V51.42h2.088v1.445zm-3.64 1.926v-1.445h2.088v1.445zm3.64.001v-1.445h2.088v1.445zm-3.64 1.928v-1.446h2.088v1.445zm3.64 0v-1.445h2.088v1.445zm-3.641 1.926V57.2h2.088v1.445zm3.641 0v-1.445h2.088v1.445zm-3.641 1.928v-1.445h2.088v1.445zm3.641 0V59.13h2.088v1.445zm-3.64 1.927v-1.445h2.088v1.445zm3.64.001v-1.445h2.088v1.445zm-3.641 1.926v-1.445h2.088v1.445zm3.64 0v-1.445h2.088v1.445zm-3.64 3.748v-1.445h2.088v1.445zm3.641 0V66.73h2.088v1.445zm-3.64 1.928v-1.445h2.088v1.445zm3.64 0v-1.445h2.088v1.445zm-3.641 1.928v-1.445h2.088v1.445zm3.64-.001v-1.445h2.088v1.445zm-3.64 1.927v-1.445h2.088v1.445zm3.641 0v-1.445h2.088v1.445zm-3.641 1.928v-1.445h2.088v1.445zm3.641 0V74.44h2.088v1.445zm-3.64 1.927v-1.445h2.088v1.445zm3.64-.001v-1.445h2.088v1.445zm-3.64 1.928v-1.445h2.088v1.445zm3.64 0v-1.446h2.088v1.445zm-3.641 1.927v-1.445h2.088v1.446zm3.64 0v-1.445h2.088v1.445zm-3.64 1.928V82.15h2.088v1.445zm3.64-.001v-1.445h2.088v1.445zm-3.639 1.928v-1.445h2.088v1.445zm3.64-.001v-1.445h2.088v1.445zm-3.641 1.928v-1.445h2.088v1.445zm3.64-.001v-1.445h2.088v1.445zm-3.64 3.212v-1.444h2.088v1.445zm3.641.001v-1.445h2.088v1.445zm-3.64 1.926v-1.445h2.088v1.445zm3.64.001v-1.445h2.088v1.445zm-3.64 1.926V93.07h2.088v1.445zm3.64.001V93.07h2.088v1.445zm-3.641 1.927v-1.445h2.088v1.445zm3.641 0v-1.445h2.088v1.445zm-3.641 1.927v-1.445h2.088v1.445zm3.641.001v-1.446h2.088v1.445zm-3.641 1.926v-1.445h2.088v1.445zm3.641.001v-1.445h2.088v1.445zm-3.641 1.927v-1.446h2.088v1.446zm3.641 0v-1.445h2.088v1.445zm-3.641 1.926v-1.445h2.088v1.446zm3.641.001v-1.445h2.088v1.445zm-3.641 1.926v-1.445h2.088v1.445zm3.641.001v-1.445h2.088v1.445zm-3.641 1.927v-1.445h2.088v1.445zm3.641.001v-1.445h2.088v1.445zm-3.641 1.927v-1.446h2.088v1.446zm3.641 0v-1.445h2.088v1.445zm-3.64-95.345v-1.445h2.088v1.445zm0 1.927V15.07h2.088v1.445zm3.64.001V15.07h2.088v1.445zm-3.641 1.927v-1.445h2.088v1.445zm3.641 0v-1.445h2.088v1.445zm-3.641 1.927v-1.445h2.088v1.445zm3.641 0v-1.445h2.088v1.445zm-3.64 1.926v-1.445h2.088v1.445zm3.64.001v-1.445h2.088v1.445zm-3.64 1.927V22.78h2.088v1.445zm3.64.001V22.78h2.088v1.445zm-3.641 1.925v-1.444h2.088v1.445zm3.641.001v-1.445h2.088v1.445zm-3.641 1.928v-1.445h2.088v1.445zm3.641.001v-1.446h2.088v1.445zm-3.64 1.926v-1.445h2.088v1.445zm3.64.001v-1.445h2.088v1.445zm-3.641 1.926v-1.445h2.088v1.445zm3.641 0v-1.445h2.088v1.445zm-3.641 1.927v-1.444h2.088v1.445zm3.641.001v-1.445h2.088v1.445zm-3.641 1.926v-1.445h2.088v1.445zm3.641.001v-1.445h2.088v1.445zm-3.641 1.927v-1.446h2.088v1.446zm3.641 0V36.27h2.088v1.445zm-3.641 1.927v-1.445h2.088v1.445zm3.64 0v-1.445h2.088v1.445zm-3.64 1.927v-1.445h2.088v1.445zm3.641.001v-1.446h2.088v1.445z"/><path fill="#497540" d="M43.507 26.018v-1.713h1.713v1.713zm0 2.249v-1.713h1.713v1.713zm0 2.247v-1.713h1.713v1.713zm0 2.25V31.05h1.713v1.713zm0 2.247v-1.713h1.713v1.713zm0 2.249v-1.713h1.713v1.713zm0 2.249v-1.713h1.713v1.713zm0 2.249v-1.713h1.713v1.713zm0 2.248v-1.713h1.713v1.713zm0 2.248V44.54h1.713v1.713zm0 2.249V46.79h1.713v1.713zm0 2.247v-1.712h1.713v1.713zm0 2.25v-1.714h1.713V53zm0 2.248v-1.713h1.713v1.713zm0 2.248v-1.713h1.713v1.713zm0 2.248V58.03h1.713v1.713zm0 2.249V60.28h1.713v1.713zm0 2.248v-1.713h1.713v1.713zm-.001 4.497v-1.713h1.713v1.713zm0 2.249v-1.713h1.713v1.713zm.001 2.248v-1.713h1.713v1.713zm-.001 2.248V73.77h1.713v1.713zm.001 2.249V76.02h1.713v1.713zm0 2.248v-1.712h1.713v1.713zm0 2.25v-1.714h1.713v1.713zm0 2.248v-1.713h1.713v1.712zm0 2.247v-1.713h1.713v1.713zm0 2.248V87.26h1.713v1.713zm0 2.249V89.51h1.713v1.713zm0 2.249v-1.713h1.713v1.713zm0 2.249v-1.713h1.713v1.713zm0 2.248v-1.713h1.713v1.713zm0 2.249v-1.713h1.713v1.713zm0 2.248v-1.713h1.713v1.713zm0 2.248V103h1.713v1.713zm0 2.249v-1.713h1.713v1.713zm0 2.248v-1.713h1.713v1.713zm0 2.249v-1.713h1.713v1.713zm0 2.248v-1.713h1.713v1.713z"/><path stroke="#A7C3A1" stroke-width=".268" d="M58.898 16.515V15.07h2.088v1.445zm-.001 1.928v-1.445h2.088v1.445zm3.641 0v-1.445h2.088v1.445zm-3.641 1.927v-1.445h2.088v1.445zm3.641 0v-1.445h2.088v1.445zm-3.64 1.926v-1.445h2.088v1.445zm3.64.001v-1.445h2.088v1.445zm-3.64 1.927V22.78h2.088v1.445zm3.64.001V22.78h2.088v1.445zm-3.641 1.925v-1.444h2.088v1.445zm3.641.001v-1.445h2.088v1.445zm-3.641 1.928v-1.445h2.088v1.445zm3.641.001v-1.446h2.088v1.445zm-3.64 1.926v-1.445h2.088v1.445zm3.64.001v-1.445h2.088v1.445zm-3.641 1.926v-1.445h2.088v1.445zm3.641 0v-1.445h2.088v1.445zm-3.641 1.927v-1.444h2.088v1.445zm3.641.001v-1.445h2.088v1.445zm-3.64 1.926v-1.445h2.087v1.445zm3.64.001v-1.445h2.088v1.445zm-3.64 1.926V36.27h2.087v1.445zm3.64.001V36.27h2.088v1.445zm-3.641 1.927v-1.445h2.088v1.445zm3.64 0v-1.445h2.088v1.445zm-3.64 1.927v-1.445h2.088v1.445zm3.641.001v-1.446h2.088v1.445zm4.443-23.126v-1.445h2.088v1.445zm0 1.926v-1.445h2.088v1.445zm3.64 0v-1.445h2.089v1.445zm-3.639 1.927v-1.445h2.088v1.445zm3.64-.001v-1.445h2.088v1.445zm-3.64 1.929V22.78h2.088v1.445zm3.64-.001V22.78h2.088v1.445zm-3.641 1.928v-1.445h2.088v1.445zm3.64-.002v-1.444h2.088v1.445zm-3.64 1.93v-1.445h2.088v1.445zm3.64-.001v-1.445h2.089v1.445zm-3.639 1.928v-1.445h2.088v1.445zm3.64-.001v-1.445h2.088v1.445zm-3.641 1.928v-1.445h2.088v1.445zm3.64-.001v-1.445h2.088v1.445zm-3.64 1.929v-1.445h2.088v1.445zm3.64-.002v-1.444h2.088v1.445zm-3.64 1.928v-1.445h2.088v1.445zm3.641 0v-1.445h2.088v1.445zm-3.641 1.927V36.27h2.088v1.445zm3.641 0V36.27h2.088v1.445zm-3.642 1.928v-1.445h2.089v1.445zm3.641-.001v-1.445h2.088v1.445zm-3.64 1.928v-1.445h2.088v1.445zm3.64-.001v-1.445h2.088v1.445zm-11.724 3.587V43.71h2.088v1.445zm3.641 0v-1.445h2.088v1.445zm-3.641 1.927v-1.445h2.088v1.445zm3.641 0v-1.445h2.088v1.445zm-3.64 1.927v-1.445h2.088v1.445zm3.64 0v-1.444h2.088v1.445zm-3.64 1.927v-1.445h2.088v1.445zm3.641.001v-1.445h2.088v1.445zm-3.642 1.927V51.42h2.088v1.445zm3.641 0V51.42h2.088v1.445zm-3.64 1.926v-1.445h2.088v1.445zm3.64.001v-1.445h2.088v1.445zm-3.64 1.928v-1.446h2.088v1.445zm3.64 0v-1.445h2.088v1.445zm-3.641 1.926V57.2h2.088v1.445zm3.641 0v-1.445h2.088v1.445zm-3.641 1.928v-1.445h2.088v1.445zm3.641 0V59.13h2.088v1.445zm-3.64 1.927v-1.445h2.088v1.445zm3.64.001v-1.445h2.088v1.445zm-3.641 1.926v-1.445h2.088v1.445zm3.64 0v-1.445h2.088v1.445zm29.391 2.276h1.445v2.088h-1.445zm0 2.65h1.445v2.088h-1.445zm0 2.649h1.445v2.088h-1.445zm0 2.65h1.445v2.088h-1.445zm0 2.65h1.445v2.088h-1.445zm0 2.65h1.445v2.088h-1.445zm0 2.65h1.445v2.088h-1.445zm0 2.65h1.445v2.088h-1.445zm0 2.65h1.445v2.088h-1.445zm0 2.65h1.445v2.088h-1.445zm0 2.65h1.445v2.088h-1.445zm0 2.651h1.445v2.088h-1.445zm0 2.648h1.445v2.088h-1.445zm0 2.651h1.445v2.088h-1.445zm0 2.65h1.445v2.088h-1.445zm0 2.649h1.445v2.088h-1.445zm0 2.651h1.445v2.088h-1.445zm0 2.649h1.445v2.088h-1.445zM47.174 15.07h1.445v2.088h-1.445zm0 4.711h1.445v2.088h-1.445zm0 4.711h1.445v2.088h-1.445zm0 4.711h1.445v2.088h-1.445zm0 4.711h1.445v2.088h-1.445zm0 4.711h1.445v2.088h-1.445zm0 4.711h1.445v2.088h-1.445zm0 4.711h1.445v2.088h-1.445zm0 4.711h1.445v2.088h-1.445zm0 4.711h1.445v2.088h-1.445zm0 4.71h1.445v2.088h-1.445zm0 4.552h1.445v2.088h-1.445zm0 4.122h1.445v2.088h-1.445zm0 4.122h1.445v2.088h-1.445zm0 4.123h1.445v2.088h-1.445zm0 4.121h1.445v2.088h-1.445zm0 4.122h1.445v2.088h-1.445zm0 4.122h1.445v2.088h-1.445zm0 4.122h1.445v2.088h-1.445zm0 4.123h1.445v2.088h-1.445zm0 4.122h1.445v2.088h-1.445zm0 4.122h1.445v2.088h-1.445zm44.754-53.588h1.445v2.088h-1.445zm0 2.65h1.445v2.088h-1.445zm0 2.65h1.445v2.088h-1.445zm0 2.65h1.445v2.088h-1.445zm.391-18.817l1.444.05-.073 2.087-1.444-.05zm-.093 2.648l1.444.05-.073 2.087-1.444-.05zm-.092 2.649l1.444.05-.073 2.087-1.444-.05zm-.093 2.647l1.444.05-.073 2.087-1.444-.05zm2.121-23.035l1.434.176-.254 2.072-1.434-.176zm-.323 2.631l1.434.176-.254 2.072-1.434-.176zm-.322 2.629l1.434.176-.254 2.073-1.434-.177zm-.323 2.631l1.434.176-.254 2.073-1.435-.177zm-.323 2.629l1.434.176-.254 2.073-1.434-.177zm-3.132-5.089l1.434.176-.254 2.073-1.435-.177zm-.323 2.63l1.434.176-.254 2.073-1.434-.177zm-.323 2.629l1.434.176-.254 2.073-1.434-.177zm-.535 4.088l1.443.076-.11 2.085-1.442-.076zm-.145 2.779l1.443.076-.11 2.085-1.442-.076zm-.146 2.78l1.443.076-.11 2.085-1.442-.076zm-.146 2.78l1.443.076-.11 2.085-1.442-.076zm-.145 2.78l1.443.076-.11 2.085-1.442-.076zM75.217 14.41l.633-1.298 1.877.915-.633 1.299zm2.382 1.161l.633-1.299 1.877.916-.634 1.298zm2.381 1.162l.634-1.299 1.877.916-.634 1.298zm2.383 1.162l.633-1.298 1.877.915-.633 1.299zm2.381 1.162l.634-1.299 1.876.916-.633 1.298zm2.382 1.162l.634-1.299 1.876.916-.633 1.298zm2.382 1.161l.633-1.298 1.877.915-.633 1.3zm2.382 1.162l.633-1.298 1.876.915-.633 1.299zm-16.458-2.35l.633-1.299 1.877.916-.634 1.298zm2.382 1.161l.633-1.3 1.877.916-.634 1.299zm2.381 1.163l.633-1.3 1.877.916-.634 1.299zm2.382 1.161l.634-1.299 1.876.915-.633 1.3zm2.381 1.161l.634-1.299 1.877.916-.634 1.298zM87.34 26l.634-1.3 1.877.916-.633 1.299zm2.382 1.162l.634-1.299 1.876.916-.633 1.298zm-14.826-3.169l.633-1.299 1.877.916-.633 1.299zm2.382 1.162l.634-1.299 1.876.916-.633 1.298zm2.382 1.161l.633-1.299 1.877.915-.634 1.3zm2.381 1.161l.634-1.299 1.877.915-.634 1.3zm2.382 1.163l.634-1.299 1.877.916-.634 1.298zm2.382 1.16l.634-1.298 1.876.915-.633 1.299zm2.382 1.163l.633-1.299 1.877.915-.633 1.3zm7.38-7.966l1.264.7-1.012 1.827-1.264-.7zm-1.285 2.318l1.264.7-1.013 1.827-1.263-.7zM58.898 68.176V66.73h2.088v1.445zm3.64 0V66.73h2.088v1.445zm-3.64 1.927V68.66h2.088v1.444zm3.64.001v-1.445h2.088v1.445zm-3.641 1.927v-1.445h2.088v1.445zm3.64 0v-1.445h2.088v1.445zm-3.639 1.927v-1.445h2.088v1.445zm3.64 0v-1.445h2.088v1.445zm-3.64 1.928V74.44h2.088v1.445zm3.64 0V74.44h2.088v1.445zm-3.64 1.926v-1.445h2.088v1.445zm3.641.001v-1.445h2.088v1.445zm-3.641 1.927v-1.446h2.088v1.445zm3.641 0v-1.445h2.088v1.445zm-3.641 1.927v-1.445h2.088v1.445zm3.64 0v-1.445h2.088v1.445zm-3.64 1.927v-1.445h2.088v1.445zm3.64 0V82.15h2.088v1.445zm-3.64 1.927v-1.445h2.088v1.445zm3.64.001v-1.445h2.088v1.445zm-3.641 1.926v-1.445h2.088v1.445zm3.64 0v-1.445h2.088v1.445zm-3.64 3.212v-1.444h2.088v1.445zm3.641.001v-1.445h2.088v1.445zm-3.64 1.926v-1.445h2.088v1.445zm3.64.001v-1.445h2.088v1.445zm-3.64 1.926V93.07h2.088v1.445zm3.64.001V93.07h2.088v1.445zm-3.641 1.927v-1.445h2.088v1.445zm3.641 0v-1.445h2.088v1.445zm-3.641 1.927v-1.445h2.088v1.445zm3.641.001v-1.446h2.088v1.445zm-3.641 1.926v-1.445h2.088v1.445zm3.641.001v-1.445h2.088v1.445zm-3.641 1.927v-1.446h2.088v1.446zm3.641 0v-1.445h2.088v1.445zm-3.641 1.926v-1.445h2.088v1.446zm3.641.001v-1.445h2.088v1.445zm-3.641 1.926v-1.445h2.088v1.445zm3.641.001v-1.445h2.088v1.445zm-3.641 1.927v-1.445h2.088v1.445zm3.641.001v-1.445h2.088v1.445zm-3.641 1.927v-1.446h2.088v1.446zm3.641 0v-1.445h2.088v1.445zm4.176-35.708h1.445v2.088h-1.445zm1.927 0h1.445v2.088h-1.445zm1.927 0h1.445v2.088h-1.445zm1.928 0h1.445v2.088h-1.445zm1.927 0h1.445v2.088h-1.445zm1.927 0h1.445v2.088H76.35zm1.927 0h1.445v2.088h-1.445zm1.927 0h1.445v2.088h-1.445zm1.928 0h1.445v2.088h-1.445zm1.927 0h1.445v2.088h-1.445zm1.927 0h1.445v2.088h-1.445zm1.927 0h1.445v2.088h-1.445zm-21.199 3.64h1.445v2.088h-1.445zm1.927 0h1.445v2.088h-1.445zm1.927 0h1.445v2.088h-1.445zm1.928 0h1.445v2.088h-1.445zm1.927 0h1.445v2.088h-1.445zm1.927 0h1.445v2.088H76.35zm1.927 0h1.445v2.088h-1.445zm1.927 0h1.445v2.088h-1.445zm1.928 0h1.445v2.088h-1.445zm1.927 0h1.445v2.088h-1.445zm1.927 0h1.445v2.088h-1.445zm1.927 0h1.445v2.088h-1.445zM66.714 81.72h1.445v2.088h-1.445zm1.927 0h1.445v2.088h-1.445zm1.927 0h1.445v2.088h-1.445zm1.928 0h1.445v2.088h-1.445zm1.927 0h1.445v2.088h-1.445zm1.927 0h1.445v2.088H76.35zm1.927 0h1.445v2.088h-1.445zm1.927 0h1.445v2.088h-1.445zm1.928 0h1.445v2.088h-1.445zm1.927 0h1.445v2.088h-1.445zm1.927 0h1.445v2.088h-1.445zm1.927 0h1.445v2.088h-1.445zm-21.199 3.64h1.445v2.088h-1.445zm1.927 0h1.445v2.088h-1.445zm1.927 0h1.445v2.088h-1.445zm1.928 0h1.445v2.088h-1.445zm1.927 0h1.445v2.088h-1.445zm1.927 0h1.445v2.088H76.35zm1.927 0h1.445v2.088h-1.445zm1.927 0h1.445v2.088h-1.445zm1.928 0h1.445v2.088h-1.445zm1.927 0h1.445v2.088h-1.445zm1.927 0h1.445v2.088h-1.445zm1.927 0h1.445v2.088h-1.445zm-21.199 3.855h1.445v2.088h-1.445zm1.927 0h1.445v2.088h-1.445zm1.927 0h1.445v2.088h-1.445zm1.928 0h1.445v2.088h-1.445zm1.927 0h1.445v2.088h-1.445zm1.927 0h1.445v2.088H76.35zm1.927 0h1.445v2.088h-1.445zm1.927 0h1.445v2.088h-1.445zm1.928 0h1.445v2.088h-1.445zm1.927 0h1.445v2.088h-1.445zm1.927 0h1.445v2.088h-1.445zm1.927 0h1.445v2.088h-1.445zm-21.199 3.641h1.445v2.088h-1.445zm1.927 0h1.445v2.088h-1.445zm1.927 0h1.445v2.088h-1.445zm1.928 0h1.445v2.088h-1.445zm1.927 0h1.445v2.088h-1.445zm1.927 0h1.445v2.088H76.35zm1.927 0h1.445v2.088h-1.445zm1.927 0h1.445v2.088h-1.445zm1.928 0h1.445v2.088h-1.445zm1.927 0h1.445v2.088h-1.445zm1.927 0h1.445v2.088h-1.445zm1.927 0h1.445v2.088h-1.445zM66.714 96.71h1.445v2.088h-1.445zm1.927 0h1.445v2.088h-1.445zm1.927 0h1.445v2.088h-1.445zm1.928 0h1.445v2.088h-1.445zm1.927 0h1.445v2.088h-1.445zm1.927 0h1.445v2.088H76.35zm1.927 0h1.445v2.088h-1.445zm1.927 0h1.445v2.088h-1.445zm1.928 0h1.445v2.088h-1.445zm1.927 0h1.445v2.088h-1.445zm1.927 0h1.445v2.088h-1.445zm1.927 0h1.445v2.088h-1.445zm-21.199 3.64h1.445v2.088h-1.445zm1.927 0h1.445v2.088h-1.445zm1.927 0h1.445v2.088h-1.445zm1.928 0h1.445v2.088h-1.445zm1.927 0h1.445v2.088h-1.445zm1.927 0h1.445v2.088H76.35zm1.927 0h1.445v2.088h-1.445zm1.927 0h1.445v2.088h-1.445zm1.928 0h1.445v2.088h-1.445zm1.927 0h1.445v2.088h-1.445zm1.927 0h1.445v2.088h-1.445zm1.927 0h1.445v2.088h-1.445zm-21.199 3.854h1.445v2.088h-1.445zm1.927 0h1.445v2.088h-1.445zm1.927 0h1.445v2.088h-1.445zm1.928 0h1.445v2.088h-1.445zm1.927 0h1.445v2.088h-1.445zm1.927 0h1.445v2.088H76.35zm1.927 0h1.445v2.088h-1.445zm1.927 0h1.445v2.088h-1.445zm1.928 0h1.445v2.088h-1.445zm1.927 0h1.445v2.088h-1.445zm1.927 0h1.445v2.088h-1.445zm1.927 0h1.445v2.088h-1.445zm-21.199 3.641h1.445v2.088h-1.445zm1.927 0h1.445v2.088h-1.445zm1.927 0h1.445v2.088h-1.445zm1.928 0h1.445v2.088h-1.445zm1.927 0h1.445v2.088h-1.445zm1.927 0h1.445v2.088H76.35zm1.927 0h1.445v2.088h-1.445zm1.927 0h1.445v2.088h-1.445zm1.928 0h1.445v2.088h-1.445zm1.927 0h1.445v2.088h-1.445zm1.927 0h1.445v2.088h-1.445zm1.927 0h1.445v2.088h-1.445zm-21.199 3.854h1.445v2.088h-1.445zm1.927 0h1.445v2.088h-1.445zm1.927 0h1.445v2.088h-1.445zm1.928 0h1.445v2.088h-1.445zm1.927 0h1.445v2.088h-1.445zm1.927 0h1.445v2.088H76.35zm1.927 0h1.445v2.088h-1.445zm1.927 0h1.445v2.088h-1.445zm1.928 0h1.445v2.088h-1.445zm1.927 0h1.445v2.088h-1.445zm1.927 0h1.445v2.088h-1.445zm1.927 0h1.445v2.088h-1.445zm-37.099 0h1.445v2.088h-1.445zm2.061 0h1.445v2.088h-1.445zm2.061 0h1.445v2.088h-1.445zm2.061 0h1.445v2.088h-1.445zm2.061 0h1.445v2.088h-1.445zm2.062 0h1.445v2.088H61.12zm2.061 0h1.445v2.088h-1.445z"/><path fill="#497540" d="M39.331 32.764V31.05h1.713v1.713zm0 2.248v-1.713h1.713v1.713zm0 2.248v-1.712h1.713v1.713zm0 2.25v-1.714h1.713v1.713zm0 2.248v-1.713h1.713v1.713zm-4.497 6.744V46.79h1.713v1.713zm2.249 0v-1.713h1.713v1.713zm2.248 0V46.79h1.713v1.713zm-4.497 2.249v-1.713h1.713v1.713zm2.249 0v-1.713h1.713v1.713zm2.248 0v-1.713h1.713v1.713zm-6.745 4.497v-1.713h1.713v1.713zm2.248 0v-1.713h1.713v1.713zm2.249 0v-1.713h1.713v1.713zm2.248 0v-1.713h1.713v1.713zm-6.745 2.248v-1.713h1.713v1.713zm2.248 0v-1.713h1.713v1.713zm2.249 0v-1.713h1.713v1.713zm2.248 0v-1.713h1.713v1.713zm-8.994 4.497V60.28h1.713v1.713zm2.249 0V60.28h1.713v1.713zm2.248 0V60.28h1.713v1.713zm2.249-.001V60.28h1.713v1.713zm2.248.001V60.28h1.713v1.713zm-8.994 2.248v-1.713h1.713v1.713zm2.249 0v-1.713h1.713v1.713zm2.248 0v-1.713h1.713v1.713zm2.248-.001v-1.712h1.713v1.713zm2.248.001v-1.713h1.714v1.713zm-11.241 4.497v-1.713h1.713v1.713zm2.248.001v-1.713h1.713v1.713zm2.249-.001v-1.713h1.713v1.713zm2.248.001v-1.713h1.713v1.713zm2.248-.001v-1.713h1.713v1.713zm2.248 0v-1.713h1.714v1.713zm-11.241 2.249v-1.713h1.713v1.713zm2.248.001v-1.713h1.713v1.713zm2.249-.001v-1.713h1.713v1.713zm2.248.001v-1.713h1.713v1.713zm2.249-.001v-1.713h1.713v1.713zm2.247 0v-1.713h1.714v1.713zm-13.489 4.496V73.77h1.713v1.713zm2.249 0V73.77h1.712v1.713zm2.248.001v-1.713h1.713v1.713zm2.248-.001V73.77H34.3v1.714zm2.249.001v-1.713h1.713v1.713zm2.248 0V73.77h1.713v1.713zm2.248 0V73.77h1.713v1.713zM25.84 77.732v-1.713h1.713v1.713zm2.249 0V76.02h1.713v1.713zm2.248.001V76.02h1.713v1.713zm2.248-.001V76.02h1.713v1.713zm2.249.001V76.02h1.713v1.713zm2.248-.001V76.02h1.713v1.713zm2.248.001V76.02h1.714v1.713zm-15.738 4.496v-1.713h1.713v1.713zm2.248-.001v-1.713h1.713v1.713zm2.249 0v-1.713h1.713v1.713zm2.248.001v-1.713h1.713v1.713zm2.249-.001v-1.713h1.713v1.713zm2.248.001v-1.713h1.713v1.713zm2.248-.001v-1.713h1.713v1.713zm2.248 0v-1.712h1.714v1.712zm-15.738 2.248v-1.713h1.713v1.713zm2.248 0v-1.713h1.713v1.713zm2.249 0v-1.713h1.713v1.713zm2.248 0v-1.713h1.713v1.713zm2.249 0v-1.713h1.713v1.713zm2.248 0v-1.713h1.713v1.713zm2.248 0v-1.713h1.713v1.713zm2.249.001v-1.713h1.713v1.713zm-17.987 4.497v-1.713h1.713v1.713zm2.249-.001V87.26h1.713v1.713zm2.247 0V87.26h1.714v1.713zm2.25.001v-1.713h1.712v1.713zm2.248-.001V87.26h1.713v1.713zm2.248.001V87.26h1.713v1.713zm2.249 0V87.26h1.713v1.713zm2.248 0V87.26h1.713v1.713zm2.247 0V87.26h1.714v1.713zm-17.986 2.248v-1.713h1.713v1.713zm2.248 0V89.51h1.713v1.712zm2.248 0v-1.713h1.713v1.713zm2.249 0V89.51h1.713v1.713zm2.248.001V89.51h1.713v1.713zm2.249-.001V89.51h1.713v1.713zm2.248.001V89.51h1.713v1.713zm2.249-.001v-1.713h1.713v1.713zm2.248 0V89.51h1.713v1.713zM19.095 95.72v-1.713h1.713v1.713zm2.249 0v-1.714h1.713v1.713zm2.249 0v-1.713h1.713v1.713zm2.248 0v-1.714h1.713v1.713zm2.249 0v-1.713h1.712v1.713zm2.248 0v-1.713h1.713v1.713zm2.248 0v-1.713H34.3v1.713zm2.249 0v-1.713h1.713v1.713zm2.248 0v-1.713h1.713v1.713zm2.248 0v-1.713h1.713v1.713zm-20.235 2.248v-1.713h1.712v1.713zm2.248 0v-1.713h1.713v1.713zm2.249 0v-1.713h1.712v1.713zm2.247-.001v-1.713h1.714v1.713zm2.25.001v-1.713h1.712v1.713zm2.248 0v-1.713h1.713v1.713zm2.248 0v-1.713H34.3v1.713zm2.249 0v-1.713h1.713v1.713zm2.248 0v-1.713h1.713v1.713zm2.248 0v-1.713h1.713v1.713zm-22.484 4.497v-1.713h1.713v1.713zm2.249 0v-1.713h1.713v1.713zm2.248 0v-1.713h1.713v1.713zm2.249 0v-1.714h1.712v1.713zm2.247 0v-1.713h1.714v1.713zm2.25 0v-1.713h1.712v1.713zm2.248 0v-1.713h1.713v1.713zm2.248 0v-1.713H34.3v1.713zm2.249 0v-1.713h1.713v1.713zm2.248 0v-1.713h1.713v1.713zm2.248 0v-1.713h1.713v1.713zm-22.484 2.248V103h1.713v1.713zm2.249 0V103h1.713v1.713zm2.248 0V103h1.713v1.713zm2.249 0V103h1.713v1.713zm2.247 0V103h1.714v1.713zm2.25 0V103h1.712v1.713zm2.248 0V103h1.713v1.713zm2.248 0V103h1.713v1.713zm2.249 0V103h1.713v1.713zm2.248 0V103h1.713v1.713zm2.248 0V103h1.713v1.713zm-24.733 4.497v-1.713h1.713v1.713zm2.249 0v-1.713h1.713v1.713zm2.248 0v-1.713h1.713v1.713zm2.249 0v-1.713h1.713v1.713zm2.248 0v-1.713h1.713v1.713zm2.248 0v-1.713h1.714v1.713zm2.249 0v-1.713h1.713v1.713zm2.248 0v-1.713h1.713v1.713zm2.249 0v-1.713h1.713v1.713zm2.248 0v-1.713h1.713v1.713zm2.249 0v-1.713h1.713v1.713zm2.248 0v-1.713h1.713v1.713zm-24.733 2.248v-1.713h1.713v1.713zm2.249 0v-1.713h1.713v1.713zm2.248 0v-1.713h1.713v1.713zm2.249 0v-1.713h1.713v1.713zm2.248 0v-1.713h1.713v1.713zm2.248 0v-1.713h1.714v1.713zm2.249 0v-1.713h1.713v1.713zm2.248 0v-1.713h1.713v1.713zm2.249 0v-1.713h1.713v1.713zm2.248 0v-1.713h1.713v1.713zm2.249 0v-1.713h1.713v1.713zm2.248 0v-1.713h1.713v1.713zM12.35 115.42v-1.713h1.713v1.713zm2.249 0v-1.713h1.712v1.714zm2.248 0v-1.713h1.713v1.713zm2.248 0v-1.713h1.713v1.713zm2.249 0v-1.713h1.713v1.713zm2.248 0v-1.713h1.713v1.713zm2.248 0v-1.713h1.714v1.713zm2.249 0v-1.713h1.713v1.713zm2.248 0v-1.712h1.713v1.713zm2.249 0v-1.713h1.713v1.713zm2.248 0v-1.713h1.713v1.713zm2.249 0v-1.713h1.713v1.713zm2.248 0v-1.713h1.713v1.713zm-2.248-71.415v-1.713h1.713v1.713zm2.248 0v-1.713h1.713v1.713z"/><ellipse cx="79.482" cy="34.316" rx="4.818" ry="4.765" fill="#306594"/><rect x="76.591" y="43.791" width="9.422" height="4.872" rx="2.436" fill="#89AF81"/><path d="M67.704 49.145h4.015v1.927h-4.015v-1.928zm.803 1.927h1.178v3.105h-1.178v-3.105zm-.803 3.105h4.015v1.927h-4.015v-1.927zm10.439-4.282h2.945v3.265h-2.945v-3.265zm0 4.389h7.12v1.82h-7.12v-1.82zm0-.856h1.178v.856h-1.178v-.856z" fill="#89AF81"/><path d="M80.927 51.019h1.446v3.265h-1.446V51.02zm3.159 2.409h1.177v.856h-1.177v-.856z" fill="#89AF81"/><path d="M81.623 49.895h3.64v3.265h-3.64v-3.265zm-5.889-9.958h3.426v1.767h-3.426zm6.371 0h3.426v1.767h-3.426zm-2.462.536h2.034v1.231h-2.034z" fill="#89AF81"/></g><defs><clipPath id="clip0_26_873"><path fill="#fff" d="M0 0h98v133.3H0z"/></clipPath></defs></svg>