<svg width="1268" height="944" fill="none" xmlns="http://www.w3.org/2000/svg"><g clip-path="url(#clip0_26_872)"><g clip-path="url(#clip1_26_872)"><path d="M904.831 765.152h24.893v-4.416m-24.893 4.416H888.77m16.061 0v-4.416m25.562-68.336l-.669 11.563v3.616m.669-15.179l2.57-.322m-2.57.322l-17.506.164m17.506-.164l1.064-8.486m1.024-8.164l2.061-3.185m-2.061 3.185l-19.594-9.601m19.594 9.601l-1.024 8.164m-49.807-24.866l7.12 1.588m0 104.516v-4.416m0 4.416l-44.754 9.074m44.754-113.59l7.977 1.778m-7.977-1.778v32.004m7.977-30.226l15.632 3.486.508.249m-16.14-3.735v30.226m0 68.096h8.084m-8.084 0h-7.977m7.977 0v-45.103m8.084 45.103h24.893m-24.893 0v-7.366m-16.061 7.366v-22.404m40.954 22.404v-7.366m-24.893-15.038H888.77m16.061 0h24.893m-24.893 0v7.519m0-7.519v-7.535m-16.061 7.535v-22.699m40.954 22.699v7.519m0-7.519v-7.535m-24.893-7.535h24.893m-24.893 0v-7.629m0 7.629v7.535m24.893-7.535v-7.629m0 7.629v7.535m-24.893-15.164h24.893m-24.893 0h-8.084m8.084 0v-8.054m24.893 8.054v-8.054m0 8.054l2.81-.16m-35.787.16h-7.977m7.977 0V692.64m-7.977 22.993V692.64m0 22.993h-7.387m23.448-22.993v-28.423 28.423zm0 0h-8.084m8.084 0l8.056-.076m-8.056.076v14.939m-8.084-14.939h-7.977m24.117-.076v-17.295m0-9.12v9.12m0 0l18.57 8.645m-68.356 31.719h18.282m0 0v-55.782m48.341 93.519h-24.893m24.893 0v-7.519m-24.893 7.519v-7.519m0 0h24.893m0-15.054h-24.893m24.893-23.218h-24.893" stroke="#84AD7C" stroke-width=".37"/><path stroke="#A7C3A1" stroke-width=".268" d="M905.714 716.731h1.445v2.088h-1.445zm1.927 0h1.445v2.088h-1.445zm1.927 0h1.445v2.088h-1.445zm1.928 0h1.445v2.088h-1.445zm1.927 0h1.445v2.088h-1.445zm1.927 0h1.445v2.088h-1.445zm1.927 0h1.445v2.088h-1.445zm1.927 0h1.445v2.088h-1.445zm1.928 0h1.445v2.088h-1.445zm1.927 0h1.445v2.088h-1.445zm1.927 0h1.445v2.088h-1.445zm1.927 0h1.445v2.088h-1.445zm-21.199 3.64h1.445v2.088h-1.445zm1.927 0h1.445v2.088h-1.445zm1.927 0h1.445v2.088h-1.445zm1.928 0h1.445v2.088h-1.445zm1.927 0h1.445v2.088h-1.445zm1.927 0h1.445v2.088h-1.445zm1.927 0h1.445v2.088h-1.445zm1.927 0h1.445v2.088h-1.445zm1.928 0h1.445v2.088h-1.445zm1.927 0h1.445v2.088h-1.445zm1.927 0h1.445v2.088h-1.445zm1.927 0h1.445v2.088h-1.445zM905.714 708.7h1.445v2.088h-1.445zm1.927 0h1.445v2.088h-1.445zm1.927 0h1.445v2.088h-1.445zm1.928 0h1.445v2.088h-1.445zm1.927 0h1.445v2.088h-1.445zm1.927 0h1.445v2.088h-1.445zm1.927 0h1.445v2.088h-1.445zm1.927 0h1.445v2.088h-1.445zm1.928 0h1.445v2.088h-1.445zm1.927 0h1.445v2.088h-1.445zm1.927 0h1.445v2.088h-1.445zm1.927 0h1.445v2.088h-1.445zm-21.199 3.641h1.445v2.088h-1.445zm1.927 0h1.445v2.088h-1.445zm1.927 0h1.445v2.088h-1.445zm1.928 0h1.445v2.088h-1.445zm1.927 0h1.445v2.088h-1.445zm1.927 0h1.445v2.088h-1.445zm1.927 0h1.445v2.088h-1.445zm1.927 0h1.445v2.088h-1.445zm1.928 0h1.445v2.088h-1.445zm1.927 0h1.445v2.088h-1.445zm1.927 0h1.445v2.088h-1.445zm1.927 0h1.445v2.088h-1.445zm-37.099-17.185v-1.445h2.088v1.445zm3.641 0v-1.445h2.088v1.445zm-3.641 1.927v-1.445h2.088v1.445zm3.641 0v-1.445h2.088v1.445zm-3.641 1.928v-1.445h2.088v1.445zm3.641 0v-1.445h2.088v1.445zm-3.641 1.926v-1.445h2.088v1.445zm3.641 0v-1.445h2.088v1.445zm-3.641 1.928v-1.445h2.088v1.445zm3.641 0v-1.445h2.088v1.445zm-3.641 1.927v-1.445h2.088v1.445zm3.641 0v-1.445h2.088v1.445zm-3.641 1.928v-1.445h2.088v1.445zm3.641 0v-1.445h2.088v1.445zm-3.641 1.926v-1.445h2.088v1.445zm3.641 0v-1.445h2.088v1.445zm-3.641 1.928v-1.445h2.088v1.445zm3.641 0v-1.445h2.088v1.445zm-3.641 1.928v-1.445h2.088v1.445zm3.641 0v-1.445h2.088v1.445zm-3.641 1.926v-1.445h2.088v1.445zm3.641 0v-1.445h2.088v1.445zm-3.641 3.748v-1.445h2.088v1.445zm3.641 0v-1.445h2.088v1.445zm-3.641 1.928v-1.445h2.088v1.445zm3.641 0v-1.445h2.088v1.445zm-3.641 1.927v-1.445h2.088v1.445zm3.641 0v-1.445h2.088v1.445zm-3.641 1.927v-1.445h2.088v1.445zm3.641 0v-1.445h2.088v1.445zm-3.641 1.928v-1.445h2.088v1.445zm3.641 0v-1.445h2.088v1.445zm-3.641 1.926v-1.445h2.088v1.445zm3.641 0v-1.445h2.088v1.445zm-3.641 1.927v-1.445h2.088v1.445zm3.641 0v-1.445h2.088v1.445zm-3.641 1.928v-1.445h2.088v1.445zm3.641 0v-1.445h2.088v1.445zm-3.641 1.927v-1.445h2.088v1.445zm3.641 0v-1.445h2.088v1.445zm-3.641 1.928v-1.445h2.088v1.445zm3.641 0v-1.445h2.088v1.445zm-3.641 1.926v-1.445h2.088v1.445zm3.641 0v-1.445h2.088v1.445zm-3.641 3.213v-1.445h2.088v1.445zm3.641 0v-1.445h2.088v1.445zm-3.641 1.927v-1.445h2.088v1.445zm3.641 0v-1.445h2.088v1.445zm-3.641 1.927v-1.445h2.088v1.445zm3.641 0v-1.445h2.088v1.445zm-3.641 1.927v-1.445h2.088v1.445zm3.641 0v-1.445h2.088v1.445zm-3.641 1.927v-1.445h2.088v1.445zm3.641 0v-1.445h2.088v1.445zm-3.641 1.928v-1.445h2.088v1.445zm3.641 0v-1.445h2.088v1.445zm-3.641 1.927v-1.445h2.088v1.445zm3.641 0v-1.445h2.088v1.445zm-3.641 1.927v-1.445h2.088v1.445zm3.641 0v-1.445h2.088v1.445zm-3.641 1.927v-1.445h2.088v1.445zm3.641 0v-1.445h2.088v1.445zm-3.641 1.928v-1.445h2.088v1.445zm3.641 0v-1.445h2.088v1.445zm-3.641 1.927v-1.445h2.088v1.445zm3.641 0v-1.445h2.088v1.445zm-3.641-95.344v-1.445h2.088v1.445zm0 1.927v-1.445h2.088v1.445zm3.641 0v-1.445h2.088v1.445zm-3.641 1.927v-1.445h2.088v1.445zm3.641 0v-1.445h2.088v1.445zm-3.641 1.927v-1.445h2.088v1.445zm3.641 0v-1.445h2.088v1.445zm-3.641 1.927v-1.445h2.088v1.445zm3.641 0v-1.445h2.088v1.445zm-3.641 1.928v-1.445h2.088v1.445zm3.641 0v-1.445h2.088v1.445zm-3.641 1.926v-1.445h2.088v1.445zm3.641 0v-1.445h2.088v1.445zm-3.641 1.928v-1.445h2.088v1.445zm3.641 0v-1.445h2.088v1.445zm-3.641 1.928v-1.445h2.088v1.445zm3.641 0v-1.445h2.088v1.445zm-3.641 1.926v-1.445h2.088v1.445zm3.641 0v-1.445h2.088v1.445zm-3.641 1.928v-1.445h2.088v1.445zm3.641 0v-1.445h2.088v1.445zm-3.641 1.927v-1.445h2.088v1.445zm3.641 0v-1.445h2.088v1.445zm-3.641 1.927v-1.445h2.088v1.445zm3.641 0v-1.445h2.088v1.445zm-3.641 1.928v-1.445h2.088v1.445zm3.641 0v-1.445h2.088v1.445zm-3.641 1.926v-1.445h2.088v1.445zm3.641 0v-1.445h2.088v1.445z"/><path fill="#497540" d="M882.507 676.019v-1.713h1.713v1.713zm0 2.248v-1.713h1.713v1.713zm0 2.248v-1.713h1.713v1.713zm0 2.249v-1.713h1.713v1.713zm0 2.248v-1.713h1.713v1.713zm0 2.249v-1.713h1.713v1.713zm0 2.248v-1.713h1.713v1.713zm0 2.249v-1.713h1.713v1.713zm0 2.248v-1.713h1.713v1.713zm0 2.248v-1.713h1.713v1.713zm0 2.249v-1.713h1.713v1.713zm0 2.248v-1.713h1.713v1.713zm0 2.248v-1.713h1.713v1.713zm0 2.249v-1.713h1.713v1.713zm0 2.248v-1.713h1.713v1.713zm0 2.248v-1.713h1.713v1.713zm0 2.249v-1.713h1.713v1.713zm0 2.248v-1.713h1.713v1.713zm0 4.497v-1.713h1.713v1.713zm0 2.249v-1.713h1.713v1.713zm0 2.248v-1.713h1.713v1.713zm0 2.248v-1.713h1.713v1.713zm0 2.249v-1.713h1.713v1.713zm0 2.249v-1.713h1.713v1.713zm0 2.248v-1.713h1.713v1.713zm0 2.249v-1.713h1.713v1.713zm0 2.248v-1.713h1.713v1.713zm0 2.248v-1.713h1.713v1.713zm0 2.249v-1.713h1.713v1.713zm0 2.248v-1.713h1.713v1.713zm0 2.249v-1.713h1.713v1.713zm0 2.248v-1.713h1.713v1.713zm0 2.249v-1.713h1.713v1.713zm0 2.248v-1.713h1.713v1.713zm0 2.248V753h1.713v1.713zm0 2.249v-1.713h1.713v1.713zm0 2.248v-1.713h1.713v1.713zm0 2.249v-1.713h1.713v1.713zm0 2.248v-1.713h1.713v1.713z"/><path stroke="#A7C3A1" stroke-width=".268" d="M897.898 666.516v-1.445h2.088v1.445zm0 1.927v-1.445h2.088v1.445zm3.64 0v-1.445h2.088v1.445zm-3.64 1.927v-1.445h2.088v1.445zm3.64 0v-1.445h2.088v1.445zm-3.64 1.927v-1.445h2.088v1.445zm3.64 0v-1.445h2.088v1.445zm-3.64 1.928v-1.445h2.088v1.445zm3.64 0v-1.445h2.088v1.445zm-3.64 1.926v-1.445h2.088v1.445zm3.64 0v-1.445h2.088v1.445zm-3.64 1.928v-1.445h2.088v1.445zm3.64 0v-1.445h2.088v1.445zm-3.64 1.928v-1.445h2.088v1.445zm3.64 0v-1.445h2.088v1.445zm-3.64 1.926v-1.445h2.088v1.445zm3.64 0v-1.445h2.088v1.445zm-3.64 1.928v-1.445h2.088v1.445zm3.64 0v-1.445h2.088v1.445zm-3.64 1.927v-1.445h2.088v1.445zm3.64 0v-1.445h2.088v1.445zm-3.64 1.927v-1.445h2.088v1.445zm3.64 0v-1.445h2.088v1.445zm-3.64 1.928v-1.445h2.088v1.445zm3.64 0v-1.445h2.088v1.445zm-3.64 1.926v-1.445h2.088v1.445zm3.64 0v-1.445h2.088v1.445zm4.443-23.126v-1.445h2.088v1.445zm0 1.927v-1.445h2.088v1.445zm3.641 0v-1.445h2.088v1.445zm-3.641 1.927v-1.445h2.088v1.445zm3.641 0v-1.445h2.088v1.445zm-3.641 1.928v-1.445h2.088v1.445zm3.641 0v-1.445h2.088v1.445zm-3.641 1.926v-1.445h2.088v1.445zm3.641 0v-1.445h2.088v1.445zm-3.641 1.928v-1.445h2.088v1.445zm3.641 0v-1.445h2.088v1.445zm-3.641 1.928v-1.445h2.088v1.445zm3.641 0v-1.445h2.088v1.445zm-3.641 1.926v-1.445h2.088v1.445zm3.641 0v-1.445h2.088v1.445zm-3.641 1.928v-1.445h2.088v1.445zm3.641 0v-1.445h2.088v1.445zm-3.641 1.927v-1.445h2.088v1.445zm3.641 0v-1.445h2.088v1.445zm-3.641 1.927v-1.445h2.088v1.445zm3.641 0v-1.445h2.088v1.445zm-3.641 1.928v-1.445h2.088v1.445zm3.641 0v-1.445h2.088v1.445zm-3.641 1.926v-1.445h2.088v1.445zm3.641 0v-1.445h2.088v1.445zm-11.724 3.587v-1.445h2.088v1.445zm3.64 0v-1.445h2.088v1.445zm-3.64 1.927v-1.445h2.088v1.445zm3.64 0v-1.445h2.088v1.445zm-3.64 1.928v-1.445h2.088v1.445zm3.64 0v-1.445h2.088v1.445zm-3.64 1.926v-1.445h2.088v1.445zm3.64 0v-1.445h2.088v1.445zm-3.64 1.928v-1.445h2.088v1.445zm3.64 0v-1.445h2.088v1.445zm-3.64 1.927v-1.445h2.088v1.445zm3.64 0v-1.445h2.088v1.445zm-3.64 1.928v-1.445h2.088v1.445zm3.64 0v-1.445h2.088v1.445zm-3.64 1.926v-1.445h2.088v1.445zm3.64 0v-1.445h2.088v1.445zm-3.64 1.928v-1.445h2.088v1.445zm3.64 0v-1.445h2.088v1.445zm-3.64 1.928v-1.445h2.088v1.445zm3.64 0v-1.445h2.088v1.445zm-3.64 1.926v-1.445h2.088v1.445zm3.64 0v-1.445h2.088v1.445zm29.39 2.276h1.445v2.088h-1.445zm0 2.65h1.445v2.088h-1.445zm0 2.649h1.445v2.088h-1.445zm0 2.65h1.445v2.088h-1.445zm0 2.65h1.445v2.088h-1.445zm0 2.65h1.445v2.088h-1.445zm0 2.65h1.445v2.088h-1.445zm0 2.65h1.445v2.088h-1.445zm0 2.65h1.445v2.088h-1.445zm0 2.65h1.445v2.088h-1.445zm0 2.65h1.445v2.088h-1.445zm0 2.651h1.445v2.088h-1.445zm0 2.648h1.445v2.088h-1.445zm0 2.651h1.445v2.088h-1.445zm0 2.65h1.445v2.088h-1.445zm0 2.649h1.445v2.088h-1.445zm0 2.651h1.445v2.088h-1.445zm0 2.649h1.445v2.088h-1.445zm-44.754-96.682h1.445v2.088h-1.445zm0 4.711h1.445v2.088h-1.445zm0 4.711h1.445v2.088h-1.445zm0 4.711h1.445v2.088h-1.445zm0 4.711h1.445v2.088h-1.445zm0 4.711h1.445v2.088h-1.445zm0 4.71h1.445v2.088h-1.445zm0 4.712h1.445v2.088h-1.445zm0 4.711h1.445v2.088h-1.445zm0 4.711h1.445v2.088h-1.445zm0 4.71h1.445v2.088h-1.445zm0 4.552h1.445v2.088h-1.445zm0 4.122h1.445v2.088h-1.445zm0 4.122h1.445v2.088h-1.445zm0 4.123h1.445v2.088h-1.445zm0 4.121h1.445v2.088h-1.445zm0 4.122h1.445v2.088h-1.445zm0 4.122h1.445v2.088h-1.445zm0 4.122h1.445v2.088h-1.445zm0 4.123h1.445v2.088h-1.445zm0 4.122h1.445v2.088h-1.445zm0 4.122h1.445v2.088h-1.445zm44.754-53.588h1.445v2.088h-1.445zm0 2.65h1.445v2.088h-1.445zm0 2.65h1.445v2.088h-1.445zm0 2.65h1.445v2.088h-1.445zm.391-18.817l1.444.05-.073 2.087-1.444-.05zm-.093 2.648l1.444.05-.073 2.087-1.444-.05zm-.092 2.649l1.444.05-.073 2.087-1.444-.05zm-.093 2.647l1.444.05-.073 2.087-1.444-.05zm2.121-23.035l1.434.176-.254 2.073-1.434-.177zm-.323 2.631l1.434.176-.254 2.073-1.434-.177zm-.322 2.629l1.434.176-.254 2.073-1.434-.177zm-.323 2.631l1.434.176-.254 2.073-1.434-.177zm-.323 2.629l1.434.176-.254 2.073-1.434-.177zm-3.132-5.089l1.434.176-.254 2.073-1.434-.177zm-.323 2.63l1.434.176-.254 2.073-1.434-.177zm-.323 2.629l1.434.176-.254 2.073-1.434-.177zm-.535 4.088l1.443.076-.11 2.085-1.442-.076zm-.145 2.779l1.443.076-.11 2.085-1.442-.076zm-.146 2.78l1.443.076-.11 2.085-1.442-.076zm-.146 2.78l1.443.076-.11 2.085-1.442-.076zm-.145 2.78l1.443.076-.11 2.085-1.442-.076zm-12.759-39.893l.633-1.299 1.877.916-.633 1.298zm2.382 1.161l.633-1.299 1.877.916-.633 1.298zm2.382 1.163l.633-1.299 1.877.916-.633 1.298zm2.382 1.162l.633-1.299 1.877.916-.633 1.298zm2.381 1.161l.633-1.299 1.877.916-.633 1.298zm2.382 1.162l.633-1.299 1.877.916-.633 1.298zm2.382 1.162l.633-1.299 1.877.916-.633 1.298zm2.382 1.161l.633-1.299 1.877.916-.633 1.298zm-16.458-2.35l.633-1.299 1.877.916-.633 1.298zm2.381 1.161l.633-1.299 1.877.916-.633 1.298zm2.382 1.163l.633-1.299 1.877.916-.633 1.298zm2.382 1.161l.633-1.299 1.877.916-.633 1.298zm2.382 1.162l.633-1.299 1.877.916-.633 1.298zm2.382 1.161l.633-1.299 1.877.916-.633 1.298zm2.381 1.162l.633-1.299 1.877.916-.633 1.298zm-14.826-3.169l.633-1.299 1.877.916-.633 1.298zm2.382 1.162l.633-1.299 1.877.916-.633 1.298zm2.382 1.161l.633-1.299 1.877.916-.633 1.298zm2.382 1.161l.633-1.299 1.877.916-.633 1.298zm2.381 1.163l.633-1.299 1.877.916-.633 1.298zm2.382 1.161l.633-1.299 1.877.916-.633 1.298zm2.382 1.162l.633-1.299 1.877.916-.633 1.298zm7.38-7.966l1.264.7-1.012 1.827-1.264-.7zm-1.285 2.318l1.264.7-1.012 1.827-1.264-.7zm-36.384 42.861v-1.445h2.088v1.445zm3.64 0v-1.445h2.088v1.445zm-3.64 1.928v-1.445h2.088v1.445zm3.64 0v-1.445h2.088v1.445zm-3.64 1.927v-1.445h2.088v1.445zm3.64 0v-1.445h2.088v1.445zm-3.64 1.927v-1.445h2.088v1.445zm3.64 0v-1.445h2.088v1.445zm-3.64 1.928v-1.445h2.088v1.445zm3.64 0v-1.445h2.088v1.445zm-3.64 1.926v-1.445h2.088v1.445zm3.64 0v-1.445h2.088v1.445zm-3.64 1.927v-1.445h2.088v1.445zm3.64 0v-1.445h2.088v1.445zm-3.64 1.928v-1.445h2.088v1.445zm3.64 0v-1.445h2.088v1.445zm-3.64 1.927v-1.445h2.088v1.445zm3.64 0v-1.445h2.088v1.445zm-3.64 1.928v-1.445h2.088v1.445zm3.64 0v-1.445h2.088v1.445zm-3.64 1.926v-1.445h2.088v1.445zm3.64 0v-1.445h2.088v1.445zm-3.64 3.213v-1.445h2.088v1.445zm3.64 0v-1.445h2.088v1.445zm-3.64 1.927v-1.445h2.088v1.445zm3.64 0v-1.445h2.088v1.445zm-3.64 1.927v-1.445h2.088v1.445zm3.64 0v-1.445h2.088v1.445zm-3.64 1.927v-1.445h2.088v1.445zm3.64 0v-1.445h2.088v1.445zm-3.64 1.927v-1.445h2.088v1.445zm3.64 0v-1.445h2.088v1.445zm-3.64 1.928v-1.445h2.088v1.445zm3.64 0v-1.445h2.088v1.445zm-3.64 1.927v-1.445h2.088v1.445zm3.64 0v-1.445h2.088v1.445zm-3.64 1.927v-1.445h2.088v1.445zm3.64 0v-1.445h2.088v1.445zm-3.64 1.927v-1.445h2.088v1.445zm3.64 0v-1.445h2.088v1.445zm-3.64 1.928v-1.445h2.088v1.445zm3.64 0v-1.445h2.088v1.445zm-3.64 1.927v-1.445h2.088v1.445zm3.64 0v-1.445h2.088v1.445zm4.176-35.708h1.445v2.088h-1.445zm1.927 0h1.445v2.088h-1.445zm1.927 0h1.445v2.088h-1.445zm1.928 0h1.445v2.088h-1.445zm1.927 0h1.445v2.088h-1.445zm1.927 0h1.445v2.088h-1.445zm1.927 0h1.445v2.088h-1.445zm1.927 0h1.445v2.088h-1.445zm1.928 0h1.445v2.088h-1.445zm1.927 0h1.445v2.088h-1.445zm1.927 0h1.445v2.088h-1.445zm1.927 0h1.445v2.088h-1.445zm-21.199 3.64h1.445v2.088h-1.445zm1.927 0h1.445v2.088h-1.445zm1.927 0h1.445v2.088h-1.445zm1.928 0h1.445v2.088h-1.445zm1.927 0h1.445v2.088h-1.445zm1.927 0h1.445v2.088h-1.445zm1.927 0h1.445v2.088h-1.445zm1.927 0h1.445v2.088h-1.445zm1.928 0h1.445v2.088h-1.445zm1.927 0h1.445v2.088h-1.445zm1.927 0h1.445v2.088h-1.445zm1.927 0h1.445v2.088h-1.445zm-21.199 3.855h1.445v2.088h-1.445zm1.927 0h1.445v2.088h-1.445zm1.927 0h1.445v2.088h-1.445zm1.928 0h1.445v2.088h-1.445zm1.927 0h1.445v2.088h-1.445zm1.927 0h1.445v2.088h-1.445zm1.927 0h1.445v2.088h-1.445zm1.927 0h1.445v2.088h-1.445zm1.928 0h1.445v2.088h-1.445zm1.927 0h1.445v2.088h-1.445zm1.927 0h1.445v2.088h-1.445zm1.927 0h1.445v2.088h-1.445zm-21.199 3.64h1.445v2.088h-1.445zm1.927 0h1.445v2.088h-1.445zm1.927 0h1.445v2.088h-1.445zm1.928 0h1.445v2.088h-1.445zm1.927 0h1.445v2.088h-1.445zm1.927 0h1.445v2.088h-1.445zm1.927 0h1.445v2.088h-1.445zm1.927 0h1.445v2.088h-1.445zm1.928 0h1.445v2.088h-1.445zm1.927 0h1.445v2.088h-1.445zm1.927 0h1.445v2.088h-1.445zm1.927 0h1.445v2.088h-1.445zm-21.199 3.855h1.445v2.088h-1.445zm1.927 0h1.445v2.088h-1.445zm1.927 0h1.445v2.088h-1.445zm1.928 0h1.445v2.088h-1.445zm1.927 0h1.445v2.088h-1.445zm1.927 0h1.445v2.088h-1.445zm1.927 0h1.445v2.088h-1.445zm1.927 0h1.445v2.088h-1.445zm1.928 0h1.445v2.088h-1.445zm1.927 0h1.445v2.088h-1.445zm1.927 0h1.445v2.088h-1.445zm1.927 0h1.445v2.088h-1.445zm-21.199 3.641h1.445v2.088h-1.445zm1.927 0h1.445v2.088h-1.445zm1.927 0h1.445v2.088h-1.445zm1.928 0h1.445v2.088h-1.445zm1.927 0h1.445v2.088h-1.445zm1.927 0h1.445v2.088h-1.445zm1.927 0h1.445v2.088h-1.445zm1.927 0h1.445v2.088h-1.445zm1.928 0h1.445v2.088h-1.445zm1.927 0h1.445v2.088h-1.445zm1.927 0h1.445v2.088h-1.445zm1.927 0h1.445v2.088h-1.445zm-21.199 3.854h1.445v2.088h-1.445zm1.927 0h1.445v2.088h-1.445zm1.927 0h1.445v2.088h-1.445zm1.928 0h1.445v2.088h-1.445zm1.927 0h1.445v2.088h-1.445zm1.927 0h1.445v2.088h-1.445zm1.927 0h1.445v2.088h-1.445zm1.927 0h1.445v2.088h-1.445zm1.928 0h1.445v2.088h-1.445zm1.927 0h1.445v2.088h-1.445zm1.927 0h1.445v2.088h-1.445zm1.927 0h1.445v2.088h-1.445zm-21.199 3.64h1.445v2.088h-1.445zm1.927 0h1.445v2.088h-1.445zm1.927 0h1.445v2.088h-1.445zm1.928 0h1.445v2.088h-1.445zm1.927 0h1.445v2.088h-1.445zm1.927 0h1.445v2.088h-1.445zm1.927 0h1.445v2.088h-1.445zm1.927 0h1.445v2.088h-1.445zm1.928 0h1.445v2.088h-1.445zm1.927 0h1.445v2.088h-1.445zm1.927 0h1.445v2.088h-1.445zm1.927 0h1.445v2.088h-1.445zm-21.199 3.854h1.445v2.088h-1.445zm1.927 0h1.445v2.088h-1.445zm1.927 0h1.445v2.088h-1.445zm1.928 0h1.445v2.088h-1.445zm1.927 0h1.445v2.088h-1.445zm1.927 0h1.445v2.088h-1.445zm1.927 0h1.445v2.088h-1.445zm1.927 0h1.445v2.088h-1.445zm1.928 0h1.445v2.088h-1.445zm1.927 0h1.445v2.088h-1.445zm1.927 0h1.445v2.088h-1.445zm1.927 0h1.445v2.088h-1.445zm-21.199 3.641h1.445v2.088h-1.445zm1.927 0h1.445v2.088h-1.445zm1.927 0h1.445v2.088h-1.445zm1.928 0h1.445v2.088h-1.445zm1.927 0h1.445v2.088h-1.445zm1.927 0h1.445v2.088h-1.445zm1.927 0h1.445v2.088h-1.445zm1.927 0h1.445v2.088h-1.445zm1.928 0h1.445v2.088h-1.445zm1.927 0h1.445v2.088h-1.445zm1.927 0h1.445v2.088h-1.445zm1.927 0h1.445v2.088h-1.445zm-21.199 3.854h1.445v2.088h-1.445zm1.927 0h1.445v2.088h-1.445zm1.927 0h1.445v2.088h-1.445zm1.928 0h1.445v2.088h-1.445zm1.927 0h1.445v2.088h-1.445zm1.927 0h1.445v2.088h-1.445zm1.927 0h1.445v2.088h-1.445zm1.927 0h1.445v2.088h-1.445zm1.928 0h1.445v2.088h-1.445zm1.927 0h1.445v2.088h-1.445zm1.927 0h1.445v2.088h-1.445zm1.927 0h1.445v2.088h-1.445zm-37.099 0h1.445v2.088h-1.445zm2.061 0h1.445v2.088h-1.445zm2.061 0h1.445v2.088h-1.445zm2.061 0h1.445v2.088h-1.445zm2.061 0h1.445v2.088h-1.445zm2.062 0h1.445v2.088h-1.445zm2.06 0h1.445v2.088h-1.445z"/><path fill="#497540" d="M878.331 682.764v-1.713h1.713v1.713zm0 2.248v-1.713h1.713v1.713zm0 2.249v-1.713h1.713v1.713zm0 2.248v-1.713h1.713v1.713zm0 2.249v-1.713h1.713v1.713zm-4.497 6.744v-1.713h1.713v1.713zm2.249 0v-1.713h1.713v1.713zm2.248 0v-1.713h1.713v1.713zm-4.497 2.249v-1.713h1.713v1.713zm2.249 0v-1.713h1.713v1.713zm2.248 0v-1.713h1.713v1.713zm-6.745 4.497v-1.713h1.713v1.713zm2.248 0v-1.713h1.713v1.713zm2.249 0v-1.713h1.713v1.713zm2.248 0v-1.713h1.713v1.713zm-6.745 2.248v-1.713h1.713v1.713zm2.248 0v-1.713h1.713v1.713zm2.249 0v-1.713h1.713v1.713zm2.248 0v-1.713h1.713v1.713zm-8.994 4.497v-1.713h1.713v1.713zm2.249 0v-1.713h1.713v1.713zm2.248 0v-1.713h1.713v1.713zm2.249 0v-1.713h1.713v1.713zm2.248 0v-1.713h1.713v1.713zm-8.994 2.248v-1.713h1.713v1.713zm2.249 0v-1.713h1.713v1.713zm2.248 0v-1.713h1.713v1.713zm2.249 0v-1.713h1.713v1.713zm2.248 0v-1.713h1.713v1.713zm-11.242 4.497v-1.713h1.713v1.713zm2.249 0v-1.713h1.713v1.713zm2.248 0v-1.713h1.713v1.713zm2.248 0v-1.713h1.713v1.713zm2.249 0v-1.713h1.713v1.713zm2.248 0v-1.713h1.713v1.713zm-11.242 2.249v-1.713h1.713v1.713zm2.248 0v-1.713h1.713v1.713zm2.249 0v-1.713h1.713v1.713zm2.248 0v-1.713h1.713v1.713zm2.249 0v-1.713h1.713v1.713zm2.248 0v-1.713h1.713v1.713zm-13.49 4.497v-1.713h1.713v1.713zm2.248 0v-1.713h1.713v1.713zm2.248 0v-1.713h1.713v1.713zm2.249 0v-1.713h1.713v1.713zm2.248 0v-1.713h1.713v1.713zm2.249 0v-1.713h1.713v1.713zm2.248 0v-1.713h1.713v1.713zm-13.49 2.248v-1.713h1.713v1.713zm2.248 0v-1.713h1.713v1.713zm2.249 0v-1.713h1.713v1.713zm2.248 0v-1.713h1.713v1.713zm2.248 0v-1.713h1.713v1.713zm2.249 0v-1.713h1.713v1.713zm2.248 0v-1.713h1.713v1.713zm-15.739 4.496v-1.713h1.713v1.713zm2.249 0v-1.713h1.713v1.713zm2.248 0v-1.713h1.713v1.713zm2.249 0v-1.713h1.713v1.713zm2.248 0v-1.713h1.713v1.713zm2.248 0v-1.713h1.713v1.713zm2.249 0v-1.713h1.713v1.713zm2.248 0v-1.713h1.713v1.713zm-15.739 2.248v-1.713h1.713v1.713zm2.249 0v-1.713h1.713v1.713zm2.248 0v-1.713h1.713v1.713zm2.248 0v-1.713h1.713v1.713zm2.249 0v-1.713h1.713v1.713zm2.248 0v-1.713h1.713v1.713zm2.249 0v-1.713h1.713v1.713zm2.248 0v-1.713h1.713v1.713zm-17.987 4.498v-1.713h1.713v1.713zm2.249 0v-1.713h1.713v1.713zm2.248 0v-1.713h1.713v1.713zm2.248 0v-1.713h1.713v1.713zm2.249 0v-1.713h1.713v1.713zm2.248 0v-1.713h1.713v1.713zm2.249 0v-1.713h1.713v1.713zm2.248 0v-1.713h1.713v1.713zm2.248 0v-1.713h1.713v1.713zm-17.987 2.248v-1.713h1.713v1.713zm2.248 0v-1.713h1.713v1.713zm2.249 0v-1.713h1.713v1.713zm2.248 0v-1.713h1.713v1.713zm2.249 0v-1.713h1.713v1.713zm2.248 0v-1.713h1.713v1.713zm2.248 0v-1.713h1.713v1.713zm2.249 0v-1.713h1.713v1.713zm2.248 0v-1.713h1.713v1.713zm-20.236 4.498v-1.713h1.713v1.713zm2.249 0v-1.713h1.713v1.713zm2.248 0v-1.713h1.713v1.713zm2.249 0v-1.713h1.713v1.713zm2.248 0v-1.713h1.713v1.713zm2.248 0v-1.713h1.713v1.713zm2.249 0v-1.713h1.713v1.713zm2.248 0v-1.713h1.713v1.713zm2.249 0v-1.713h1.713v1.713zm2.248 0v-1.713h1.713v1.713zm-20.236 2.248v-1.713h1.713v1.713zm2.249 0v-1.713h1.713v1.713zm2.248 0v-1.713h1.713v1.713zm2.249 0v-1.713h1.713v1.713zm2.248 0v-1.713h1.713v1.713zm2.249 0v-1.713h1.713v1.713zm2.248 0v-1.713h1.713v1.713zm2.248 0v-1.713h1.713v1.713zm2.249 0v-1.713h1.713v1.713zm2.248 0v-1.713h1.713v1.713zm-22.484 4.497v-1.713h1.713v1.713zm2.249 0v-1.713h1.713v1.713zm2.248 0v-1.713h1.713v1.713zm2.249 0v-1.713h1.713v1.713zm2.248 0v-1.713h1.713v1.713zm2.248 0v-1.713h1.713v1.713zm2.249 0v-1.713h1.713v1.713zm2.248 0v-1.713h1.713v1.713zm2.249 0v-1.713h1.713v1.713zm2.248 0v-1.713h1.713v1.713zm2.248 0v-1.713h1.713v1.713zm-22.484 2.248V753h1.713v1.713zm2.249 0V753h1.713v1.713zm2.248 0V753h1.713v1.713zm2.249 0V753h1.713v1.713zm2.248 0V753h1.713v1.713zm2.248 0V753h1.713v1.713zm2.249 0V753h1.713v1.713zm2.248 0V753h1.713v1.713zm2.249 0V753h1.713v1.713zm2.248 0V753h1.713v1.713zm2.248 0V753h1.713v1.713zm-24.733 4.497v-1.713h1.713v1.713zm2.249 0v-1.713h1.713v1.713zm2.248 0v-1.713h1.713v1.713zm2.249 0v-1.713h1.713v1.713zm2.248 0v-1.713h1.713v1.713zm2.249 0v-1.713h1.713v1.713zm2.248 0v-1.713h1.713v1.713zm2.248 0v-1.713h1.713v1.713zm2.249 0v-1.713h1.713v1.713zm2.248 0v-1.713h1.713v1.713zm2.249 0v-1.713h1.713v1.713zm2.248 0v-1.713h1.713v1.713zm-24.733 2.248v-1.713h1.713v1.713zm2.249 0v-1.713h1.713v1.713zm2.248 0v-1.713h1.713v1.713zm2.249 0v-1.713h1.713v1.713zm2.248 0v-1.713h1.713v1.713zm2.249 0v-1.713h1.713v1.713zm2.248 0v-1.713h1.713v1.713zm2.248 0v-1.713h1.713v1.713zm2.249 0v-1.713h1.713v1.713zm2.248 0v-1.713h1.713v1.713zm2.249 0v-1.713h1.713v1.713zm2.248 0v-1.713h1.713v1.713zm-26.981 3.962v-1.713h1.713v1.713zm2.249 0v-1.713h1.713v1.713zm2.248 0v-1.713h1.713v1.713zm2.248 0v-1.713h1.713v1.713zm2.249 0v-1.713h1.713v1.713zm2.248 0v-1.713h1.713v1.713zm2.249 0v-1.713h1.713v1.713zm2.248 0v-1.713h1.713v1.713zm2.249 0v-1.713h1.713v1.713zm2.248 0v-1.713h1.713v1.713zm2.248 0v-1.713h1.713v1.713zm2.249 0v-1.713h1.713v1.713zm2.248 0v-1.713h1.713v1.713zm-2.248-71.415v-1.713h1.713v1.713zm2.248 0v-1.713h1.713v1.713z"/><ellipse cx="918.482" cy="684.316" rx="4.818" ry="4.765" fill="#306594"/><rect x="915.591" y="693.791" width="9.422" height="4.872" rx="2.436" fill="#89AF81"/><path d="M906.704 699.145h4.015v1.927h-4.015v-1.927zm.803 1.927h1.178v3.105h-1.178v-3.105zm-.803 3.105h4.015v1.927h-4.015v-1.927zm10.439-4.282h2.945v3.265h-2.945v-3.265zm0 4.389h7.12v1.82h-7.12v-1.82zm0-.856h1.178v.856h-1.178v-.856z" fill="#89AF81"/><path d="M919.927 701.019h1.446v3.265h-1.446v-3.265zm3.159 2.409h1.177v.856h-1.177v-.856z" fill="#89AF81"/><path d="M920.623 699.895h3.64v3.265h-3.64v-3.265zm-5.889-9.958h3.426v1.767h-3.426zm6.37 0h3.426v1.767h-3.426zm-2.461.536h2.034v1.231h-2.034z" fill="#89AF81"/></g><path d="M443.6-108.98c2.022-3.29 9.461-2.022 12.751 0 3.083 1.895 2.162 5.66.369 8.834l-.369.625c-5.776 6.363-10.364 7.61-16.658 12.257-6.177 4.563-13.032 8.273-19.995 9.144-5.394.674-7.521 2.309-8.43 3.44-.96 1.196-1.584 3.096-1.471 6.268.114 3.196.948 6.864 2.064 10.816.996 3.526 2.454 7.99 3.106 11.248.763 3.816.596 7.769.556 10.62-.043 3.14.019 5.633.642 8.065 1.079 4.206 4.346 10.09 17.949 17 10.587 5.378 14.839 17.068 16.08 28.987 1.274 12.226-.335 26.853-3.564 41.443-3.247 14.669-8.226 29.722-13.993 42.939-3.956 9.065-8.378 17.484-12.999 24.387-1.788 5.047-21.827 40.569-30.635 55.366-10.033 16.853-26.976.883-43.392 4.152-.79 2.101-1.445 4.413-1.945 6.975-.939 4.813-2.867 9.027-6.089 12.187-3.266 3.204-7.31 4.782-11.463 5.255-.435.05-.875.085-1.316.112-1.661 1.19-3.522 2.11-5.644 2.625-6.964 1.454-13.308-2.336-19.137-5.293-11.231-6.67-25.722-10.974-37.326-3.333-4.574 2.631-9.204 4.97-14.33 6.424-5.01 1.466-10.778 1.558-15.485-1.086-2.357-1.201-4.439-2.874-6.82-3.648-2.392-.817-4.94-.152-7.182 1.11a197.065 197.065 0 00-8.425 5.299c.568 46.728 39.969 87.59 60.184 102.527l.922 1.257c9.821 13.606 28.446 46.305 30.745 78.867 1.447 20.504 1.402 33.518 4.37 45.939 2.821 11.806 8.451 23.058 21.894 38.518 6.599 7.588 13.139 13.229 19.573 18.324 6.256 4.954 13.055 9.857 19.081 15.25 12.769 11.428 23.172 25.896 29.54 54.306a6.992 6.992 0 01-13.556 3.407l-.088-.349-.272-1.192c-5.758-24.83-14.58-36.473-24.949-45.753-5.625-5.034-11.469-9.191-18.437-14.708-6.79-5.377-14.059-11.621-21.441-20.111-14.52-16.698-21.474-29.916-24.945-44.442-3.323-13.91-3.368-29.094-4.717-48.204-2.036-28.841-19.006-59.003-28.071-71.581-1.953-3.975 0-4.88 0-9.811s-19.951-21.634-40.458-50.53c-13.835-19.495-15.826-37.93-14.805-47.979-6.322 4.486-12.431 9.316-18.29 14.358-4.991 4.371-9.81 8.951-13.918 14.149-3.708 4.862-8.693 12.234-3.717 17.251l.031.035c19.624 24.472 21.428 57.372 21.532 87.427-.173.956-.361 1.906-.56 2.849-.546 5.467-2.586 11.675-5.687 18.385-12.689 31.207-38.178 56.376-56.747 84.333-4.285 6.637-10.457 13.905-8.922 21.59 1.816 3.547 6.931 2.879 10.685 2.321 3.985-.678 7.871-1.916 11.767-3.105 11.123-16.499 11.533-49.507 38.327-50.816 11.455.541 17.133 11.986 21.318 21.009 4.12 9.579 6.709 19.742 8.42 29.986 1.665 10.25 2.465 20.731 1.743 31.094-.395 5.183-1.14 10.385-2.92 15.354-1.718 4.802-5.06 10.201-10.815 10.572-30.095-1.257-34.112-46.919-63.739-42.902-4.475 1.757-10.544 4.163-10.413 9.281.89 4.88 6.055 7.831 10.445 10.001l.04.021c30.271 20.221 41.014 61.791 30.834 95.814-10.3 35.257-43.986 57.527-78.002 66.928-18.072 4.998-35.837 10.443-54.733 10.614-4.745-.165-9.643-.77-13.463-3.783-3.895-3.058-4.738-8.375-4.438-12.97.74-9.497 3.995-18.235 7.023-27.032C33.79 604.872 47.01 569.929 52 532.948a270.359 270.359 0 002.212-22.453c1.394-25.192 1.442-50.33-1.077-75.225a314.31 314.31 0 00-7.489-43.524c-1.672-7.093-3.824-14.237-5.044-21.537-1.597-7.276.68-15.549 6.636-20.319 9.535-9.294 8.143-24.209 6.585-36.674-.9-6.446-2.232-12.813-3.483-19.221-.606-3.198-1.252-6.426-1.486-9.705-.015-1.636-.373-3.471 1.04-4.993.825-.705 2.039-.398 2.7-.134.912.37 1.447.706 2.26 1.247 7.322 4.775 16.244 6.571 24.917 7.611 4.371.478 8.786.692 13.166.521 2.175-.099 4.426-.263 6.464-.778.282-.075.534-.154.749-.235.276-.105.469-.193.668-.325.197-.128.263-.265.249-.282.004-.046-.093-.206-.306-.364-.829-.579-1.789-.874-2.911-1.218-7.82-2.582-13.608-8.905-17.836-15.663-1.999-3.448-3.927-7.244-3.685-11.455.079-2.142 1.837-4.208 3.99-4.494 2.073-.386 4.12.002 6.104.527 3.892 1.038 7.982 1.787 11.91 1.066 3.942-.539 7.219-4.101 6.681-8.083l-.002-.03c-.235-7.959.142-16.1 2.747-23.737 2.294-7.406 9.126-15.264 17.744-13.507 35.602-.078 77.533-11.338 92.795-46.357 3.154-8.865 11.993-16.554 21.864-15.08 9.487.656 18.665 3.149 28.067 2.66a52.893 52.893 0 007.695-.871c9.953-2.109 21.539-.226 28.603 7.664 7.109 7.66 10.041 18.06 11.495 28.104.56 3.927 1.711 7.95 4.293 10.878 1.616.255 3.026.31 4.217.175 1.653-.188 2.605-.708 3.254-1.344.694-.681 1.605-2.055 2.157-4.885 2.112-10.824 6.562-18.914 12.607-25.278 5.922-6.235 13.125-10.539 20.242-14.203 14.768-7.602 28.866-12.633 40.08-25.327 5.483-6.208 11.487-16.468 16.95-28.987 5.418-12.415 10.11-26.61 13.156-40.37 3.062-13.838 4.366-26.826 3.309-36.971-1.089-10.451-4.411-15.89-8.505-17.97-15.756-8.003-22.743-16.566-25.16-25.991-1.124-4.384-1.122-8.506-1.078-11.73.048-3.511.114-5.677-.288-7.686-.514-2.567-1.56-5.62-2.851-10.19-1.17-4.145-2.404-9.16-2.581-14.118-.178-4.983.684-10.717 4.544-15.523 3.911-4.867 9.942-7.602 17.596-8.56 3.476-.434 8.017-2.522 13.423-6.515 5.291-3.907 6.792-4.497 12.213-10.469zM148.452 492.688c-4.119-2.675-8.457-3.915-13.2-2.775 5.065-.28 9.38.798 13.2 2.775zm-4.193-19.015a26.963 26.963 0 01-2.09 2.839c.741-.559 1.426-1.536 2.09-2.839zm30.042-83.93c-4.949 7.936-10.694 16.211-16.702 24.528 5.986-7.985 11.716-16.095 16.702-24.528z" fill="#306594"/><path d="M46.41 382.3a6.15 6.15 0 00.493-1.644c1.117-7.345 11.892-6.741 12.181.683l8.521 219.135a13.115 13.115 0 01-8.194 12.673c-6.9 2.788-14.735-.716-17.257-7.717l-6.635-18.417-4.237-13.496a87.012 87.012 0 012.173-58.238 87.01 87.01 0 004.58-48.72l-3.414-17.625a91.428 91.428 0 016.734-55.672L46.41 382.3z" fill="#306594"/><path d="M698 794l114 94" stroke="#FFF1DA" stroke-opacity=".4" stroke-width="2"/><path d="M454.466 545.444s-.358-.07-.886.059m.886-.059l40.567-6.52m-40.567 6.52l-.886.059m0 0l-6.109.407c-2.176.31-.932.465-8.859.931s-10.425-9.486-18.652-12.574c-3.628-1.087-11.381-4.75-13.369-10.711m46.989 21.947c-2.378.407-.047 4.598-4.244 10.187-4.196 5.588 5.13 21.888 5.13 21.888m40.567-38.654l-5.596-31.668-.932-52.16c.041-1.324.005-2.65-.109-3.969m6.637 87.797s-.155 11.889 2.797 18.628c4.129 9.426 11.368 11.354 18.652 18.629 1.092 1.091 1.558 1.872 2.797 2.794.852.633 2.332 1.397 2.332 1.397s2.798 1.863 12.123.932c9.326-.932 65.747-10.246 70.876-15.835m-198.019-41.913c.932-5.411 1.709-10.448 2.157-14.497m-2.157 14.497c-2.92 16.948-7.373 37.55-8.08 42.845-.932 6.985 3.411 9.314 5.596 12.574 2.611 10.804-8.86 33.066-14.921 42.846l-1.866 3.931m21.428-116.693c.184-1.665.347-3.207.488-4.597-.155-.932 0-3.26 1.865-5.123 1.324-1.323 5.389-2.525 8.859-3.318a68.568 68.568 0 013.731-.748c1.243-.508 5.129-3.386 10.724-10.837 9.326-15.44 20.051-8.849 33.107-15.44 0 0 7.927-8.777 10.724-13.9 2.798-5.123 10.15-3.969 10.15-3.969m-79.648 57.932l.079-3.991m79.569-53.941l3.95-1.619m-3.95 1.619c-.264-3.144-.998-6.799-2.689-8.569m-76.88 62.51c-1.073-6.222-3.594-9.123-4.72-9.795-6.995-.749-20.517-31.328-25.646-35.054-5.129-3.726-31.241-60.542-34.971-66.596-2.985-4.844-10.57-11.189-13.989-13.757m79.326 125.202l.409-20.632s-.04-13.786-1.865-22.354c-1.268-5.954-2.787-9.083-4.573-14.903l-3.001-9.78m92.549 12.109l8.748 9.157m-8.748-9.157l-6.639-6.95m0 0l-29.842-31.238-10.259-21.423c.09-6.194-.468-12.314-1.443-18.163-.26-1.558-.551-3.111-.873-4.657m161.32 198.392l-51.758-52.625-16.786-17.571-34.972-36.608M604.61 565.469l25.966-25.148M176.559 251.116s-38.08-9.935-44.763-13.04c-6.684-3.105-20.703-10.525-23.314-15.368l13.522-14.437 9.792-101.059 27.977-20.47m16.786 164.374l13.989-11.806 19.672-16.603m-33.661 28.409l5.723 3.259M159.773 86.742s6.702-6.626 12.123-8.87c3.964-1.641 10.725-2.38 10.725-2.38l1.865-.414m-24.713 11.664c0-1.845-12.745-25.621-19.118-37.28 0 0 1.244-50.606 2.332-52.624 1.088-2.018 4.103-6.706 7.46-9.314.326-.253.637-.505.933-.755 2.756-2.326 4.242-4.458 4.663-5.3l-.157-1.396m3.887 106.669c.466 2.632 3.827 10.575 7.461 16.744 2.715 4.61 3.73 8.848 7.926 11.177 4.197 2.328 18.652 6.392 22.848 10.52m12.212 97.524l.378 2.794c-.821 2.579-1.785 8.274-.762 14.437 6.478 17.884 39.284 57.128 54.877 74.514m-54.493-91.745l-1.953-14.436 3.264-48.435c-.666-1.328-2.475-5.122-2.475-5.122s-7.803-17.355-10.115-25.149l-.933-4.382m-15.726 129.192c3.028 2.474 6.321 5.798 8.266 7.918m-8.266-7.918c1.4.347 3.125 2.797 5.075 6.52 4.725 9.023 10.772 25.526 16.713 37.723 6.715 13.785 4.786 28.408 2.983 33.997.738 3.647 1.214 7.386 1.214 10.711 0 7.451 6.552 22.975 9.827 29.805M184.486 75.078h181.852l24.246 12.26m-206.098-12.26l13.522 50.105m-13.522-50.105s-9.189-28.2-13.988-46.572c-4.383-16.778-9.792-43.311-9.792-43.311l-4.82-5.122M390.584 87.339s33.472 10.4 49.427 24.995c6.525 5.97 14.921 17.032 14.921 17.032l3.264 3.726 4.663 5.322s39.523 3.244 54.089 20.491c3.646 4.318 7.92 12.108 7.92 12.108M390.584 87.339c-4.476 9.479-16.164 23.717-21.449 29.652H217.126l-19.118 8.192m0 0c-28.505 12.624-67.14 29.531-69.01 29.531-2.798 0-22.528-17.187-38.702-25.149m65.59-149.492l-3.107-27.642M431.151 263.69l-44.297 8.849-3.73-.761m48.027-8.088l47.562-50.297m-47.562 50.297v34.462m-48.027-26.374l-19.118-3.897c-2.668-2.398-11.062-5.575-18.185-7.928a208.894 208.894 0 00-7.461-2.317l-52.69-9.314-1.458 10.711-5.07 37.257m103.982-24.512a476.769 476.769 0 00-2.895-16.005c-2.508-12.627-5.761-26.129-8.296-28.408-4.663-4.192-5.595-23.752-17.719-31.669-12.123-7.917-31.707-10.245-40.567-28.408-8.859-18.163-1.445-108.994-2.371-178.833l-.093-6.985-.333-25.148m167.863 257.071c2.176 1.397 9.232 8.104 10.724 10.712 1.492 2.608 10.88 23.44 20.05 26.545 9.171 3.105 17.781 10.362 29.843 8.849 8.933-1.121 11.897-6.693 20.983-9.538 8.883-2.781 19.135-4.51 28.909-3.037l.976.147c24.605 3.684 57.308 7.459 92.281-15.981m-203.766-17.697l46.155-42.38m-46.155 42.38l-18.652-69.391 8.478-23.285 10.174-27.943 20.516-38.654c.946-5.535 2.998-16.307 4.498-20.491.224-.627.437-1.106.631-1.397 1.865-2.794 23.315-50.297 36.371-59.611 1.243-.931 3.916-3.912 4.662-8.383.063-.373.197-1.006.394-1.862M431.151 298.152l-1.399 32.6c3.777 6.25 10.131 19.938 13.538 36.325m-12.139-68.925c-.195.08-.391.158-.586.235m251.914-67.297c-5.595 15.834-5.595 52.911-5.595 96.402m5.595-96.402c2.306.708 8.709-13.167 17.521-33.661m-17.521 33.661c4.259.58 17.968.909 34.521.35m-192.132-60.427l41.431 63.337 1.219 1.863s13.719 15.384 17.974 27.477c5.917 16.815 0 27.816 0 45.639v74.979m91.392-56.816c2.616 35.509 14.616 54.439 16.616 57.748m-16.616-57.748l-66.679-.932m-331.063-30.27l-14.429 18.162m14.429-18.162l8.393 7.257 57.82 49.996 3.264 2.823m-83.906-41.914l-1.85 2.329-44.769 56.35m46.619-58.679c4.033 4.191 13.776 15.182 20.491 25.614 2.081 3.234 5.98 7.431 10.724 11.948 10.561 10.054 25.315 21.698 33.573 27.852m19.118-23.5l2.098-3.26 2.098-3.26c0-.405.015-.872.046-1.397.316-5.316 4.889-17.475 8.814-28.409 2.24-6.241 4.608-10.334 6.134-15.834a120.193 120.193 0 001.901-7.916m-21.091 60.076l-3.789 4.657-15.329 18.843m19.118-23.5c1.706 0 5.68 4.762 10.786 12.108 2.544 3.659 8.331 12.63 8.331 12.63s23.007 38.189 30.775 52.104l1.286 4.191m-181.703-64.268l-6.563 7.973 8.859 39.53-13.337 3.26c2.985 10.556 8.06 34.555 4.478 46.105h8.859l-1.865 104.319-20.05 23.285 40.567 24.218 74.139 1.683c16.819.71 30.635 1.496 38.702 2.042 3.197.037 7.377.076 12.123.111 4.352.031 8.704.055 13.056.073m-47.561-245.864s-6.125 9.032-11.191 13.757c-7.895 7.363-23.78 14.113-23.78 14.113l-8.394 4.981m-71.341-162.722l-24.247 12.298m0 0c11.968 15.678 36.463 47.129 38.702 47.502 2.238.372 56.886 102.922 56.886 102.922m0 0s1.866-.466 5.13 5.123c3.264 5.588 1.865 16.789 1.865 19.559 0 2.771 1.399 15.369 1.399 15.369s7.647 37.257 10.258 46.571c1.333 4.754 3.046 27.232 4.632 53.091l39.199 1.397-1.865 54.953 30.308 16.95m0 0c2.76.01 5.576.017 8.393.02 10.599.012 21.212-.037 28.91-.204 21.449-.465 22.848-3.725 22.848-3.725s13.082-10.28 21.841-19.561M369.71 296.29c1.337-6.506 3.643-22.933 3.855-26.46m-3.855 26.46l31.599 5.143c2.185.355 1.785.606 5.595.911 3.811.304 13.779-.078 23.661-3.957m0 0c6.618-.558 43.249 19.171 60.737 29.105l80.201-.932h38.702M443.29 367.077c25.751-37.629 105.531-4.191 142.202 17.231M443.29 367.077c-8.378 7.452-10.74 16.766-10.74 18.163 0 1.397-2.797 27.011-4.196 31.202-.886 2.655-12.596 10.74-21.927 16.766a393.218 393.218 0 01-6.63 4.191m101.297 21.266s26.193-19.823 37.303-37.1c3.699-5.752 8.393-15.368 8.393-15.368l4.197-3.726 29.842 13.506h4.663m45.084 124.344l20.196-19.56c1.399-1.552 2.841-5.851 4.197-9.78 5.698-16.509.621-31.513.932-44.708m-25.325 74.048l-49.747-50.297s-2.358-.745-5.04 0m54.787 50.297L729 604l80-86.851m-340.546 74.866a486.804 486.804 0 01-9.4 10.245m0 0c21.436-20.656 42.881-41.302 64.335-61.939m0 0c21.951-21.115 42.193-40.558 52.4-50.297m-52.4 50.297s4.75 7.451 11.744 10.711c5.751 2.795 25.2 6.986 34.972-1.862 9.771-8.849 48.96-47.503 49.892-48.434.933-.932 4.081-1.397 4.663-10.712.582-9.314 1.554-90.037 2.331-131.795a371.693 371.693 0 00-4.836-11.177m33.746 119.221l-2.331-14.437c-.311-1.707-.094-5.122 3.264-5.122 4.196 0 21.449-9.315 20.05-20.026-1.399-10.711-.466-19.094-10.258-20.491-6.336-1.553-20.279-6.148-25.358-12.109m14.633 72.185c-4.37-.363-6.805-.948-11.191-.931-7.933.03-17.812 3.26-20.05 3.26-1.932 0-20.682.231-33.573.394l-5.595.072m55.776-74.98a83.707 83.707 0 00-1.687-3.26l-2.331-6.52m4.018 9.78c.611 1.258 1.111 2.409 1.111 2.795v5.588c0 1.552-2.798 6.52-2.798 6.52s-3.108 4.502-4.663 5.123c-1.554.621-5.502 1.863-8.859 1.863h-40.567m0 53.091v-53.091m0 53.091v4.657c0 4.657-.933 8.289-2.798 9.78-.103.082-.449.399-1.017.931-1.133 1.06-3.149 2.975-5.888 5.588m61.461-105.716h-51.758m51.758 0l56.25.932m-108.008-.932v31.669M693.5 385.24c4 11.753 16.6 37.46 35 46.26 23 11 48.5 32.74 57.5 61 2.922 9.176 10.851 17.4 23 24.649M622.155 347.052c-4.49-9.922-9.838-20.492-11.95-20.492m11.95 20.492c-.499-1.087-2.375-4.844-5.888-11.177M1252.5 668c-11.67-18.333-49.3-54.3-106.5-51.5-71.5 3.5-62-12-95.5-32-26.8-16-89.833-30-118-35-54.702-6.415-98.23-17.273-123.5-32.351" stroke="#FFF1DA" stroke-opacity=".4" stroke-width="2" stroke-linecap="round" stroke-linejoin="round"/><path d="M630.576 540.321L729 604l80-86.851M637.25 384.308l56.25.932m0 0c-2-3.309-14-22.239-16.616-57.748l-66.679-.932m83.295 58.68c4 11.753 16.6 37.46 35 46.26 23 11 48.5 32.74 57.5 61 2.922 9.176 10.851 17.4 23 24.649m0 0c23.234 13.863 62.403 24.295 111 30.851" stroke="#F3C67A" stroke-width="3" stroke-linecap="round" stroke-linejoin="round"/><path d="M468.5 594l63 82.5 169 119.5c-.667 14.333 5 48 33 68 35 25 57 10.5 68 17 8.8 5.2 21 14.5 26 18.5.833-22.333-.3-67.8.5-75 .8-7.2 32-100.667 47.5-146.5l44-129.5" stroke="#F3C67A" stroke-width="3"/><path d="M259.734 208.236h-13.785v-9.494h13.785v9.494zm-6.891-4.726a.699.699 0 00-.643.427.706.706 0 00-.052.264v1.91h1.389v-1.91a.69.69 0 00-.694-.691zm9.511 14.612h-19.027v-9.494h19.027v9.494zm-14.358-7.33a.711.711 0 00-.493.201.681.681 0 00-.204.488v1.912h1.391v-1.912a.687.687 0 00-.694-.689zm9.691 0a.687.687 0 00-.694.689v1.912h1.391v-1.912a.688.688 0 00-.697-.689zm-4.854-34.23l3.277 13.275h-6.555l3.278-13.275z" fill="#A7C3A1"/><path d="M252.86 174l.348 1.061h1.125l-.909.657.348 1.062-.912-.657-.91.657.346-1.062-.909-.657h1.125l.348-1.061zm12.554 55h-9.813v-5.162c0-.721-.289-1.413-.803-1.922a2.752 2.752 0 00-3.876 0 2.706 2.706 0 00-.803 1.922V229h-9.81v-10.481h25.105V229zm-8.5-30.65h-8.145v-8.116h8.145v8.116zm-6.338-5.28a.712.712 0 00-.492.201.694.694 0 00-.202.488v3.684h1.391v-3.684a.68.68 0 00-.203-.489.704.704 0 00-.494-.2zm2.264 0a.712.712 0 00-.492.201.694.694 0 00-.202.488v3.684h1.391v-3.684a.696.696 0 00-.43-.638.716.716 0 00-.267-.051zm2.264 0a.696.696 0 00-.642.425.668.668 0 00-.052.264v3.684h1.391v-3.684a.696.696 0 00-.43-.638.712.712 0 00-.267-.051zM285 219.58a.502.502 0 00-.04.199v1.22h.04V229h-2.941v-2.758a1.692 1.692 0 00-1.033-1.649 1.72 1.72 0 00-2.281.973c-.08.216-.115.446-.102.676V229h-3.216v-2.601a3.414 3.414 0 00-1.045-2.365 3.469 3.469 0 00-2.412-.972 3.47 3.47 0 00-2.412.972 3.413 3.413 0 00-1.044 2.365V229h-2.702v-10.481H285v1.061zm-16.944-.314a.496.496 0 00-.497.493v1.24h.992v-1.24a.5.5 0 00-.144-.348.498.498 0 00-.351-.145zm2.919 0a.52.52 0 00-.514.513v1.22h1.031v-1.22a.514.514 0 00-.517-.513zm2.902 0a.51.51 0 00-.516.513v1.22h1.033v-1.22a.514.514 0 00-.517-.513zm2.9 0a.537.537 0 00-.198.039.519.519 0 00-.317.474v1.22h1.031v-1.22a.51.51 0 00-.152-.362.523.523 0 00-.364-.151zm2.899 0a.518.518 0 00-.517.513v1.22h1.034v-1.22a.505.505 0 00-.152-.363.536.536 0 00-.167-.111.537.537 0 00-.198-.039zm2.899 0a.52.52 0 00-.516.513v1.22h1.033v-1.22a.523.523 0 00-.151-.363.529.529 0 00-.366-.15z" fill="#A7C3A1"/><path d="M239.829 214.462h3.08v3.625h-3.08V229H224v-14.538l8.004-4.02 7.825 4.02zm-12.71 11.106h1.55v-3.032h-1.55v3.032zm3.933 0h1.547v-3.032h-1.547v3.032zm3.93-3.032v3.032h1.55v-3.032h-1.55zm-7.863-2.363h1.55v-3.032h-1.55v3.032zm3.933 0h1.547v-3.032h-1.547v3.032zm3.932 0h1.548v-3.032h-1.548v3.032z" fill="#A7C3A1"/><path d="M235.127 249h-2.496l-4.784-4.896V249h-1.888v-11.2h1.888v4.816l4.768-4.816h2.448l-5.488 5.536 5.552 5.664zm1.244-7.344c.822-.853 1.819-1.28 2.992-1.28 1.142 0 2.048.427 2.72 1.28v-1.136h1.84V249h-1.84v-1.136c-.672.843-1.578 1.264-2.72 1.264-1.162 0-2.16-.427-2.992-1.28-.821-.864-1.232-1.893-1.232-3.088 0-1.216.411-2.251 1.232-3.104zm.48 3.104c0 .747.256 1.387.768 1.92a2.593 2.593 0 001.904.784c.736 0 1.366-.267 1.888-.8.534-.533.8-1.168.8-1.904s-.266-1.371-.8-1.904c-.522-.544-1.152-.816-1.888-.816a2.57 2.57 0 00-1.904.8 2.673 2.673 0 00-.768 1.92zm12.393 4.368c-1.184 0-2.144-.272-2.88-.816-.736-.544-1.115-1.205-1.136-1.984h1.712c.021.363.24.656.656.88.416.213.955.32 1.616.32.629 0 1.152-.112 1.568-.336.427-.224.64-.523.64-.896 0-.683-.693-1.024-2.08-1.024h-1.76v-1.312h1.76c1.28 0 1.92-.315 1.92-.944 0-.309-.181-.56-.544-.752-.363-.192-.864-.288-1.504-.288-.661 0-1.173.096-1.536.288-.363.181-.555.427-.576.736h-1.712c.011-.811.384-1.451 1.12-1.92.736-.469 1.648-.704 2.736-.704 1.035 0 1.915.219 2.64.656.725.427 1.088 1.013 1.088 1.76 0 .789-.448 1.387-1.344 1.792a2.3 2.3 0 011.072.672c.299.32.448.72.448 1.2 0 .747-.363 1.381-1.088 1.904-.725.512-1.664.768-2.816.768zm6.221-7.472c.821-.853 1.819-1.28 2.992-1.28 1.141 0 2.048.427 2.72 1.28v-1.136h1.84V249h-1.84v-1.136c-.672.843-1.579 1.264-2.72 1.264-1.163 0-2.16-.427-2.992-1.28-.821-.864-1.232-1.893-1.232-3.088 0-1.216.411-2.251 1.232-3.104zm.48 3.104c0 .747.256 1.387.768 1.92a2.59 2.59 0 001.904.784 2.55 2.55 0 001.888-.8c.533-.533.8-1.168.8-1.904s-.267-1.371-.8-1.904c-.523-.544-1.152-.816-1.888-.816-.747 0-1.381.267-1.904.8a2.673 2.673 0 00-.768 1.92zm8.841 4.24v-8.48h1.84v3.36h4.416v-3.36h1.84V249h-1.84v-3.408h-4.416V249h-1.84zm9.828 0v-8.48h1.776v2.704h3.152c.821.011 1.509.299 2.064.864a2.74 2.74 0 01.848 2.032c0 .8-.283 1.483-.848 2.048-.555.555-1.243.832-2.064.832h-4.928zm1.776-1.664h2.72c.469 0 .832-.112 1.088-.336.267-.224.4-.517.4-.88 0-.373-.133-.672-.4-.896-.256-.224-.619-.336-1.088-.336l-2.72-.016v2.464z" fill="#fff"/><path fill="url(#paint0_linear_26_872)" d="M-6 0h1399v163H-6z"/><path fill="#F3C67A" d="M953 674h72.38v87.58H953z"/><path d="M997.517 688.177c.562.062 1.145.104 1.707.208 3.556.708 6.226 2.665 7.936 5.85a10.729 10.729 0 011.22 6.453c-.5 3.955-2.52 6.89-6.03 8.763-.65.354-1.36.583-2.04.875-.02-.021-.05-.063-.07-.084.09-.125.17-.249.25-.354.11-.124.19-.249.32-.353.68-.625 1.39-1.229 2.08-1.832a7.505 7.505 0 002.2-3.352c.03-.062.03-.125.05-.187-.05.021-.07.021-.07.042-.87 1.436-2.14 2.456-3.56 3.309-.6.354-1.22.708-1.807 1.104-1.52 1.061-2.207 2.581-2.207 4.413 0 1.041 0 2.102.021 3.143 0 .083 0 .146.021.25 1.145 0 2.269.021 3.392 0 2.27-.063 4.52-.458 6.75-.874a31.26 31.26 0 016.7-.458c.04 0 .1 0 .14.02.02 0 .03.021.07.063-.46.062-.9.125-1.34.166-2.31.271-4.58.687-6.84 1.229-2.52.603-5.08.978-7.644 1.186-1.561.125-3.122.187-4.663.312a48.994 48.994 0 00-6.932 1.02 25.118 25.118 0 01-3.726.521c-1.727.125-3.476.104-5.225.166-2.06.084-4.121.292-6.161.604-.417.062-.812.125-1.249.146.27-.084.541-.188.812-.25a30.247 30.247 0 016.078-1.062c2.269-.166 4.538-.333 6.786-.52 1.291-.104 2.519-.437 3.768-.75a64.715 64.715 0 016.89-1.29c.083 0 .146-.021.25-.042v-2.29c0-.936.042-1.894-.063-2.831-.104-.957-.353-1.915-.603-2.872-.271-1.124-.646-2.207-.77-3.373-.209-1.811.312-3.351 1.623-4.621a.504.504 0 00.104-.125c-.02-.021-.041-.041-.041-.062-.292.229-.625.458-.895.708-.937.811-1.395 1.894-1.707 3.06-.229.895-.417 1.811-.313 2.747 0 .021 0 .042-.02.104-.458-.208-.896-.395-1.333-.603-1.644-.833-3.06-1.936-4.059-3.518-1.082-1.728-1.395-3.622-1.186-5.641.229-2.124 1.269-3.831 2.664-5.392 1.853-2.061 4.143-3.268 6.87-3.664.437-.062.874-.083 1.311-.124.187.062.375.062.541.062zm-1.624 14.571c-.541 2.103.063 4.08.916 6.058.562-.708 1.291-1.145 2.02-1.582.333-.208.666-.437.999-.645 1.232-.833 2.042-1.957 2.472-3.373.32-1.061.44-2.144.48-3.226v-.874c-.1.27-.14.562-.2.832-.67 2.894-2.21 5.163-4.875 6.599-.188.104-.292.083-.417-.083-.375-.5-.708-1.02-.874-1.603-.229-.729-.354-1.436-.521-2.103zm4.267 45.006a4.296 4.296 0 01-.665-.229c-.541-.229-.833-.667-.854-1.27-.021-.417 0-.833 0-1.249 0-.729.354-1.208 1.02-1.437.829-.291 1.669-.249 2.459.209.33.187.56.458.6.853.02.167-.02.25-.21.25h-1.18c-.11 0-.21-.063-.29-.146-.19-.166-.38-.187-.61-.125-.23.084-.25.271-.25.479v1.062c.02.291.21.437.52.416.31 0 .46-.125.46-.437-.06 0-.15.021-.21-.021-.08-.042-.14-.125-.21-.187v-.021c0-.916-.08-.749.69-.77h.92c.37 0 .37 0 .37.374v.438c0 .957-.44 1.498-1.37 1.706-.09.021-.15.042-.23.063-.29.042-.63.042-.96.042z" fill="#5C8D52"/><path d="M986.422 693.298c-3.726 7.494.271 13.572 3.955 15.841a2.76 2.76 0 00-.499-1.395c-.438-.624-.916-1.207-1.353-1.811a22.68 22.68 0 01-.792-1.165c1.187 1.374 2.727 2.331 4.081 3.476.686.583 1.373 1.187 1.769 2.019.146.333.25.708.25 1.062.021 1.519.02 3.06.02 4.579v.313c-.541.062-1.082.104-1.582.208-1.311.27-2.602.541-3.913.853-3.102.771-6.224 1.062-9.409.937a148.563 148.563 0 00-6.807-.083c-2.56.021-5.079.27-7.619.645a2.274 2.274 0 01-.666.042c.437-.146.874-.333 1.332-.437 1.187-.271 2.394-.5 3.581-.75.208-.041.27-.104.27-.312v-3.331c0-.125.063-.291.146-.374.437-.5.895-1 1.353-1.499.604.666 1.207 1.332 1.832 2.019a507.336 507.336 0 003.102-3.435c.333.354.645.708.957 1.062.604.645 1.187 1.311 1.79 1.957.084.083.25.145.375.145h6.203v2.602c.562-.062 1.083-.104 1.603-.187l2.935-.499c.167-.021.208-.105.208-.25 0-1.478.042-2.977-.02-4.455-.021-.458-.229-.937-.458-1.353-.729-1.416-2.019-2.186-3.414-2.831 1.311 1.062 2.123 2.373 2.227 4.122a13.568 13.568 0 01-1.061-.209c-2.269-.541-3.997-1.873-5.434-3.684-2.414-3.06-2.393-7.64.396-10.845 1.186-1.374 2.664-2.332 4.371-2.936.104 0 .167 0 .271-.041zm-16.07 21.732v2.436c.499-.042.957-.104 1.436-.146v-2.29h-1.436zm3.955-.916v.916h.895v-.916h-.895zm2.331.916v-.916h-.895v.916h.895zm-1.436 1.436v-.895h-.895v.895h.895zm1.436 0v-.915h-.916v.791c0 .041.084.124.125.124h.791zm5.267 16.799v-6.827c.021-.75.27-.729.728-.729.75.021 1.499 0 2.269 0 .396 0 .542.125.625.52.312 1.582.624 3.185.957 4.767.188.937.396 1.874.604 2.79.042.166.083.374.312.354.229-.021.292-.229.333-.417.354-1.915.729-3.83 1.083-5.745.104-.541.187-1.082.291-1.645.084-.478.229-.624.729-.624h2.29c.416 0 .562.146.583.562.02.208 0 .416 0 .624v12.948c0 .167 0 .354-.021.521-.042.354-.188.499-.541.52-.521.021-1.02 0-1.541 0-.25 0-.395-.146-.437-.395a3.39 3.39 0 01-.042-.458c0-1.041.021-2.103 0-3.144 0-.354-.104-.707-.166-1.082-.021-.063-.104-.167-.146-.167-.083 0-.187.063-.208.146a2.371 2.371 0 00-.187.541 272.869 272.869 0 01-.833 3.914c-.125.541-.25.666-.812.687-.312.021-.624 0-.937 0-.374-.021-.499-.146-.583-.5-.353-1.478-.686-2.956-1.04-4.413a4.63 4.63 0 00-.25-.687c-.021-.062-.146-.146-.208-.146-.063 0-.167.104-.167.188-.041.25-.083.52-.083.77v3.851c0 .125 0 .25-.021.354-.042.395-.208.583-.604.583-.478.021-.957 0-1.436 0-.291 0-.416-.125-.479-.417-.02-.145-.041-.291-.041-.437-.021-2.29-.021-4.558-.021-6.807zm32.515-.062v6.578c0 .978-.1 1.082-1.06 1.082-.42 0-.81 0-1.23-.041-.37-.042-.58-.25-.71-.625-.64-2.04-1.33-4.059-2-6.099-.04-.125-.18-.271-.29-.291-.21-.021-.29.166-.31.353-.02.25-.06.521-.06.771v4.996c0 .791-.09.895-.9.915-.33.021-.68 0-1.02 0-.43-.02-.6-.187-.66-.603-.02-.125-.02-.25-.02-.354v-13.323c0-.895.08-.978.97-.978h1.44c.4 0 .56.125.69.5.6 1.998 1.21 4.017 1.81 6.016.04.166.08.333.17.478.04.084.18.188.27.188.08 0 .2-.125.22-.229.07-.229.11-.479.11-.708.02-1.749.02-3.476.02-5.225 0-.166 0-.354.02-.52.04-.354.15-.5.5-.521.56-.021 1.1.021 1.67.021.2 0 .31.146.33.333.02.167.04.333.04.5v6.786zm-42.84-1.187v5.433c0 1.145-.5 2.061-1.332 2.811-1.228 1.082-2.623 1.061-4.039.52-.916-.354-1.582-1.02-1.873-1.978a6.26 6.26 0 01-.271-1.769 873.509 873.509 0 010-10.491c0-.75.063-.833.812-.875a6.496 6.496 0 011.27.021c.312.021.437.167.458.479.021.25.021.479.021.728v9.722c0 .374.041.749.145 1.103.125.437.458.749.937.77.5 0 .874-.229 1.062-.687a4.14 4.14 0 00.208-.874c.042-.229.021-.479.021-.729v-9.596c0-.853.083-.937.936-.937.354 0 .729 0 1.083.021s.458.125.5.5c.02.145.02.27.02.416.042 1.79.042 3.601.042 5.412zm30.6 8.868c-.23-.021-.48 0-.71-.042-.35-.041-.5-.166-.56-.52-.08-.416-.1-.833-.17-1.27-.04-.312-.08-.645-.16-.936-.13-.479-.38-.667-.856-.667-.25 0-.5.021-.75.021-.354.021-.562.229-.624.562l-.312 1.811c-.042.188-.063.396-.104.583-.063.25-.229.396-.479.396h-1.749c-.333 0-.458-.125-.416-.458.083-.646.187-1.291.291-1.915.104-.646.25-1.27.333-1.916.125-1.082.979-1.498 1.749-1.519.562-.021 1.103 0 1.665 0h.25c.522-.021.602-.146.542-.666-.396-2.581-.771-5.184-1.167-7.765-.083-.624.188-.937.812-.937.335 0 .665.021 1.025.042.25.021.39.167.45.396.11.499.21 1.02.32 1.519.43 2.623.89 5.246 1.33 7.869.25 1.457.5 2.914.73 4.392.12.812 0 .958-.79 1.02-.25 0-.44-.021-.65 0zm-22.856-10.575v1.957c0 .562-.209 1.062-.562 1.478-.375.458-.438.937-.292 1.478.396 1.499.791 3.018 1.187 4.517.062.229.104.479.125.708.02.229-.084.375-.313.395-.645.021-1.29.042-1.915.021-.354 0-.499-.291-.562-.583-.146-.562-.27-1.124-.395-1.686-.208-.832-.396-1.686-.604-2.518-.042-.125-.083-.271-.125-.396-.104-.291-.312-.396-.624-.416-.229 0-.479-.042-.708-.104-.229-.063-.354-.25-.354-.521.021-.354 0-.687 0-1.041 0-.333.125-.562.437-.645.25-.083.521-.104.791-.104.895 0 1.52-.583 1.52-1.478v-1.811c0-.749-.396-1.166-1.166-1.249-.375-.042-.749-.062-1.103-.146-.417-.083-.5-.208-.5-.624v-1.291c0-.354.208-.562.562-.583.791-.02 1.582 0 2.373.209 1.457.374 2.207 1.311 2.248 2.81 0 .52 0 1.061-.02 1.623z" fill="#5C8D52"/><path d="M980.76 708.723h-5.058c-.188 0-.292.041-.417.187-.374.416-.749.833-1.145 1.228-.062.084-.208.125-.312.125-.52.021-1.041 0-1.561.021-.229 0-.333-.083-.396-.291-.728-2.04.125-4.372 1.999-5.454 2.789-1.624 6.307.041 6.827 3.226.042.312.042.604.063.958z" fill="#5C8D52"/><path d="M970.539 711.346c-.52.562-1.041 1.082-1.499 1.665-.291.375-.603.395-1.04.333.395-.437.791-.874 1.165-1.311.375-.417.729-.833 1.124-1.229a.623.623 0 01.375-.166 78.408 78.408 0 013.143 0c.188 0 .313-.042.437-.187.375-.438.75-.854 1.145-1.249.063-.084.208-.125.313-.146h5.87c.104 0 .229.041.291.104l3.685 4.059c.021.021.041.063.104.146h-6.849a.496.496 0 01-.416-.188c-.937-1.04-1.874-2.081-2.831-3.122-.042-.042-.063-.083-.104-.146l-3.123 3.435c-.583-.666-1.165-1.332-1.79-1.998zm42.261 10.033c-.79-.083-1.5-.208-2.21-.229-1.5-.041-2.96.333-4.39.77-1.25.396-2.48.771-3.71 1.187-2.14.728-4.265.728-6.43.083-1.186-.354-2.415-.604-3.643-.812-1.936-.333-3.872-.187-5.787.229-.708.167-1.415.375-2.144.562-.042.021-.104.021-.146.042 0-.021-.02-.042-.02-.062.811-.292 1.602-.604 2.435-.875 1.312-.437 2.665-.708 4.059-.728 1.27-.021 2.519.208 3.747.52 1.208.312 2.415.604 3.664.625 1.436.041 2.815-.229 4.185-.583 1.46-.375 2.91-.791 4.39-1.145 1.54-.354 3.1-.458 4.66-.042.42.104.86.292 1.34.458zm-30.354.645c.937-.333 1.853-.687 2.81-1.02a41.932 41.932 0 019.139-2.102 67.11 67.11 0 014.579-.333c1.476-.063 2.936-.25 4.396-.5 1.91-.333 3.83-.666 5.74-.936 1.31-.188 2.65-.209 3.96.02.02 0 .04.021.06.084-.54 0-1.1-.021-1.64 0-1.67.104-3.31.458-4.94.811-1.98.438-3.95.916-5.93 1.27-1.104.208-2.249.271-3.373.292-4.622.062-9.139.874-13.573 2.123-.416.104-.812.229-1.228.333.021.021.021 0 0-.042zm24.314 22.649v.395h1.25c.64 0 .58-.083.58.604 0 .499 0 .5-.5.5h-1.33v.374h1.35c.77 0 .65-.062.67.645 0 .563.04.542-.54.542h-2.63c-.22 0-.29-.084-.29-.313v-3.622c0-.229.07-.312.29-.312h2.84c.2 0 .29.083.29.292-.02.208-.02.395 0 .603.02.229-.09.292-.29.292h-1.4a.668.668 0 00-.29 0zm-12.615-1.187c1.02.021.77-.146 1.124.791.375 1.02.729 2.061 1.082 3.081.105.291.084.333-.228.333-.271 0-.542-.021-.812 0-.25.021-.396-.062-.437-.312-.042-.208-.146-.271-.354-.25a5.515 5.515 0 01-.833 0c-.167 0-.271.042-.291.208-.042.271-.209.354-.479.333-.271-.021-.562 0-.833 0-.187 0-.271-.062-.187-.27.437-1.228.874-2.457 1.29-3.706.063-.187.167-.27.354-.249.208.041.396.041.604.041zm-.354 2.477h.687a61.73 61.73 0 00-.312-1.02h-.063a61.73 61.73 0 01-.312 1.02z" fill="#5C8D52"/><path d="M1013.5 719.651c-.7-.104-1.39-.229-2.1-.312-1.5-.146-2.98 0-4.41.354-1.21.291-2.42.645-3.6 1.02-1.94.625-3.895.812-5.914.687-1.395-.104-2.79-.354-4.164-.687h.521c2.664.042 5.308-.208 7.927-.604 1.88-.291 3.77-.603 5.64-.874 1.55-.208 3.09-.333 4.61-.021.5.104.99.271 1.47.417.04 0 .02.02.02.02zm-41.545 26.167c.166-.646.333-1.27.478-1.916.104-.416.105-.416.542-.416h.811c.188 0 .25.083.188.25-.375 1.249-.729 2.498-1.103 3.726-.042.167-.167.229-.334.229h-1.269c-.188 0-.292-.083-.333-.25-.354-1.228-.729-2.477-1.083-3.705-.062-.187 0-.25.188-.25h.957c.208 0 .312.083.354.292.146.582.291 1.165.437 1.727.021.104.063.188.083.292a.159.159 0 00.084.021zm15.945.645h1.561c.208 0 .292.083.292.291-.021.25 0 .479 0 .729 0 .146-.063.229-.229.229h-2.915c-.145 0-.229-.063-.229-.229v-3.768c0-.166.084-.229.25-.229h1.02c.208 0 .271.083.271.271v2.394c-.021.104-.021.187-.021.312zm-5.766 0c.52 0 .999.021 1.499 0 .249 0 .353.083.333.333-.021.229 0 .458 0 .666 0 .167-.063.229-.229.229h-2.894c-.166 0-.229-.062-.229-.229v-3.747c0-.187.084-.25.25-.25.333 0 .666.021.978 0 .209 0 .292.084.292.292v2.519c-.021.062-.021.104 0 .187zm-5.766-.854v-1.811c0-.229.062-.312.291-.312.333.021.666.021.979 0 .187 0 .27.063.27.25v3.726c0 .167-.083.25-.25.25-.333 0-.666-.021-.978 0-.229.021-.333-.063-.312-.312.021-.604 0-1.187 0-1.791z" fill="#5C8D52"/><circle cx="760" cy="856" r="15" fill="#F3C67A"/><path d="M754.455 848c-.794 0-1.455.644-1.455 1.417v14.875c0 .391.326.708.727.708h8.728a.718.718 0 00.727-.708v-3.188a.36.36 0 01.363-.354h.364c.41 0 .727.309.727.708v.709c0 1.165.986 2.125 2.182 2.125 1.197 0 2.182-.96 2.182-2.125v-9.209c0-.668-.323-1.299-.872-1.7l-2.328-1.7a.742.742 0 00-1.019.142.699.699 0 00.147.992l.872.637a.702.702 0 01.291.567v1.771c0 .653.471 1.213 1.095 1.372.194.049.359.203.359.399v6.729a.707.707 0 01-.727.708.707.707 0 01-.727-.708v-.709c0-1.165-.986-2.125-2.182-2.125h-.364a.359.359 0 01-.363-.354v-9.562c0-.773-.661-1.417-1.455-1.417h-7.272zm.363 1.417h6.546c.201 0 .363.158.363.354v4.958a.358.358 0 01-.363.354h-6.546a.358.358 0 01-.363-.354v-4.958c0-.196.162-.354.363-.354z" fill="#5C8D52"/><circle cx="727" cy="826" r="15" fill="#F3C67A"/><circle cx="752.162" cy="804.305" r="15" transform="rotate(-49 752.162 804.305)" fill="#F3C67A"/><circle cx="778.577" cy="827.267" r="15" transform="rotate(-49 778.577 827.267)" fill="#F3C67A"/><circle cx="804.991" cy="850.229" r="15" transform="rotate(-49 804.991 850.229)" fill="#F3C67A"/><path d="M799.455 842c-.794 0-1.455.644-1.455 1.417v14.875c0 .391.326.708.727.708h8.728a.718.718 0 00.727-.708v-3.188a.36.36 0 01.363-.354h.364c.41 0 .727.309.727.708v.709c0 1.165.986 2.125 2.182 2.125 1.197 0 2.182-.96 2.182-2.125v-9.209c0-.668-.323-1.299-.872-1.7l-2.328-1.7a.742.742 0 00-1.019.142.699.699 0 00.147.992l.872.637a.702.702 0 01.291.567v1.771c0 .653.471 1.213 1.095 1.372.194.049.359.203.359.399v6.729a.707.707 0 01-.727.708.707.707 0 01-.727-.708v-.709c0-1.165-.986-2.125-2.182-2.125h-.364a.359.359 0 01-.363-.354v-9.562c0-.773-.661-1.417-1.455-1.417h-7.272zm.363 1.417h6.546c.201 0 .363.158.363.354v4.958a.358.358 0 01-.363.354h-6.546a.358.358 0 01-.363-.354v-4.958c0-.196.162-.354.363-.354z" fill="#5C8D52"/><path fill-rule="evenodd" clip-rule="evenodd" d="M759.119 795.091c-1.001 2.568-3.281 3.102-6.582 3.102-.355 0-.706-.005-1.045-.01-.327-.005-.637-.01-.941-.01-.269 0-.541.004-.809.015.462-1.135 1.2-1.907 2.251-2.375 1.465-.652 3.37-.658 5.05-.663.732-.003 1.433-.006 2.076-.059z" fill="#5C8D52"/><path fill-rule="evenodd" clip-rule="evenodd" d="M760.149 795.915c-1.481 3.226-4.782 3.549-7.611 3.549-.621 0-1.216-.015-1.767-.019l-.713 2.787c3.649-2.975 8.476-.025 7.96 4.464-.348 3.024-2.504 5.002-4.784 5.57-2.485.619-5.237-.308-6.471-2.84a9.642 9.642 0 01-.446-1.089l2.62-.673c.046.151.125.297.207.43 1.754 2.828 5.308 1.414 5.709-1.521.409-2.985-3.78-4.575-5.689-1.086l-2.323-.99-.04-.018 1.12-4.498c.069-.32.302-1.213.342-1.36 1.267-4.657 5.364-4.73 8.65-4.742A11.45 11.45 0 00752.5 793c-6.352 0-11.5 5.148-11.5 11.5s5.148 11.5 11.5 11.5 11.5-5.148 11.5-11.5a11.47 11.47 0 00-3.851-8.585z" fill="#5C8D52"/><path d="M725.5 826h3c1.728 0 2.5-.771 2.5-2.5v-3.893a5.595 5.595 0 00-1-.388V819a3 3 0 10-6 0v.219c-.345.097-.68.227-1 .388v3.893c0 1.729.771 2.5 2.5 2.5zm-.5-7a2 2 0 014 0v.031a5.161 5.161 0 00-.5-.031h-3c-.169 0-.335.015-.5.031V819z" fill="#5C8D52"/><path d="M732 820.261v3.239c0 2.29-1.21 3.5-3.5 3.5h-3c-2.29 0-3.5-1.21-3.5-3.5v-3.239a5.493 5.493 0 00-2 4.239v9a2.502 2.502 0 002.5 2.5h9a2.502 2.502 0 002.5-2.5v-9a5.493 5.493 0 00-2-4.239zM729.5 832h-.5v.5a.5.5 0 01-1 0v-.5h-3.5a.5.5 0 010-1h5a.5.5 0 010 1zm6-4h-.5v5.949a2.504 2.504 0 002-2.449v-2a1.502 1.502 0 00-1.5-1.5zm-18.5 1.5v2a2.503 2.503 0 002 2.449V828h-.5a1.502 1.502 0 00-1.5 1.5z" fill="#5C8D52"/><circle cx="725.747" cy="781.344" r="15" transform="rotate(-49 725.747 781.344)" fill="#F3C67A"/><path d="M734.267 784.931l-.77-4.024c-.36-1.93-2.076-3.333-4.078-3.333h-2.61c.08-2.131-.836-5.4-4.863-6.544a.732.732 0 00-.938.691v1.396l-3.894 1.915a2.204 2.204 0 00-1.232 1.958 2.19 2.19 0 001.261 1.987l1.782.835-.88 5.213-.117-.044c-1.137-.403-2.391.18-2.802 1.296-.403 1.116.191 2.347 1.328 2.743l1.98.699a22.858 22.858 0 007.568 1.281c2.589 0 5.133-.432 7.561-1.281l1.987-.699a2.13 2.13 0 001.239-1.101c.25-.519.279-1.102.081-1.642-.381-1.051-1.525-1.619-2.603-1.346zm-11.125 1.274a2.98 2.98 0 012.867-2.152 2.952 2.952 0 012.75 1.828l.235.576a18.81 18.81 0 01-5.925.008l.073-.26zm12.32 1.102a.732.732 0 01-.403.36l-1.988.698a21.539 21.539 0 01-14.139 0l-1.987-.698a.7.7 0 01-.433-.9.713.713 0 01.917-.432l1.987.691a20.052 20.052 0 0013.171 0l1.98-.691a.722.722 0 01.924.432.663.663 0 01-.029.54z" fill="#5C8D52"/><path fill-rule="evenodd" clip-rule="evenodd" d="M770 823.381a5.47 5.47 0 011.508-3.802c.973-1.018 2.262-1.579 3.629-1.579H787v2.734h-11.863c-.67 0-1.304.277-1.783.778a2.698 2.698 0 00-.744 1.869l-.015 4.59c-.121 1.219-.998 2.202-2.133 2.383l-.462.075v-7.048zM770 836v-2.735h11.863c.67 0 1.304-.276 1.782-.779.481-.5.744-1.164.744-1.867l.002-4.356c0-1.297.923-2.422 2.148-2.618l.461-.074v7.048a5.464 5.464 0 01-1.509 3.801c-.972 1.019-2.259 1.58-3.628 1.58H770zm10.066-5.571v-3.485l-1.566 1.907-1.567-1.907v3.485h-2.076v-6.858h1.966l1.677 2.205 1.676-2.205h1.967v6.858h-2.077z" fill="#5C8D52"/><circle cx="858" cy="809" r="15" fill="#F3C67A"/><path d="M868.198 816.378l-.51-12.165c-.051-1.198-1.073-2.172-2.281-2.172h-1.654v-1.323a2.53 2.53 0 00-2.536-2.518 2.53 2.53 0 00-2.536 2.518v1.323h-1.654c-1.008 0-1.882.579-2.169 1.365h4.103c.893 0 1.747.343 2.405.965a3.44 3.44 0 011.09 2.337l.484 9.606a3.268 3.268 0 01-.762 2.286h3.874c.594 0 1.146-.232 1.553-.654.407-.421.618-.978.593-1.568zm-5.649-14.337h-2.664v-1.323a1.33 1.33 0 011.332-1.323c.735 0 1.332.594 1.332 1.323v1.323z" fill="#5C8D52"/><path d="M861.254 806.768c-.06-1.195-1.089-2.166-2.293-2.166h-8.381c-1.205 0-2.233.971-2.293 2.166l-.484 9.606c-.03.59.177 1.148.582 1.571.404.422.955.655 1.55.655h9.67c.596 0 1.146-.233 1.551-.655a2.1 2.1 0 00.582-1.571l-.484-9.606zm-3.948 2.272a2.53 2.53 0 01-2.536 2.518 2.53 2.53 0 01-2.536-2.518v-1.92a.6.6 0 01.602-.598.6.6 0 01.602.598v1.92c0 .73.598 1.323 1.332 1.323.735 0 1.332-.594 1.332-1.323v-1.92a.6.6 0 01.602-.598.6.6 0 01.602.598v1.92z" fill="#5C8D52"/></g><defs><clipPath id="clip0_26_872"><path fill="#fff" d="M0 0h1268v944H0z"/></clipPath><clipPath id="clip1_26_872"><path fill="#fff" transform="translate(839 650)" d="M0 0h98v133.3H0z"/></clipPath><linearGradient id="paint0_linear_26_872" x1="471.5" y1="0" x2="471.5" y2="163" gradientUnits="userSpaceOnUse"><stop stop-color="#57884C"/><stop offset="1" stop-color="#57884C" stop-opacity="0"/></linearGradient></defs></svg>