<svg width="330" height="174" fill="none" xmlns="http://www.w3.org/2000/svg"><g clip-path="url(#clip0_1_160)" stroke="#fff" stroke-opacity=".2" stroke-width="2" stroke-miterlimit="10" stroke-linecap="round" stroke-linejoin="round"><path d="M128.537-16.274c17.582 35.67 43.669 72.346 81.484 93.548 5.989 3.357 12.492 6.338 23.37 10.165"/><path d="M44.975 4.918c-5.17 8.386-10.16 18.168-14.723 29.764C7.389 92.786 57.877 149.131 77.683 168.276c2.182 2.109 5.823.363 5.504-2.652-1.839-17.368 5.558-44.102 43.177-115.33 24.508-46.406-20.148-117.962-20.148-117.962-2.451 19.912-25.669 27.083-49.003 55.43"/><path d="M81.4-148.66c14.349 31.503 29.24 76.366 28.031 125.212-1.598 64.592-50.887 102.465-42.345 144.822M195.46 95.098c33.403 20.758 79.861 12.292 102.149 6.341 3.207-.856 3.213-5.367.017-6.269-23.975-6.766-32.957-25.159-67.934-40.506-45.541-19.983-70.831-22.134-70.831-22.134 3.217 21.646 10.601 37.44 20.468 48.824"/></g><defs><clipPath id="clip0_1_160"><path fill="#fff" transform="rotate(180 165 87)" d="M0 0h330v174H0z"/></clipPath></defs></svg>