<svg width="968" height="547" fill="none" xmlns="http://www.w3.org/2000/svg"><g clip-path="url(#clip0_1_146)" stroke="#fff" stroke-opacity=".2" stroke-width="2" stroke-miterlimit="10" stroke-linecap="round" stroke-linejoin="round"><path d="M588.651 562.58c-51.892-105.465-128.882-213.902-240.486-276.59-17.675-9.928-36.867-18.74-68.972-30.056"/><path d="M835.266 499.925c15.26-24.795 29.986-53.718 43.453-88.006 67.474-171.794-81.53-338.39-139.985-394.994-6.439-6.235-17.186-1.073-16.244 7.842 5.428 51.35-16.401 130.394-127.427 340.997-72.331 137.205 59.463 348.773 59.463 348.773 7.233-58.873 75.755-80.075 144.622-163.888"/><path d="M727.767 954.008c-42.35-93.145-86.298-225.792-82.731-370.213 4.718-190.978 150.185-302.958 124.973-428.193M421.218 683.704c62.154-9.236 100.22-29.452 134.48-9.663 0 0-71.369-185.366-193.353-205.151-179.984-29.194-243.097-52.525-274.421-79.237-6.714-5.726-16.914-.142-15.736 8.604 9.166 68.133 45.498 234.861 183.45 273.295 39.34 10.961 73.258 15.406 102.881 16.115"/><path d="M696.441 877.091S651.467 740.366 477.08 605.284c-120.331-93.211-264.775-49.751-332.352-125.873M391.14 233.289c-98.581-61.374-235.693-36.343-301.471-18.749-9.466 2.532-9.482 15.869-.051 18.535 70.756 20.007 97.267 74.388 200.493 119.765 134.405 59.084 209.045 65.443 209.045 65.443-9.495-64-31.288-110.699-60.408-144.356"/></g><defs><clipPath id="clip0_1_146"><path fill="#fff" d="M0 0h968v547H0z"/></clipPath></defs></svg>