<svg width="276" height="363" fill="none" xmlns="http://www.w3.org/2000/svg"><g clip-path="url(#clip0_50_48)" stroke="#fff" stroke-opacity=".2" stroke-width="2" stroke-miterlimit="10" stroke-linecap="round" stroke-linejoin="round"><path d="M283.861 297.123c-53.214-26.192-107.928-65.053-139.559-121.385-5.009-8.922-9.456-18.609-15.165-34.814"/><path d="M252.247 421.603c-12.511 7.702-27.104 15.135-44.405 21.933C121.16 477.594 37.101 402.383 8.54 372.878c-3.146-3.25-.541-8.674 3.957-8.199 25.91 2.74 65.793-8.279 172.057-64.319 69.229-36.51 175.98 30.014 175.98 30.014-29.705 3.651-40.403 38.237-82.693 72.998"/><path d="M481.364 367.343c-46.998-21.377-113.928-43.56-186.799-41.759-96.361 2.381-152.863 75.806-216.053 63.081m266.465-176.054c-4.66 31.372-14.861 50.586-4.876 67.879 0 0-93.53-36.024-103.513-97.595-14.73-90.848-26.503-122.705-39.981-138.515-2.889-3.39-.071-8.538 4.342-7.943 34.377 4.626 118.503 22.965 137.896 92.597 5.531 19.857 7.774 36.977 8.132 51.929"/><path d="M442.554 351.531s-68.987-22.701-137.146-110.723c-47.031-60.738-25.102-133.647-63.511-167.756M117.711 197.429c-30.968-49.759-18.338-118.966-9.46-152.168 1.277-4.779 8.007-4.786 9.352-.026 10.095 35.715 37.534 49.096 60.43 101.199 29.812 67.841 33.021 105.516 33.021 105.516-32.293-4.792-55.856-15.792-72.839-30.491"/></g><defs><clipPath id="clip0_50_48"><path fill="#fff" transform="matrix(0 1 1 0 0 0)" d="M0 0h363v276H0z"/></clipPath></defs></svg>