<svg width="40" height="40" fill="none" xmlns="http://www.w3.org/2000/svg"><path fill="#2CD44A" d="M0 0h40v40H0z"/><path d="M27.082 12.827a9.917 9.917 0 00-7.127-2.996c-5.54 0-10.079 4.54-10.079 10.078 0 1.816.5 3.541 1.362 5.04l-1.407 5.22 5.311-1.361c1.498.771 3.133 1.225 4.813 1.225 5.584 0 10.215-4.54 10.215-10.078 0-2.724-1.18-5.221-3.088-7.128zm-7.127 15.481a8.397 8.397 0 01-4.268-1.18l-.272-.182-3.178.863.862-3.087-.227-.318a8.736 8.736 0 01-1.27-4.495c0-4.585 3.767-8.353 8.398-8.353 2.225 0 4.313.862 5.902 2.451 1.589 1.59 2.542 3.678 2.542 5.948 0 4.585-3.859 8.353-8.49 8.353zm4.63-6.265a56.223 56.223 0 00-1.725-.817c-.227-.091-.408-.136-.59.136-.136.227-.636.817-.772.999-.181.136-.318.181-.545.045-1.498-.726-2.451-1.316-3.45-2.996-.272-.454.273-.409.727-1.362.09-.182.045-.318 0-.454-.046-.136-.59-1.362-.772-1.862-.227-.499-.409-.454-.59-.454h-.454a.852.852 0 00-.682.318c-.226.273-.862.863-.862 2.089 0 1.27.863 2.451.999 2.633.136.136 1.77 2.678 4.313 3.768 1.589.726 2.224.772 3.041.636.454-.046 1.453-.59 1.68-1.18.227-.591.227-1.09.136-1.181-.045-.136-.227-.182-.454-.318z" fill="#fff"/></svg>